<svg width="13" height="12" viewBox="0 0 13 12" fill="none" xmlns="http://www.w3.org/2000/svg">
<path d="M8.9844 0.953101C9.09898 1.04685 9.16148 1.16143 9.1719 1.29685C9.18232 1.43227 9.14065 1.55206 9.0469 1.65623L5.32815 5.99998L8.68753 9.90623C8.58336 10.0521 8.48961 10.2083 8.40628 10.375C8.32294 10.5416 8.26044 10.7239 8.21878 10.9219L4.6719 6.7656L1.0469 10.9844C0.953152 11.0989 0.838569 11.1614 0.703152 11.1719C0.567735 11.1823 0.447944 11.1406 0.343777 11.0469C0.23961 10.9531 0.182319 10.8385 0.171902 10.7031C0.161485 10.5677 0.197944 10.4479 0.281277 10.3437L4.01565 5.99998L0.281277 1.65623C0.197944 1.55206 0.161485 1.43227 0.171902 1.29685C0.182319 1.16143 0.23961 1.04685 0.343777 0.953101C0.447944 0.859351 0.567735 0.817684 0.703152 0.828101C0.838569 0.838517 0.953152 0.901017 1.0469 1.0156L4.6719 5.23435L8.28128 1.0156C8.37503 0.901017 8.48961 0.838517 8.62503 0.828101C8.76044 0.817684 8.88023 0.859351 8.9844 0.953101ZM9.82815 8.34373C9.82815 8.16664 9.89065 8.01039 10.0157 7.87498C10.1511 7.73956 10.3073 7.67185 10.4844 7.67185C10.6198 7.67185 10.7396 7.69789 10.8438 7.74998C10.9479 7.80206 11.0313 7.86977 11.0938 7.9531C11.1354 8.02602 11.1563 8.12498 11.1563 8.24998C11.1667 8.36456 11.125 8.51039 11.0313 8.68748C10.9792 8.77081 10.9115 8.85414 10.8282 8.93748C10.7552 9.01039 10.6667 9.08852 10.5625 9.17185C10.5209 9.21352 10.4688 9.25518 10.4063 9.29685C10.3542 9.3281 10.2969 9.36456 10.2344 9.40623L10.1875 9.43748C10.1354 9.47914 10.0834 9.52081 10.0313 9.56248C9.97919 9.59373 9.92711 9.63018 9.87503 9.67185C9.62503 9.85935 9.38544 10.0937 9.15628 10.375C8.93753 10.6562 8.82815 11.0312 8.82815 11.5C8.82815 11.6354 8.87503 11.7552 8.96878 11.8594C9.07294 11.9531 9.19273 12 9.32815 12H11.6407C11.7761 12 11.8907 11.9531 11.9844 11.8594C12.0886 11.7552 12.1407 11.6354 12.1407 11.5C12.1407 11.3646 12.0886 11.25 11.9844 11.1562C11.8907 11.0521 11.7761 11 11.6407 11H9.95315C10.0052 10.9062 10.0729 10.8177 10.1563 10.7344C10.25 10.651 10.3594 10.5625 10.4844 10.4687C10.5261 10.4375 10.5677 10.4062 10.6094 10.375C10.6615 10.3333 10.7136 10.2969 10.7657 10.2656L10.8125 10.2344C10.875 10.1823 10.9375 10.1354 11 10.0937C11.0625 10.0521 11.125 10.0052 11.1875 9.9531C11.3125 9.85935 11.4375 9.74998 11.5625 9.62498C11.6875 9.49998 11.7969 9.35414 11.8907 9.18748C12.0782 8.87498 12.1719 8.56248 12.1719 8.24998C12.1719 7.93748 12.0886 7.65623 11.9219 7.40623C11.7657 7.16664 11.5573 6.98435 11.2969 6.85935C11.0469 6.73435 10.7761 6.67185 10.4844 6.67185C9.99482 6.67185 9.59378 6.84893 9.28128 7.2031C8.97919 7.54685 8.82815 7.92706 8.82815 8.34373C8.82815 8.48956 8.87503 8.60935 8.96878 8.7031C9.07294 8.79685 9.19273 8.84373 9.32815 8.84373C9.47398 8.84373 9.59378 8.79685 9.68753 8.7031C9.78128 8.60935 9.82815 8.48956 9.82815 8.34373Z" fill="#60CDFF" fill-opacity="0.8"/>
<path d="M8.9844 0.953101C9.09898 1.04685 9.16148 1.16143 9.1719 1.29685C9.18232 1.43227 9.14065 1.55206 9.0469 1.65623L5.32815 5.99998L8.68753 9.90623C8.58336 10.0521 8.48961 10.2083 8.40628 10.375C8.32294 10.5416 8.26044 10.7239 8.21878 10.9219L4.6719 6.7656L1.0469 10.9844C0.953152 11.0989 0.838569 11.1614 0.703152 11.1719C0.567735 11.1823 0.447944 11.1406 0.343777 11.0469C0.23961 10.9531 0.182319 10.8385 0.171902 10.7031C0.161485 10.5677 0.197944 10.4479 0.281277 10.3437L4.01565 5.99998L0.281277 1.65623C0.197944 1.55206 0.161485 1.43227 0.171902 1.29685C0.182319 1.16143 0.23961 1.04685 0.343777 0.953101C0.447944 0.859351 0.567735 0.817684 0.703152 0.828101C0.838569 0.838517 0.953152 0.901017 1.0469 1.0156L4.6719 5.23435L8.28128 1.0156C8.37503 0.901017 8.48961 0.838517 8.62503 0.828101C8.76044 0.817684 8.88023 0.859351 8.9844 0.953101Z" fill="white"/>
</svg>
