<svg width="15" height="15" viewBox="0 0 15 15" fill="none" xmlns="http://www.w3.org/2000/svg">
<path d="M5.32031 13C5.40885 13.1771 5.5026 13.349 5.60156 13.5156C5.70573 13.6823 5.81771 13.8438 5.9375 14H2.9375C2.54688 14 2.17188 13.9219 1.8125 13.7656C1.45833 13.6042 1.14583 13.3906 0.875 13.125C0.609375 12.8542 0.395833 12.5417 0.234375 12.1875C0.078125 11.8281 0 11.4531 0 11.0625V2.9375C0 2.54688 0.078125 2.17448 0.234375 1.82031C0.395833 1.46094 0.609375 1.14844 0.875 0.882812C1.14583 0.611979 1.45833 0.398438 1.8125 0.242188C2.17188 0.0807292 2.54688 0 2.9375 0H11.0625C11.4531 0 11.8255 0.0807292 12.1797 0.242188C12.5391 0.398438 12.8516 0.611979 13.1172 0.882812C13.388 1.14844 13.6016 1.46094 13.7578 1.82031C13.9193 2.17448 14 2.54688 14 2.9375V5.9375C13.8438 5.81771 13.6823 5.70833 13.5156 5.60938C13.349 5.50521 13.1771 5.40885 13 5.32031V4H1V11.0391C1 11.3099 1.05469 11.5651 1.16406 11.8047C1.27344 12.0391 1.41927 12.2448 1.60156 12.4219C1.78385 12.599 1.99479 12.7396 2.23438 12.8438C2.47917 12.9479 2.73438 13 3 13H5.32031ZM2.96094 1C2.69531 1 2.44271 1.05469 2.20312 1.16406C1.96354 1.27344 1.75521 1.41927 1.57812 1.60156C1.40104 1.78385 1.26042 1.9974 1.15625 2.24219C1.05208 2.48177 1 2.73438 1 3H13V2.96094C13 2.70052 12.9453 2.45312 12.8359 2.21875C12.7318 1.97917 12.5885 1.77083 12.4062 1.59375C12.2292 1.41146 12.0208 1.26823 11.7812 1.16406C11.5469 1.05469 11.2995 1 11.0391 1H2.96094ZM15 10.5C15 11.1198 14.8802 11.7031 14.6406 12.25C14.4062 12.7969 14.0859 13.2734 13.6797 13.6797C13.2734 14.0859 12.7969 14.4089 12.25 14.6484C11.7031 14.8828 11.1198 15 10.5 15C9.875 15 9.28906 14.8828 8.74219 14.6484C8.19531 14.4141 7.71875 14.0938 7.3125 13.6875C6.90625 13.2812 6.58594 12.8047 6.35156 12.2578C6.11719 11.7109 6 11.125 6 10.5C6 9.88021 6.11719 9.29688 6.35156 8.75C6.59115 8.20312 6.91406 7.72656 7.32031 7.32031C7.72656 6.91406 8.20312 6.59375 8.75 6.35938C9.29688 6.11979 9.88021 6 10.5 6C10.9115 6 11.3073 6.05469 11.6875 6.16406C12.0729 6.26823 12.4323 6.41927 12.7656 6.61719C13.099 6.8099 13.4036 7.04427 13.6797 7.32031C13.9557 7.59635 14.1901 7.90104 14.3828 8.23438C14.5807 8.56771 14.7318 8.92708 14.8359 9.3125C14.9453 9.69271 15 10.0885 15 10.5ZM12 11C12.1354 11 12.2526 10.9505 12.3516 10.8516C12.4505 10.7526 12.5 10.6354 12.5 10.5C12.5 10.3646 12.4505 10.2474 12.3516 10.1484C12.2526 10.0495 12.1354 10 12 10H11V8.5C11 8.36458 10.9505 8.2474 10.8516 8.14844C10.7526 8.04948 10.6354 8 10.5 8C10.3646 8 10.2474 8.04948 10.1484 8.14844C10.0495 8.2474 10 8.36458 10 8.5V10.5C10 10.6354 10.0495 10.7526 10.1484 10.8516C10.2474 10.9505 10.3646 11 10.5 11H12Z" fill="#EECE82" fill-opacity="0.8"/>
<path d="M5.32031 13C5.40885 13.1771 5.5026 13.349 5.60156 13.5156C5.70573 13.6823 5.81771 13.8438 5.9375 14H2.9375C2.54688 14 2.17188 13.9219 1.8125 13.7656C1.45833 13.6042 1.14583 13.3906 0.875 13.125C0.609375 12.8542 0.395833 12.5417 0.234375 12.1875C0.078125 11.8281 0 11.4531 0 11.0625V2.9375C0 2.54688 0.078125 2.17448 0.234375 1.82031C0.395833 1.46094 0.609375 1.14844 0.875 0.882812C1.14583 0.611979 1.45833 0.398438 1.8125 0.242188C2.17188 0.0807292 2.54688 0 2.9375 0H11.0625C11.4531 0 11.8255 0.0807292 12.1797 0.242188C12.5391 0.398438 12.8516 0.611979 13.1172 0.882812C13.388 1.14844 13.6016 1.46094 13.7578 1.82031C13.9193 2.17448 14 2.54688 14 2.9375V5.9375C13.8438 5.81771 13.6823 5.70833 13.5156 5.60938C13.349 5.50521 13.1771 5.40885 13 5.32031V4H1V11.0391C1 11.3099 1.05469 11.5651 1.16406 11.8047C1.27344 12.0391 1.41927 12.2448 1.60156 12.4219C1.78385 12.599 1.99479 12.7396 2.23438 12.8438C2.47917 12.9479 2.73438 13 3 13H5.32031ZM2.96094 1C2.69531 1 2.44271 1.05469 2.20312 1.16406C1.96354 1.27344 1.75521 1.41927 1.57812 1.60156C1.40104 1.78385 1.26042 1.9974 1.15625 2.24219C1.05208 2.48177 1 2.73438 1 3H13V2.96094C13 2.70052 12.9453 2.45312 12.8359 2.21875C12.7318 1.97917 12.5885 1.77083 12.4062 1.59375C12.2292 1.41146 12.0208 1.26823 11.7812 1.16406C11.5469 1.05469 11.2995 1 11.0391 1H2.96094Z" fill="white"/>
</svg>
