<svg width="14" height="16" viewBox="0 0 14 16" fill="none" xmlns="http://www.w3.org/2000/svg">
<path d="M7.5 0.875C7.5 0.705729 7.56185 0.559245 7.68555 0.435547C7.80924 0.311849 7.95573 0.25 8.125 0.25C8.22917 0.25 8.32357 0.272786 8.4082 0.318359L10.625 1.42188L12.8418 0.318359C12.9264 0.272786 13.0208 0.25 13.125 0.25C13.2943 0.25 13.4408 0.311849 13.5645 0.435547C13.6882 0.559245 13.75 0.705729 13.75 0.875C13.75 0.985677 13.7174 1.0931 13.6523 1.19727C13.5938 1.30143 13.5124 1.37956 13.4082 1.43164L10.9082 2.68164C10.804 2.72721 10.7096 2.75 10.625 2.75C10.5404 2.75 10.446 2.72721 10.3418 2.68164L7.8418 1.43164C7.73763 1.37956 7.65299 1.30143 7.58789 1.19727C7.5293 1.0931 7.5 0.985677 7.5 0.875ZM0 14.6152C0 14.5306 0.0130208 14.459 0.0390625 14.4004L4.41406 3.15039C4.46615 3.02669 4.54427 2.92904 4.64844 2.85742C4.7526 2.78581 4.86979 2.75 5 2.75C5.13021 2.75 5.2474 2.78581 5.35156 2.85742C5.45573 2.92904 5.53385 3.02669 5.58594 3.15039L9.96094 14.4004C9.98698 14.459 10 14.5306 10 14.6152C10 14.7845 9.94141 14.9342 9.82422 15.0645C9.70703 15.1882 9.56055 15.25 9.38477 15.25C9.25456 15.25 9.13411 15.2142 9.02344 15.1426C8.91927 15.071 8.84115 14.9733 8.78906 14.8496L7.49023 11.5H2.50977L1.21094 14.8496C1.15885 14.9733 1.07747 15.071 0.966797 15.1426C0.86263 15.2142 0.745443 15.25 0.615234 15.25C0.439453 15.25 0.292969 15.1882 0.175781 15.0645C0.0585938 14.9342 0 14.7845 0 14.6152ZM5 5.10352L2.99805 10.25H7.00195L5 5.10352Z" fill="#60CDFF" fill-opacity="0.8"/>
<path d="M0 14.6152C0 14.5306 0.0130208 14.459 0.0390625 14.4004L4.41406 3.15039C4.46615 3.02669 4.54427 2.92904 4.64844 2.85742C4.7526 2.78581 4.86979 2.75 5 2.75C5.13021 2.75 5.2474 2.78581 5.35156 2.85742C5.45573 2.92904 5.53385 3.02669 5.58594 3.15039L9.96094 14.4004C9.98698 14.459 10 14.5306 10 14.6152C10 14.7845 9.94141 14.9342 9.82422 15.0645C9.70703 15.1882 9.56055 15.25 9.38477 15.25C9.25456 15.25 9.13411 15.2142 9.02344 15.1426C8.91927 15.071 8.84115 14.9733 8.78906 14.8496L7.49023 11.5H2.50977L1.21094 14.8496C1.15885 14.9733 1.07747 15.071 0.966797 15.1426C0.86263 15.2142 0.745443 15.25 0.615234 15.25C0.439453 15.25 0.292969 15.1882 0.175781 15.0645C0.0585938 14.9342 0 14.7845 0 14.6152ZM5 5.10352L2.99805 10.25H7.00195L5 5.10352Z" fill="white"/>
</svg>
