<svg viewBox="0 0 16 16" fill="none" xmlns="http://www.w3.org/2000/svg">
<path d="M8.125 2.75C7.95573 2.75 7.80924 2.68815 7.68555 2.56445C7.56185 2.44076 7.5 2.29427 7.5 2.125C7.5 2.01432 7.5293 1.9069 7.58789 1.80273C7.65299 1.69857 7.73763 1.62044 7.8418 1.56836L10.3418 0.318359C10.4264 0.272786 10.5208 0.25 10.625 0.25C10.7292 0.25 10.8236 0.272786 10.9082 0.318359L13.4082 1.56836C13.5124 1.62044 13.5938 1.69857 13.6523 1.80273C13.7174 1.9069 13.75 2.01432 13.75 2.125C13.75 2.29427 13.6882 2.44076 13.5645 2.56445C13.4408 2.68815 13.2943 2.75 13.125 2.75C13.0208 2.75 12.9264 2.72721 12.8418 2.68164L10.625 1.57812L8.4082 2.68164C8.32357 2.72721 8.22917 2.75 8.125 2.75ZM0 14.6152C0 14.5306 0.0130208 14.459 0.0390625 14.4004L4.41406 3.15039C4.46615 3.02669 4.54427 2.92904 4.64844 2.85742C4.7526 2.78581 4.86979 2.75 5 2.75C5.13021 2.75 5.2474 2.78581 5.35156 2.85742C5.45573 2.92904 5.53385 3.02669 5.58594 3.15039L9.96094 14.4004C9.98698 14.459 10 14.5306 10 14.6152C10 14.7845 9.94141 14.9342 9.82422 15.0645C9.70703 15.1882 9.56055 15.25 9.38477 15.25C9.25456 15.25 9.13411 15.2142 9.02344 15.1426C8.91927 15.071 8.84115 14.9733 8.78906 14.8496L7.49023 11.5H2.50977L1.21094 14.8496C1.15885 14.9733 1.07747 15.071 0.966797 15.1426C0.86263 15.2142 0.745443 15.25 0.615234 15.25C0.439453 15.25 0.292969 15.1882 0.175781 15.0645C0.0585938 14.9342 0 14.7845 0 14.6152ZM5 5.10352L2.99805 10.25H7.00195L5 5.10352Z" fill="#60CDFF" fill-opacity="0.8"/>
<path d="M0 14.6152C0 14.5306 0.0130208 14.459 0.0390625 14.4004L4.41406 3.15039C4.46615 3.02669 4.54427 2.92904 4.64844 2.85742C4.7526 2.78581 4.86979 2.75 5 2.75C5.13021 2.75 5.2474 2.78581 5.35156 2.85742C5.45573 2.92904 5.53385 3.02669 5.58594 3.15039L9.96094 14.4004C9.98698 14.459 10 14.5306 10 14.6152C10 14.7845 9.94141 14.9342 9.82422 15.0645C9.70703 15.1882 9.56055 15.25 9.38477 15.25C9.25456 15.25 9.13411 15.2142 9.02344 15.1426C8.91927 15.071 8.84115 14.9733 8.78906 14.8496L7.49023 11.5H2.50977L1.21094 14.8496C1.15885 14.9733 1.07747 15.071 0.966797 15.1426C0.86263 15.2142 0.745443 15.25 0.615234 15.25C0.439453 15.25 0.292969 15.1882 0.175781 15.0645C0.0585938 14.9342 0 14.7845 0 14.6152ZM5 5.10352L2.99805 10.25H7.00195L5 5.10352Z" fill="white"/>
</svg>
