<svg width="14" height="14" viewBox="0 0 14 14" fill="none" xmlns="http://www.w3.org/2000/svg">
<path d="M2.9375 12C2.54688 12 2.17188 11.9219 1.8125 11.7656C1.45833 11.6042 1.14583 11.3906 0.875 11.125C0.609375 10.8542 0.395833 10.5417 0.234375 10.1875C0.078125 9.82812 0 9.45312 0 9.0625V2.9375C0 2.54688 0.078125 2.17448 0.234375 1.82031C0.395833 1.46094 0.609375 1.14844 0.875 0.882812C1.14583 0.611979 1.45833 0.398438 1.8125 0.242188C2.17188 0.0807292 2.54688 0 2.9375 0H9.0625C9.45312 0 9.82552 0.0807292 10.1797 0.242188C10.5391 0.398438 10.8516 0.611979 11.1172 0.882812C11.388 1.14844 11.6016 1.46094 11.7578 1.82031C11.9193 2.17448 12 2.54688 12 2.9375V9.0625C12 9.45312 11.9193 9.82812 11.7578 10.1875C11.6016 10.5417 11.388 10.8542 11.1172 11.125C10.8516 11.3906 10.5391 11.6042 10.1797 11.7656C9.82552 11.9219 9.45312 12 9.0625 12H2.9375ZM6 6.125C6.26562 6.125 6.52083 6.17708 6.76562 6.28125C7.01042 6.38021 7.22656 6.52344 7.41406 6.71094L10.7266 10.0156C10.8151 9.86458 10.8828 9.70312 10.9297 9.53125C10.9766 9.35417 11 9.17708 11 9V2.96094C11 2.70052 10.9453 2.45312 10.8359 2.21875C10.7318 1.97917 10.5885 1.77083 10.4062 1.59375C10.2292 1.41146 10.0208 1.26823 9.78125 1.16406C9.54688 1.05469 9.29948 1 9.03906 1H2.96094C2.70052 1 2.45052 1.05469 2.21094 1.16406C1.97656 1.26823 1.76823 1.41146 1.58594 1.59375C1.40885 1.77083 1.26562 1.97917 1.15625 2.21875C1.05208 2.45312 1 2.70052 1 2.96094V9C1 9.17708 1.02344 9.35417 1.07031 9.53125C1.11719 9.70312 1.1849 9.86458 1.27344 10.0156L4.58594 6.71094C4.77344 6.52344 4.98958 6.38021 5.23438 6.28125C5.47917 6.17708 5.73438 6.125 6 6.125ZM7.5 3.5C7.5 3.35938 7.52604 3.22917 7.57812 3.10938C7.63021 2.98958 7.70052 2.88542 7.78906 2.79688C7.88281 2.70312 7.98958 2.63021 8.10938 2.57812C8.22917 2.52604 8.35938 2.5 8.5 2.5C8.63542 2.5 8.76302 2.52604 8.88281 2.57812C9.00781 2.63021 9.11458 2.70312 9.20312 2.79688C9.29688 2.88542 9.36979 2.99219 9.42188 3.11719C9.47396 3.23698 9.5 3.36458 9.5 3.5C9.5 3.64062 9.47396 3.77083 9.42188 3.89062C9.36979 4.01042 9.29688 4.11719 9.20312 4.21094C9.11458 4.29948 9.01042 4.36979 8.89062 4.42188C8.77083 4.47396 8.64062 4.5 8.5 4.5C8.35938 4.5 8.22656 4.47396 8.10156 4.42188C7.98177 4.36979 7.8776 4.29948 7.78906 4.21094C7.70052 4.1224 7.63021 4.01823 7.57812 3.89844C7.52604 3.77344 7.5 3.64062 7.5 3.5ZM5 14C4.57292 14 4.16406 13.9141 3.77344 13.7422C3.38281 13.5703 3.04688 13.3229 2.76562 13H9.55469C10.0286 13 10.474 12.9062 10.8906 12.7188C11.3125 12.5312 11.6797 12.2786 11.9922 11.9609C12.3047 11.638 12.5495 11.2656 12.7266 10.8438C12.9089 10.4219 13 9.97396 13 9.5V2.76562C13.3229 3.04688 13.5703 3.38281 13.7422 3.77344C13.9141 4.16406 14 4.57292 14 5V9.5C14 10.1198 13.8802 10.7031 13.6406 11.25C13.4062 11.7969 13.0859 12.2734 12.6797 12.6797C12.2734 13.0859 11.7969 13.4089 11.25 13.6484C10.7031 13.8828 10.1198 14 9.5 14H5ZM9 11C9.17708 11 9.35156 10.9766 9.52344 10.9297C9.70052 10.8828 9.86458 10.8151 10.0156 10.7266L6.71094 7.41406C6.51302 7.21615 6.27604 7.11719 6 7.11719C5.72396 7.11719 5.48698 7.21615 5.28906 7.41406L1.98438 10.7266C2.13542 10.8151 2.29688 10.8828 2.46875 10.9297C2.64583 10.9766 2.82292 11 3 11H9Z" fill="#60CDFF" fill-opacity="0.8"/>
<path d="M2.9375 12C2.54688 12 2.17188 11.9219 1.8125 11.7656C1.45833 11.6042 1.14583 11.3906 0.875 11.125C0.609375 10.8542 0.395833 10.5417 0.234375 10.1875C0.078125 9.82812 0 9.45312 0 9.0625V2.9375C0 2.54688 0.078125 2.17448 0.234375 1.82031C0.395833 1.46094 0.609375 1.14844 0.875 0.882812C1.14583 0.611979 1.45833 0.398438 1.8125 0.242188C2.17188 0.0807292 2.54688 0 2.9375 0H9.0625C9.45312 0 9.82552 0.0807292 10.1797 0.242188C10.5391 0.398438 10.8516 0.611979 11.1172 0.882812C11.388 1.14844 11.6016 1.46094 11.7578 1.82031C11.9193 2.17448 12 2.54688 12 2.9375V9.0625C12 9.45312 11.9193 9.82812 11.7578 10.1875C11.6016 10.5417 11.388 10.8542 11.1172 11.125C10.8516 11.3906 10.5391 11.6042 10.1797 11.7656C9.82552 11.9219 9.45312 12 9.0625 12H2.9375ZM6 6.125C6.26562 6.125 6.52083 6.17708 6.76562 6.28125C7.01042 6.38021 7.22656 6.52344 7.41406 6.71094L10.7266 10.0156C10.8151 9.86458 10.8828 9.70312 10.9297 9.53125C10.9766 9.35417 11 9.17708 11 9V2.96094C11 2.70052 10.9453 2.45312 10.8359 2.21875C10.7318 1.97917 10.5885 1.77083 10.4062 1.59375C10.2292 1.41146 10.0208 1.26823 9.78125 1.16406C9.54688 1.05469 9.29948 1 9.03906 1H2.96094C2.70052 1 2.45052 1.05469 2.21094 1.16406C1.97656 1.26823 1.76823 1.41146 1.58594 1.59375C1.40885 1.77083 1.26562 1.97917 1.15625 2.21875C1.05208 2.45312 1 2.70052 1 2.96094V9C1 9.17708 1.02344 9.35417 1.07031 9.53125C1.11719 9.70312 1.1849 9.86458 1.27344 10.0156L4.58594 6.71094C4.77344 6.52344 4.98958 6.38021 5.23438 6.28125C5.47917 6.17708 5.73438 6.125 6 6.125ZM7.5 3.5C7.5 3.35938 7.52604 3.22917 7.57812 3.10938C7.63021 2.98958 7.70052 2.88542 7.78906 2.79688C7.88281 2.70312 7.98958 2.63021 8.10938 2.57812C8.22917 2.52604 8.35938 2.5 8.5 2.5C8.63542 2.5 8.76302 2.52604 8.88281 2.57812C9.00781 2.63021 9.11458 2.70312 9.20312 2.79688C9.29688 2.88542 9.36979 2.99219 9.42188 3.11719C9.47396 3.23698 9.5 3.36458 9.5 3.5C9.5 3.64062 9.47396 3.77083 9.42188 3.89062C9.36979 4.01042 9.29688 4.11719 9.20312 4.21094C9.11458 4.29948 9.01042 4.36979 8.89062 4.42188C8.77083 4.47396 8.64062 4.5 8.5 4.5C8.35938 4.5 8.22656 4.47396 8.10156 4.42188C7.98177 4.36979 7.8776 4.29948 7.78906 4.21094C7.70052 4.1224 7.63021 4.01823 7.57812 3.89844C7.52604 3.77344 7.5 3.64062 7.5 3.5ZM9 11C9.17708 11 9.35156 10.9766 9.52344 10.9297C9.70052 10.8828 9.86458 10.8151 10.0156 10.7266L6.71094 7.41406C6.51302 7.21615 6.27604 7.11719 6 7.11719C5.72396 7.11719 5.48698 7.21615 5.28906 7.41406L1.98438 10.7266C2.13542 10.8151 2.29688 10.8828 2.46875 10.9297C2.64583 10.9766 2.82292 11 3 11H9Z" fill="white"/>
</svg>
