<svg viewBox="0 0 24 24" fill="none" xmlns="http://www.w3.org/2000/svg">
<path d="M2 16H23V18C23 18.5523 22.5523 19 22 19H5C3.34315 19 2 17.6569 2 16V16Z" fill="#4EA7FC"/>
<path d="M2 16H23V18C23 18.5523 22.5523 19 22 19H5C3.34315 19 2 17.6569 2 16V16Z" fill="#60CDFF" fill-opacity="0.8"/>
<path d="M5.80374 12.6703C6.17617 12.2939 6.77747 12.2731 7.17505 12.6228L11.0144 16L10.0144 17.5L7.51439 19.5L2.51439 19L2.01439 16.5L5.80374 12.6703Z" fill="#71B966"/>
<path d="M12.0144 15.5L16.5144 19H8.51439L12.0144 15.5Z" fill="#71B966"/>
<path fill-rule="evenodd" clip-rule="evenodd" d="M2.22882 16.5981L5.53002 13.2891C5.72793 13.0912 5.96491 12.9922 6.24095 12.9922C6.517 12.9922 6.75397 13.0912 6.95189 13.2891L10.2566 16.6016L10.9675 15.8906L7.65502 12.5859C7.46752 12.3984 7.25137 12.2552 7.00658 12.1562C6.76179 12.0521 6.50658 12 6.24095 12C5.97533 12 5.72012 12.0521 5.47533 12.1562C5.23054 12.2552 5.01439 12.3984 4.82689 12.5859L2 15.5L2.22882 16.5981ZM2.24226 16.6114L2.22882 16.5981L2.22533 16.6016L2.24226 16.6114Z" fill="white"/>
<path fill-rule="evenodd" clip-rule="evenodd" d="M8.22882 19.5981L11.53 16.2891C11.7279 16.0912 11.9649 15.9922 12.2409 15.9922C12.517 15.9922 12.754 16.0912 12.9519 16.2891L16.2566 19.6016L17.0144 19L13.655 15.5859C13.4675 15.3984 13.2514 15.2552 13.0066 15.1562C12.7618 15.0521 12.5066 15 12.2409 15C11.9753 15 11.7201 15.0521 11.4753 15.1562C11.2305 15.2552 11.0144 15.3984 10.8269 15.5859L7.51439 19L8.22882 19.5981ZM8.24226 19.6114L8.22882 19.5981L8.22533 19.6016L8.24226 19.6114Z" fill="white"/>
<path fill-rule="evenodd" clip-rule="evenodd" d="M3.20996 19.8438C3.44922 19.9479 3.70215 20 3.96875 20H21.0312C21.2979 20 21.5508 19.9479 21.79 19.8438C22.0293 19.7396 22.2378 19.5972 22.4155 19.4167C22.6001 19.2292 22.7437 19.0139 22.8462 18.7708C22.9487 18.5278 23 18.2708 23 18V6C23 5.72917 22.9487 5.47222 22.8462 5.22917C22.7437 4.98611 22.6001 4.77431 22.4155 4.59375C22.2378 4.40625 22.0293 4.26042 21.79 4.15625C21.5508 4.05208 21.2979 4 21.0312 4H3.96875C3.70215 4 3.44922 4.05208 3.20996 4.15625C2.9707 4.26042 2.75879 4.40625 2.57422 4.59375C2.39648 4.77431 2.25635 4.98611 2.15381 5.22917C2.05127 5.47222 2 5.72917 2 6V18C2 18.2708 2.05127 18.5278 2.15381 18.7708C2.25635 19.0139 2.39648 19.2292 2.57422 19.4167C2.75879 19.5972 2.9707 19.7396 3.20996 19.8438ZM21 19H17.5H8.5H4C3.82227 19 3.5 19 3.27344 18.7708C3 18.5 3 18.1806 3 18V6C3 5.5 3.10449 5.36111 3.23438 5.22917C3.36426 5.09722 3.5 5 4.00409 5H21C21.5 5 21.6396 5.09722 21.7695 5.22917C21.8994 5.36111 22 5.5 22 6V18C22 18.5 21.9424 18.6389 21.8125 18.7708C21.6826 18.9028 21.5 19 21 19Z" fill="white"/>
</svg>
