<svg width="16" height="11" viewBox="0 0 16 11" fill="none" xmlns="http://www.w3.org/2000/svg">
<path d="M0 1.5C0 1.35938 0.0260417 1.22917 0.078125 1.10938C0.130208 0.989583 0.200521 0.885417 0.289062 0.796875C0.382812 0.703125 0.489583 0.630208 0.609375 0.578125C0.729167 0.526042 0.859375 0.5 1 0.5C1.13542 0.5 1.26302 0.526042 1.38281 0.578125C1.50781 0.630208 1.61458 0.703125 1.70312 0.796875C1.79688 0.885417 1.86979 0.992188 1.92188 1.11719C1.97396 1.23698 2 1.36458 2 1.5C2 1.64062 1.97396 1.77083 1.92188 1.89062C1.86979 2.01042 1.79688 2.11719 1.70312 2.21094C1.61458 2.29948 1.51042 2.36979 1.39062 2.42188C1.27083 2.47396 1.14062 2.5 1 2.5C0.859375 2.5 0.726562 2.47396 0.601562 2.42188C0.481771 2.36979 0.377604 2.29948 0.289062 2.21094C0.200521 2.1224 0.130208 2.01823 0.078125 1.89844C0.0260417 1.77344 0 1.64062 0 1.5ZM4.5 2C4.36458 2 4.2474 1.95052 4.14844 1.85156C4.04948 1.7526 4 1.63542 4 1.5C4 1.36458 4.04948 1.2474 4.14844 1.14844C4.2474 1.04948 4.36458 1 4.5 1H15.5C15.6354 1 15.7526 1.04948 15.8516 1.14844C15.9505 1.2474 16 1.36458 16 1.5C16 1.63542 15.9505 1.7526 15.8516 1.85156C15.7526 1.95052 15.6354 2 15.5 2H4.5ZM0 5.5C0 5.35938 0.0260417 5.22917 0.078125 5.10938C0.130208 4.98958 0.200521 4.88542 0.289062 4.79688C0.382812 4.70312 0.489583 4.63021 0.609375 4.57812C0.729167 4.52604 0.859375 4.5 1 4.5C1.13542 4.5 1.26302 4.52604 1.38281 4.57812C1.50781 4.63021 1.61458 4.70312 1.70312 4.79688C1.79688 4.88542 1.86979 4.99219 1.92188 5.11719C1.97396 5.23698 2 5.36458 2 5.5C2 5.64062 1.97396 5.77083 1.92188 5.89062C1.86979 6.01042 1.79688 6.11719 1.70312 6.21094C1.61458 6.29948 1.51042 6.36979 1.39062 6.42188C1.27083 6.47396 1.14062 6.5 1 6.5C0.859375 6.5 0.726562 6.47396 0.601562 6.42188C0.481771 6.36979 0.377604 6.29948 0.289062 6.21094C0.200521 6.1224 0.130208 6.01823 0.078125 5.89844C0.0260417 5.77344 0 5.64062 0 5.5ZM4.5 6C4.36458 6 4.2474 5.95052 4.14844 5.85156C4.04948 5.7526 4 5.63542 4 5.5C4 5.36458 4.04948 5.2474 4.14844 5.14844C4.2474 5.04948 4.36458 5 4.5 5H15.5C15.6354 5 15.7526 5.04948 15.8516 5.14844C15.9505 5.2474 16 5.36458 16 5.5C16 5.63542 15.9505 5.7526 15.8516 5.85156C15.7526 5.95052 15.6354 6 15.5 6H4.5ZM0 9.5C0 9.35938 0.0260417 9.22917 0.078125 9.10938C0.130208 8.98958 0.200521 8.88542 0.289062 8.79688C0.382812 8.70312 0.489583 8.63021 0.609375 8.57812C0.729167 8.52604 0.859375 8.5 1 8.5C1.13542 8.5 1.26302 8.52604 1.38281 8.57812C1.50781 8.63021 1.61458 8.70312 1.70312 8.79688C1.79688 8.88542 1.86979 8.99219 1.92188 9.11719C1.97396 9.23698 2 9.36458 2 9.5C2 9.64062 1.97396 9.77083 1.92188 9.89062C1.86979 10.0104 1.79688 10.1172 1.70312 10.2109C1.61458 10.2995 1.51042 10.3698 1.39062 10.4219C1.27083 10.474 1.14062 10.5 1 10.5C0.859375 10.5 0.726562 10.474 0.601562 10.4219C0.481771 10.3698 0.377604 10.2995 0.289062 10.2109C0.200521 10.1224 0.130208 10.0182 0.078125 9.89844C0.0260417 9.77344 0 9.64062 0 9.5ZM4.5 10C4.36458 10 4.2474 9.95052 4.14844 9.85156C4.04948 9.7526 4 9.63542 4 9.5C4 9.36458 4.04948 9.2474 4.14844 9.14844C4.2474 9.04948 4.36458 9 4.5 9H15.5C15.6354 9 15.7526 9.04948 15.8516 9.14844C15.9505 9.2474 16 9.36458 16 9.5C16 9.63542 15.9505 9.7526 15.8516 9.85156C15.7526 9.95052 15.6354 10 15.5 10H4.5Z" fill="#60CDFF" fill-opacity="0.8"/>
<path d="M4.5 2C4.36458 2 4.2474 1.95052 4.14844 1.85156C4.04948 1.7526 4 1.63542 4 1.5C4 1.36458 4.04948 1.2474 4.14844 1.14844C4.2474 1.04948 4.36458 1 4.5 1H15.5C15.6354 1 15.7526 1.04948 15.8516 1.14844C15.9505 1.2474 16 1.36458 16 1.5C16 1.63542 15.9505 1.7526 15.8516 1.85156C15.7526 1.95052 15.6354 2 15.5 2H4.5ZM4.5 6C4.36458 6 4.2474 5.95052 4.14844 5.85156C4.04948 5.7526 4 5.63542 4 5.5C4 5.36458 4.04948 5.2474 4.14844 5.14844C4.2474 5.04948 4.36458 5 4.5 5H15.5C15.6354 5 15.7526 5.04948 15.8516 5.14844C15.9505 5.2474 16 5.36458 16 5.5C16 5.63542 15.9505 5.7526 15.8516 5.85156C15.7526 5.95052 15.6354 6 15.5 6H4.5ZM4.5 10C4.36458 10 4.2474 9.95052 4.14844 9.85156C4.04948 9.7526 4 9.63542 4 9.5C4 9.36458 4.04948 9.2474 4.14844 9.14844C4.2474 9.04948 4.36458 9 4.5 9H15.5C15.6354 9 15.7526 9.04948 15.8516 9.14844C15.9505 9.2474 16 9.36458 16 9.5C16 9.63542 15.9505 9.7526 15.8516 9.85156C15.7526 9.95052 15.6354 10 15.5 10H4.5Z" fill="white"/>
</svg>
