<svg viewBox="0 0 16 16" fill="none" xmlns="http://www.w3.org/2000/svg">
<path d="M4.5 1C4.36458 1 4.2474 0.950521 4.14844 0.851562C4.04948 0.752604 4 0.635417 4 0.5C4 0.364583 4.04948 0.247396 4.14844 0.148438C4.2474 0.0494792 4.36458 0 4.5 0H12.5C12.6354 0 12.7526 0.0494792 12.8516 0.148438C12.9505 0.247396 13 0.364583 13 0.5C13 0.635417 12.9505 0.752604 12.8516 0.851562C12.7526 0.950521 12.6354 1 12.5 1H4.5ZM0 5.5C0 5.36458 0.0494792 5.2474 0.148438 5.14844L1.5625 3.73438C1.66146 3.63542 1.77865 3.58594 1.91406 3.58594C2.04948 3.58594 2.16667 3.63542 2.26562 3.73438C2.36458 3.83333 2.41406 3.95052 2.41406 4.08594C2.41406 4.22135 2.36458 4.33854 2.26562 4.4375L1.21094 5.5L2.26562 6.5625C2.36458 6.66146 2.41406 6.77865 2.41406 6.91406C2.41406 7.04948 2.36458 7.16667 2.26562 7.26562C2.16667 7.36458 2.04948 7.41406 1.91406 7.41406C1.77865 7.41406 1.66146 7.36458 1.5625 7.26562L0.148438 5.85156C0.0494792 5.7526 0 5.63542 0 5.5ZM4.5 6C4.36458 6 4.2474 5.95052 4.14844 5.85156C4.04948 5.7526 4 5.63542 4 5.5C4 5.36458 4.04948 5.2474 4.14844 5.14844C4.2474 5.04948 4.36458 5 4.5 5H15.5C15.6354 5 15.7526 5.04948 15.8516 5.14844C15.9505 5.2474 16 5.36458 16 5.5C16 5.63542 15.9505 5.7526 15.8516 5.85156C15.7526 5.95052 15.6354 6 15.5 6H4.5ZM4.5 11C4.36458 11 4.2474 10.9505 4.14844 10.8516C4.04948 10.7526 4 10.6354 4 10.5C4 10.3646 4.04948 10.2474 4.14844 10.1484C4.2474 10.0495 4.36458 10 4.5 10H10.5C10.6354 10 10.7526 10.0495 10.8516 10.1484C10.9505 10.2474 11 10.3646 11 10.5C11 10.6354 10.9505 10.7526 10.8516 10.8516C10.7526 10.9505 10.6354 11 10.5 11H4.5Z" fill="#60CDFF" fill-opacity="0.8"/>
<path d="M4.5 1C4.36458 1 4.2474 0.950521 4.14844 0.851562C4.04948 0.752604 4 0.635417 4 0.5C4 0.364583 4.04948 0.247396 4.14844 0.148438C4.2474 0.0494792 4.36458 0 4.5 0H12.5C12.6354 0 12.7526 0.0494792 12.8516 0.148438C12.9505 0.247396 13 0.364583 13 0.5C13 0.635417 12.9505 0.752604 12.8516 0.851562C12.7526 0.950521 12.6354 1 12.5 1H4.5ZM4.5 6C4.36458 6 4.2474 5.95052 4.14844 5.85156C4.04948 5.7526 4 5.63542 4 5.5C4 5.36458 4.04948 5.2474 4.14844 5.14844C4.2474 5.04948 4.36458 5 4.5 5H15.5C15.6354 5 15.7526 5.04948 15.8516 5.14844C15.9505 5.2474 16 5.36458 16 5.5C16 5.63542 15.9505 5.7526 15.8516 5.85156C15.7526 5.95052 15.6354 6 15.5 6H4.5ZM4.5 11C4.36458 11 4.2474 10.9505 4.14844 10.8516C4.04948 10.7526 4 10.6354 4 10.5C4 10.3646 4.04948 10.2474 4.14844 10.1484C4.2474 10.0495 4.36458 10 4.5 10H10.5C10.6354 10 10.7526 10.0495 10.8516 10.1484C10.9505 10.2474 11 10.3646 11 10.5C11 10.6354 10.9505 10.7526 10.8516 10.8516C10.7526 10.9505 10.6354 11 10.5 11H4.5Z" fill="white"/>
</svg>
