<svg viewBox="0 0 24 24" fill="none" xmlns="http://www.w3.org/2000/svg">
<g clip-path="url(#clip0_1_92)">
<path fill-rule="evenodd" clip-rule="evenodd" d="M1.26238e-05 2.99998C1.26238e-05 1.34313 1.34316 -1.77261e-05 3.00001 -1.77261e-05H5.00001C5.55229 -1.77261e-05 6.00002 -0.052284 6.00002 0.5C6.00002 1.05228 5.5523 1 5.00002 1H3.00002C1.50002 1 1.00002 2.44772 1.00002 3V5C1.00002 5.55228 1.0523 6 0.500015 6C-0.0522687 6 1.26238e-05 5.55226 1.26238e-05 4.99998V2.99998ZM10 0.5C10 -0.052284 10.4477 -1.77261e-05 11 -1.77261e-05H13C13.5523 -1.77261e-05 14 -0.052284 14 0.5C14 1.05228 13.5523 0.999982 13 0.999982H11C10.4477 0.999982 10 1.05228 10 0.5ZM18 0.5C18 -0.052284 18.4477 -1.77261e-05 19 -1.77261e-05H21C22.6568 -1.77261e-05 24 1.34313 24 2.99998V4.99998C24 5.55226 24.0522 6 23.5 6C22.9478 6 23 5.55228 23 5V3C23 1.5 21.5522 1 21 1L19 0.999982C18.4477 0.999982 18 1.05228 18 0.5ZM0.500015 9.99998C1.0523 9.99998 1.00001 10.4477 1.00001 11V13C1.00001 13.5523 1.0523 14 0.500015 14C-0.0522689 14 1.26238e-05 13.5523 1.26238e-05 13V11C1.26238e-05 10.4477 -0.0522689 9.99998 0.500015 9.99998ZM23.5 9.99998C24.0522 9.99998 24 10.4477 24 11V13C24 13.5523 24.0522 14 23.5 14C22.9478 14 23 13.5523 23 13V11C23 10.4477 22.9478 9.99998 23.5 9.99998ZM0.500015 18C1.0523 18 1.00002 18.4477 1.00002 19L1.00001 21C1.00002 22.5 2.44774 23 3.00002 23H5.00002C5.5523 23 6.00002 22.9478 6.00002 23.5C6.00002 24.0522 5.55229 24 5.00001 24H3.00001C1.34316 24 1.26238e-05 22.6568 1.26238e-05 21V19C1.26238e-05 18.4477 -0.0522689 18 0.500015 18ZM23.5 18C24.0522 18 24 18.4477 24 19V21C24 22.6568 22.6568 24 21 24H19C18.4477 24 18 24.0522 18 23.5C18 22.9478 18.4477 23 19 23H21C21.5 23 23 22.5 23 21V19C23 18.4477 22.9478 18 23.5 18ZM10 23.5C10 22.9478 10.4477 23 11 23H13C13.5523 23 14 22.9478 14 23.5C14 24.0522 13.5523 24 13 24H11C10.4477 24 10 24.0522 10 23.5Z" fill="white"/>
<path fill-rule="evenodd" clip-rule="evenodd" d="M5.1 9.5C5.1 6.81751 6.8222 5.1 9.50469 5.1C12.0784 5.1 13.7334 6.64937 13.9 9.18089H15C14.8325 6.29145 12.4362 4 9.50469 4C6.46454 4 4 6.46454 4 9.50469C4 12.4362 6.29145 14.8325 9.18089 15V13.9C6.64937 13.7334 5.1 12.0737 5.1 9.5Z" fill="#80FF60" fill-opacity="0.8"/>
<path fill-rule="evenodd" clip-rule="evenodd" d="M10 11.6666C10 10.7462 10.7462 10 11.6667 10H18.3333C19.2538 10 20 10.7462 20 11.6666V18.3334C20 19.2538 19.2538 20 18.3333 20H11.6667C10.7462 20 10 19.2538 10 18.3334V11.6666ZM11.6667 11.1111C11.1144 11.1111 11.1111 11.1144 11.1111 11.6667V18.3333C11.1111 18.8856 11.1144 18.8889 11.6667 18.8889H18.3333C18.8856 18.8889 18.8889 18.8856 18.8889 18.3333V11.6667C18.8889 11.1144 18.8856 11.1111 18.3333 11.1111H11.6667Z" fill="#60CDFF" fill-opacity="0.8"/>
</g>
<defs>
<clipPath id="clip0_1_92">
<rect width="24" height="24" fill="white"/>
</clipPath>
</defs>
</svg>
