<svg viewBox="0 0 16 16" fill="none" xmlns="http://www.w3.org/2000/svg">
<path d="M0 11.8203V4.17969C0 4.03385 0.0234375 3.88802 0.0703125 3.74219C0.117188 3.59635 0.182292 3.46354 0.265625 3.34375C0.348958 3.21875 0.447917 3.10938 0.5625 3.01562C0.677083 2.91667 0.804688 2.83854 0.945312 2.78125L6.70312 0.484375C7.125 0.317708 7.55729 0.234375 8 0.234375C8.44271 0.234375 8.875 0.317708 9.29688 0.484375L15.0547 2.78125C15.1953 2.83854 15.3229 2.91667 15.4375 3.01562C15.5521 3.10938 15.651 3.21875 15.7344 3.34375C15.8177 3.46354 15.8828 3.59635 15.9297 3.74219C15.9766 3.88802 16 4.03385 16 4.17969V11.8203C16 11.9714 15.9766 12.1198 15.9297 12.2656C15.8828 12.4062 15.8177 12.5391 15.7344 12.6641C15.651 12.7839 15.5521 12.8932 15.4375 12.9922C15.3229 13.0911 15.1953 13.1667 15.0547 13.2188L9.29688 15.5156C8.875 15.6823 8.44271 15.7656 8 15.7656C7.55729 15.7656 7.125 15.6823 6.70312 15.5156L0.945312 13.2188C0.804688 13.1667 0.677083 13.0911 0.5625 12.9922C0.447917 12.8932 0.348958 12.7839 0.265625 12.6641C0.182292 12.5391 0.117188 12.4062 0.0703125 12.2656C0.0234375 12.1198 0 11.9714 0 11.8203ZM8 14.7656C8.32812 14.7656 8.63802 14.7083 8.92969 14.5938L14.6875 12.2891C14.7812 12.2474 14.8568 12.1849 14.9141 12.1016C14.9714 12.0182 15 11.9245 15 11.8203V4.17969C15 4.07552 14.9714 3.98177 14.9141 3.89844C14.8568 3.8151 14.7812 3.7526 14.6875 3.71094L8.92969 1.40625C8.6276 1.28646 8.31771 1.22656 8 1.22656C7.68229 1.22656 7.3724 1.28646 7.07031 1.40625L1.3125 3.71094C1.21875 3.7526 1.14323 3.8151 1.08594 3.89844C1.02865 3.98177 1 4.07552 1 4.17969V11.8203C1 11.9245 1.02865 12.0182 1.08594 12.1016C1.14323 12.1849 1.21875 12.2474 1.3125 12.2891L7.07031 14.5938C7.36198 14.7083 7.67188 14.7656 8 14.7656ZM7.5 6.82812L3.29688 4.95312C3.20833 4.91146 3.13542 4.85156 3.07812 4.77344C3.02604 4.69531 3 4.60417 3 4.5C3 4.36458 3.04688 4.2474 3.14062 4.14844C3.23958 4.04948 3.35677 4 3.49219 4C3.5599 4 3.63021 4.01562 3.70312 4.04688L8 5.95312L12.2969 4.04688C12.3594 4.01562 12.4271 4 12.5 4C12.6354 4 12.7526 4.04948 12.8516 4.14844C12.9505 4.2474 13 4.36458 13 4.5C13 4.60417 12.9714 4.69531 12.9141 4.77344C12.862 4.85156 12.7917 4.91146 12.7031 4.95312L8.5 6.82812V11.5C8.5 11.6354 8.45052 11.7526 8.35156 11.8516C8.2526 11.9505 8.13542 12 8 12C7.86458 12 7.7474 11.9505 7.64844 11.8516C7.54948 11.7526 7.5 11.6354 7.5 11.5V6.82812Z" fill="white"/>
<path d="M0 11.8203V4.17969C0 4.03385 0.0234375 3.88802 0.0703125 3.74219C0.117188 3.59635 0.182292 3.46354 0.265625 3.34375C0.348958 3.21875 0.447917 3.10938 0.5625 3.01562C0.677083 2.91667 0.804688 2.83854 0.945312 2.78125L6.70312 0.484375C7.125 0.317708 7.55729 0.234375 8 0.234375C8.44271 0.234375 8.875 0.317708 9.29688 0.484375L15.0547 2.78125C15.1953 2.83854 15.3229 2.91667 15.4375 3.01562C15.5521 3.10938 15.651 3.21875 15.7344 3.34375C15.8177 3.46354 15.8828 3.59635 15.9297 3.74219C15.9766 3.88802 16 4.03385 16 4.17969V11.8203C16 11.9714 15.9766 12.1198 15.9297 12.2656C15.8828 12.4062 15.8177 12.5391 15.7344 12.6641C15.651 12.7839 15.5521 12.8932 15.4375 12.9922C15.3229 13.0911 15.1953 13.1667 15.0547 13.2188L9.29688 15.5156C8.875 15.6823 8.44271 15.7656 8 15.7656C7.55729 15.7656 7.125 15.6823 6.70312 15.5156L0.945312 13.2188C0.804688 13.1667 0.677083 13.0911 0.5625 12.9922C0.447917 12.8932 0.348958 12.7839 0.265625 12.6641C0.182292 12.5391 0.117188 12.4062 0.0703125 12.2656C0.0234375 12.1198 0 11.9714 0 11.8203ZM8 14.7656C8.32812 14.7656 8.63802 14.7083 8.92969 14.5938L14.6875 12.2891C14.7812 12.2474 14.8568 12.1849 14.9141 12.1016C14.9714 12.0182 15 11.9245 15 11.8203V4.17969C15 4.07552 14.9714 3.98177 14.9141 3.89844C14.8568 3.8151 14.7812 3.7526 14.6875 3.71094L8.92969 1.40625C8.6276 1.28646 8.31771 1.22656 8 1.22656C7.68229 1.22656 7.3724 1.28646 7.07031 1.40625L1.3125 3.71094C1.21875 3.7526 1.14323 3.8151 1.08594 3.89844C1.02865 3.98177 1 4.07552 1 4.17969V11.8203C1 11.9245 1.02865 12.0182 1.08594 12.1016C1.14323 12.1849 1.21875 12.2474 1.3125 12.2891L7.07031 14.5938C7.36198 14.7083 7.67188 14.7656 8 14.7656ZM7.5 6.82812L3.29688 4.95312C3.20833 4.91146 3.13542 4.85156 3.07812 4.77344C3.02604 4.69531 3 4.60417 3 4.5C3 4.36458 3.04688 4.2474 3.14062 4.14844C3.23958 4.04948 3.35677 4 3.49219 4C3.5599 4 3.63021 4.01562 3.70312 4.04688L8 5.95312L12.2969 4.04688C12.3594 4.01562 12.4271 4 12.5 4C12.6354 4 12.7526 4.04948 12.8516 4.14844C12.9505 4.2474 13 4.36458 13 4.5C13 4.60417 12.9714 4.69531 12.9141 4.77344C12.862 4.85156 12.7917 4.91146 12.7031 4.95312L8.5 6.82812V11.5C8.5 11.6354 8.45052 11.7526 8.35156 11.8516C8.2526 11.9505 8.13542 12 8 12C7.86458 12 7.7474 11.9505 7.64844 11.8516C7.54948 11.7526 7.5 11.6354 7.5 11.5V6.82812Z" fill="#80FF60" fill-opacity="0.8"/>
<path d="M0 11.8203V4.17969C0 4.03385 0.0234375 3.88802 0.0703125 3.74219C0.117188 3.59635 0.182292 3.46354 0.265625 3.34375C0.348958 3.21875 0.447917 3.10938 0.5625 3.01562C0.677083 2.91667 0.804688 2.83854 0.945312 2.78125L6.70312 0.484375C7.125 0.317708 7.55729 0.234375 8 0.234375C8.44271 0.234375 8.875 0.317708 9.29688 0.484375L15.0547 2.78125C15.1953 2.83854 15.3229 2.91667 15.4375 3.01562C15.5521 3.10938 15.651 3.21875 15.7344 3.34375C15.8177 3.46354 15.8828 3.59635 15.9297 3.74219C15.9766 3.88802 16 4.03385 16 4.17969V11.8203C16 11.9714 15.9766 12.1198 15.9297 12.2656C15.8828 12.4062 15.8177 12.5391 15.7344 12.6641C15.651 12.7839 15.5521 12.8932 15.4375 12.9922C15.3229 13.0911 15.1953 13.1667 15.0547 13.2188L9.29688 15.5156C8.875 15.6823 8.44271 15.7656 8 15.7656C7.55729 15.7656 7.125 15.6823 6.70312 15.5156L0.945312 13.2188C0.804688 13.1667 0.677083 13.0911 0.5625 12.9922C0.447917 12.8932 0.348958 12.7839 0.265625 12.6641C0.182292 12.5391 0.117188 12.4062 0.0703125 12.2656C0.0234375 12.1198 0 11.9714 0 11.8203ZM8 14.7656C8.32812 14.7656 8.63802 14.7083 8.92969 14.5938L14.6875 12.2891C14.7812 12.2474 14.8568 12.1849 14.9141 12.1016C14.9714 12.0182 15 11.9245 15 11.8203V4.17969C15 4.07552 14.9714 3.98177 14.9141 3.89844C14.8568 3.8151 14.7812 3.7526 14.6875 3.71094L8.92969 1.40625C8.6276 1.28646 8.31771 1.22656 8 1.22656C7.68229 1.22656 7.3724 1.28646 7.07031 1.40625L1.3125 3.71094C1.21875 3.7526 1.14323 3.8151 1.08594 3.89844C1.02865 3.98177 1 4.07552 1 4.17969V11.8203C1 11.9245 1.02865 12.0182 1.08594 12.1016C1.14323 12.1849 1.21875 12.2474 1.3125 12.2891L7.07031 14.5938C7.36198 14.7083 7.67188 14.7656 8 14.7656Z" fill="white"/>
</svg>
