<svg viewBox="0 0 24 24" fill="none" xmlns="http://www.w3.org/2000/svg">
<path fill-rule="evenodd" clip-rule="evenodd" d="M15.6561 3.07148C12.404 1.36049 9.16176 1.53671 6.40463 3.26675C5.03601 4.12553 3.46909 6.01644 2.58086 7.97798C2.13789 8.95622 1.87159 9.93536 1.87503 10.7974C1.87847 11.6577 2.14919 12.3829 2.75873 12.8917C3.46985 13.4854 3.97006 13.6813 4.35635 13.7009C4.7411 13.7204 5.0644 13.5686 5.44136 13.3408C5.52453 13.2906 5.60297 13.2418 5.68298 13.192C5.69304 13.1857 5.70317 13.1794 5.71334 13.1731C6.00256 12.993 6.33555 12.7856 6.75553 12.6493C7.29604 12.4738 7.93702 12.4353 8.76243 12.6936C9.16411 12.8193 9.46278 13.0295 9.68095 13.3056C9.8963 13.578 10.0256 13.9048 10.1087 14.2556C10.1918 14.6063 10.2313 14.9931 10.2589 15.3915C10.2693 15.5414 10.2789 15.7109 10.2885 15.8809L10.2887 15.8847C10.303 16.1382 10.3176 16.3962 10.3362 16.6312C10.4035 17.4766 10.5397 18.3197 10.9581 19.0577C11.3713 19.7866 12.0698 20.4301 13.3001 20.8609C15.0012 21.4565 16.5587 20.9937 17.8309 19.9621C19.1092 18.9256 20.0836 17.323 20.5728 15.6948C22.1455 10.46 20.3218 5.52611 15.6561 3.07148ZM5.89386 14.0897C5.48998 14.3338 4.97365 14.6083 4.31208 14.5747C3.65553 14.5415 2.97728 14.214 2.19801 13.5635C1.34161 12.8486 1.00423 11.8485 1.00004 10.8009C0.995917 9.76988 1.31044 8.66234 1.78377 7.61704C2.72535 5.53771 4.39299 3.49601 5.93956 2.52558C8.97034 0.623832 12.5455 0.44624 16.0635 2.29711C21.1408 4.96832 23.0901 10.357 21.4108 15.9466C20.8807 17.7109 19.8206 19.4752 18.382 20.6418C16.9267 21.8219 15.0572 22.4032 13.0109 21.6867C11.6031 21.1938 10.7257 20.4219 10.1969 19.4892C9.68107 18.5793 9.53375 17.5779 9.46399 16.7005C9.44437 16.4537 9.42924 16.1854 9.41506 15.934C9.40531 15.7612 9.39601 15.5963 9.38602 15.4519C9.35918 15.0643 9.32327 14.7359 9.25728 14.4573C9.19182 14.181 9.10407 13.9868 8.9945 13.8481C8.89168 13.7181 8.74481 13.6049 8.50111 13.5287C7.84009 13.3218 7.38507 13.3649 7.02566 13.4815C6.70837 13.5845 6.45456 13.7424 6.14526 13.9349C6.06584 13.9843 5.98261 14.0361 5.89386 14.0897Z" fill="white"/>
<path d="M11.9375 5.59375C11.9375 6.19781 11.4478 6.6875 10.8438 6.6875C10.2397 6.6875 9.75 6.19781 9.75 5.59375C9.75 4.98969 10.2397 4.5 10.8438 4.5C11.4478 4.5 11.9375 4.98969 11.9375 5.59375Z" fill="#FF6060" fill-opacity="0.8"/>
<path d="M16.3125 7.34375C16.3125 7.94781 15.8228 8.4375 15.2188 8.4375C14.6147 8.4375 14.125 7.94781 14.125 7.34375C14.125 6.73969 14.6147 6.25 15.2188 6.25C15.8228 6.25 16.3125 6.73969 16.3125 7.34375Z" fill="#6DFF60" fill-opacity="0.8"/>
<path d="M18.9375 10.8438C18.9375 11.4478 18.4478 11.9375 17.8438 11.9375C17.2397 11.9375 16.75 11.4478 16.75 10.8438C16.75 10.2397 17.2397 9.75 17.8438 9.75C18.4478 9.75 18.9375 10.2397 18.9375 10.8438Z" fill="#FCFF60" fill-opacity="0.8"/>
<path d="M18.1875 15.0938C18.1875 15.6978 17.6978 16.1875 17.0938 16.1875C16.4897 16.1875 16 15.6978 16 15.0938C16 14.4897 16.4897 14 17.0938 14C17.6978 14 18.1875 14.4897 18.1875 15.0938Z" fill="#60CDFF" fill-opacity="0.8"/>
</svg>
