<svg viewBox="0 0 16 16" fill="none" xmlns="http://www.w3.org/2000/svg">
<path d="M12 2H15.4691C15.7623 2 16 2.23767 16 2.53086C16 2.78996 15.79 3 15.5309 3H15V12C15 12.086 15 12.1823 15 12V12.4906C15 12.7719 14.7719 13 14.4906 13C14.2196 13 14 12.7804 14 12.5094V3H13V12.5C13 12.7761 12.7761 13 12.5 13C12.2239 13 12 12.7761 12 12.5V8.99997H11.75C10.7734 8.99997 9.9401 8.70963 9.25 8.01953C8.5599 7.32942 8 6.53127 8 5.55471C8 4.56513 8.5599 3.6901 9.25 3C9.9401 2.30989 11.0234 2 12 2ZM11.5 3C10.875 3 10.3894 3.34896 9.93364 3.80468C9.49093 4.24739 9 4.91669 9 5.55471C9 6.17971 9.49093 6.84392 9.93364 7.29965C10.3894 7.74236 11.125 8.02355 11.75 8.02355H12V3H11.5ZM15.5 0C15.7761 -1.48545e-06 16 0.223855 16 0.499997C16 0.77614 15.7762 0.999997 15.5 0.999997C15.293 0.999997 15.0821 0.999997 15 0.999997H0.445312C0.199373 0.999997 0 0.800578 0 0.554639C0 0.535157 0 0.516783 0 0.499997C0 0.223856 0.223858 -9.95826e-07 0.5 1.09361e-06L15.5 0ZM0 4.5C0 4.22386 0.223858 4 0.5 4H8C8 4 7.66366 4.49997 7.66366 4.99997L0.5 5C0.223858 5 0 4.77614 0 4.5ZM8.5 8C8.5 8 9.5 9 10 8.99997H1C0.917927 8.99997 0.707053 8.99997 0.499993 8.99998C0.223849 8.99999 0 8.77613 0 8.49999C0 8.22385 0.223854 8 0.499991 8H8.5Z" fill="#60CDFF" fill-opacity="0.8"/>
<path d="M15.5 0C15.7761 -1.48545e-06 16 0.223855 16 0.499997C16 0.77614 15.7762 0.999997 15.5 0.999997C15.293 0.999997 15.0821 0.999997 15 0.999997H0.445312C0.199373 0.999997 0 0.800578 0 0.554639C0 0.535157 0 0.516783 0 0.499997C0 0.223856 0.223858 -9.95826e-07 0.5 1.09361e-06L15.5 0ZM0 4.5C0 4.22386 0.223858 4 0.5 4H8C8 4 7.66366 4.49997 7.66366 4.99997L0.5 5C0.223858 5 0 4.77614 0 4.5ZM8.5 8C8.5 8 9.5 9 10 8.99997H1C0.917927 8.99997 0.707053 8.99997 0.499993 8.99998C0.223849 8.99999 0 8.77613 0 8.49999C0 8.22385 0.223854 8 0.499991 8H8.5Z" fill="white"/>
</svg>
