<svg viewBox="0 0 20 20" fill="none" xmlns="http://www.w3.org/2000/svg">
<g clip-path="url(#clip0)">
<path fill-rule="evenodd" clip-rule="evenodd" d="M2.9196 4.99984C2.36706 4.99984 1.83714 5.21934 1.44644 5.61004C1.05574 6.00074 0.836263 6.53063 0.836263 7.08317V13.3332C0.836263 13.5542 0.924059 13.7662 1.08033 13.9224C1.23661 14.0787 1.44857 14.1665 1.6696 14.1665H4.58626V14.9998H1.6696C1.22758 14.9998 0.803645 14.8243 0.491078 14.5117C0.178511 14.1991 0.00292969 13.7752 0.00292969 13.3332V7.08317C0.00292969 6.30963 0.310203 5.56777 0.857187 5.02079C1.40417 4.47381 2.14605 4.1665 2.9196 4.1665H17.0863C17.8598 4.1665 18.6017 4.47381 19.1487 5.02079C19.6957 5.56777 20.0029 6.30963 20.0029 7.08317V13.3332C20.0029 13.7752 19.8273 14.1991 19.5148 14.5117C19.2022 14.8243 18.7783 14.9998 18.3363 14.9998H15.4196V14.1665H18.3363C18.5573 14.1665 18.7693 14.0787 18.9255 13.9224C19.0818 13.7662 19.1696 13.5542 19.1696 13.3332V7.08317C19.1696 6.53063 18.9501 6.00074 18.5594 5.61004C18.1687 5.21934 17.6388 4.99984 17.0863 4.99984H2.9196Z" fill="white"/>
<path fill-rule="evenodd" clip-rule="evenodd" d="M5.83659 1.66659C5.61557 1.66659 5.4036 1.75438 5.24733 1.91066C5.09105 2.06693 5.00326 2.2789 5.00326 2.49992V4.16659H15.0872V2.49992C15.0872 2.2789 14.9994 2.06693 14.8431 1.91066C14.6868 1.75438 14.4749 1.66659 14.2538 1.66659H5.83659ZM4.65807 1.3214C4.97064 1.00883 5.39457 0.833252 5.83659 0.833252H14.2538C14.6959 0.833252 15.1198 1.00883 15.4324 1.3214C15.7449 1.63397 15.9205 2.0579 15.9205 2.49992V4.99992H4.16992V2.49992C4.16992 2.0579 4.3455 1.63397 4.65807 1.3214Z" fill="white"/>
<path fill-rule="evenodd" clip-rule="evenodd" d="M5.83659 10.8333C5.37635 10.8333 5.00326 11.2064 5.00326 11.6667V17.5C5.00326 17.9602 5.37635 18.3333 5.83659 18.3333H14.1699C14.6302 18.3333 15.0033 17.9602 15.0033 17.5V11.6667C15.0033 11.2064 14.6302 10.8333 14.1699 10.8333H5.83659ZM4.16992 11.6667C4.16992 10.7462 4.91611 10 5.83659 10H14.1699C15.0904 10 15.8366 10.7462 15.8366 11.6667V17.5C15.8366 18.4205 15.0904 19.1667 14.1699 19.1667H5.83659C4.91611 19.1667 4.16992 18.4205 4.16992 17.5V11.6667Z" fill="white"/>
</g>
<defs>
<clipPath id="clip0">
<rect width="20" height="20" fill="white"/>
</clipPath>
</defs>
</svg>
