<svg width="16" height="16" viewBox="0 0 16 16" fill="none" xmlns="http://www.w3.org/2000/svg">
<path d="M6 3C5.30729 3 4.65625 3.13021 4.04688 3.39062C3.44271 3.65104 2.91406 4.00781 2.46094 4.46094C2.00781 4.91406 1.65104 5.44531 1.39062 6.05469C1.13021 6.65885 1 7.30729 1 8C1 8.42188 1.05469 8.84635 1.16406 9.27344C1.27344 9.69531 1.4349 10.0911 1.64844 10.4609C1.67969 10.5182 1.71875 10.5807 1.76562 10.6484C1.81771 10.7161 1.86719 10.7865 1.91406 10.8594C1.96094 10.9323 2 11.0052 2.03125 11.0781C2.06771 11.151 2.08594 11.2188 2.08594 11.2812C2.08594 11.4167 2.03646 11.5339 1.9375 11.6328C1.83854 11.7318 1.72135 11.7812 1.58594 11.7812C1.4974 11.7812 1.42188 11.763 1.35938 11.7266C1.30208 11.6901 1.24479 11.6406 1.1875 11.5781C0.994792 11.3542 0.822917 11.0964 0.671875 10.8047C0.526042 10.513 0.403646 10.2083 0.304688 9.89062C0.205729 9.57292 0.130208 9.2526 0.078125 8.92969C0.0260417 8.60156 0 8.29167 0 8C0 7.45312 0.0703125 6.92448 0.210938 6.41406C0.356771 5.90365 0.559896 5.42708 0.820312 4.98438C1.08073 4.53646 1.39323 4.13021 1.75781 3.76562C2.1224 3.40104 2.52604 3.08854 2.96875 2.82812C3.41146 2.5625 3.88802 2.35938 4.39844 2.21875C4.91406 2.07292 5.44792 2 6 2H11.2969L10.1484 0.851562C10.0495 0.752604 10 0.635417 10 0.5C10 0.364583 10.0495 0.247396 10.1484 0.148438C10.2474 0.0494792 10.3646 0 10.5 0C10.6354 0 10.7526 0.0494792 10.8516 0.148438L12.8516 2.14844C12.9505 2.2474 13 2.36458 13 2.5C13 2.63542 12.9505 2.7526 12.8516 2.85156L10.8516 4.85156C10.7526 4.95052 10.6354 5 10.5 5C10.3646 5 10.2474 4.95052 10.1484 4.85156C10.0495 4.7526 10 4.63542 10 4.5C10 4.36458 10.0495 4.2474 10.1484 4.14844L11.2969 3H6ZM16 8C16 8.55208 15.9271 9.08333 15.7812 9.59375C15.6406 10.099 15.4401 10.5755 15.1797 11.0234C14.9193 11.4661 14.6068 11.8698 14.2422 12.2344C13.8776 12.599 13.474 12.9141 13.0312 13.1797C12.5885 13.4401 12.1094 13.6432 11.5938 13.7891C11.0833 13.9297 10.5521 14 10 14H4.71094L5.85156 15.1484C5.95052 15.2474 6 15.3646 6 15.5C6 15.6354 5.95052 15.7526 5.85156 15.8516C5.7526 15.9505 5.63542 16 5.5 16C5.36458 16 5.2474 15.9505 5.14844 15.8516L3.14844 13.8516C3.04948 13.7526 3 13.6354 3 13.5C3 13.3646 3.04948 13.2474 3.14844 13.1484L5.14844 11.1484C5.2474 11.0495 5.36458 11 5.5 11C5.63542 11 5.7526 11.0495 5.85156 11.1484C5.95052 11.2474 6 11.3646 6 11.5C6 11.6354 5.95052 11.7526 5.85156 11.8516L4.71094 13H10C10.6927 13 11.3411 12.8698 11.9453 12.6094C12.5547 12.349 13.0859 11.9922 13.5391 11.5391C13.9922 11.0859 14.349 10.5573 14.6094 9.95312C14.8698 9.34375 15 8.69271 15 8C15 7.70312 14.9792 7.42708 14.9375 7.17188C14.8958 6.91667 14.8333 6.66927 14.75 6.42969C14.6667 6.1901 14.5625 5.95573 14.4375 5.72656C14.3177 5.4974 14.1771 5.26042 14.0156 5.01562C13.9792 4.95833 13.9531 4.91146 13.9375 4.875C13.9219 4.83854 13.9141 4.78646 13.9141 4.71875C13.9141 4.58333 13.9609 4.46615 14.0547 4.36719C14.1536 4.26302 14.2734 4.21094 14.4141 4.21094C14.5026 4.21094 14.5755 4.22917 14.6328 4.26562C14.6953 4.30208 14.7552 4.35156 14.8125 4.41406C15.0052 4.63802 15.1745 4.89583 15.3203 5.1875C15.4714 5.47917 15.5964 5.78646 15.6953 6.10938C15.7943 6.42708 15.8698 6.75 15.9219 7.07812C15.974 7.40104 16 7.70833 16 8Z" fill="#60CDFF" fill-opacity="0.8"/>
<path d="M6 3C5.30729 3 4.65625 3.13021 4.04688 3.39062C3.44271 3.65104 2.91406 4.00781 2.46094 4.46094C2.00781 4.91406 1.65104 5.44531 1.39062 6.05469C1.13021 6.65885 1 7.30729 1 8C1 8.42188 1.05469 8.84635 1.16406 9.27344C1.27344 9.69531 1.4349 10.0911 1.64844 10.4609C1.67969 10.5182 1.71875 10.5807 1.76562 10.6484C1.81771 10.7161 1.86719 10.7865 1.91406 10.8594C1.96094 10.9323 2 11.0052 2.03125 11.0781C2.06771 11.151 2.08594 11.2188 2.08594 11.2812C2.08594 11.4167 2.03646 11.5339 1.9375 11.6328C1.83854 11.7318 1.72135 11.7812 1.58594 11.7812C1.4974 11.7812 1.42188 11.763 1.35938 11.7266C1.30208 11.6901 1.24479 11.6406 1.1875 11.5781C0.994792 11.3542 0.822917 11.0964 0.671875 10.8047C0.526042 10.513 0.403646 10.2083 0.304688 9.89062C0.205729 9.57292 0.130208 9.2526 0.078125 8.92969C0.0260417 8.60156 0 8.29167 0 8C0 7.45312 0.0703125 6.92448 0.210938 6.41406C0.356771 5.90365 0.559896 5.42708 0.820312 4.98438C1.08073 4.53646 1.39323 4.13021 1.75781 3.76562C2.1224 3.40104 2.52604 3.08854 2.96875 2.82812C3.41146 2.5625 3.88802 2.35938 4.39844 2.21875C4.91406 2.07292 5.44792 2 6 2H11.2969L10.1484 0.851562C10.0495 0.752604 10 0.635417 10 0.5C10 0.364583 10.0495 0.247396 10.1484 0.148438C10.2474 0.0494792 10.3646 0 10.5 0C10.6354 0 10.7526 0.0494792 10.8516 0.148438L12.8516 2.14844C12.9505 2.2474 13 2.36458 13 2.5C13 2.63542 12.9505 2.7526 12.8516 2.85156L10.8516 4.85156C10.7526 4.95052 10.6354 5 10.5 5C10.3646 5 10.2474 4.95052 10.1484 4.85156C10.0495 4.7526 10 4.63542 10 4.5C10 4.36458 10.0495 4.2474 10.1484 4.14844L11.2969 3H6Z" fill="white"/>
</svg>
