<svg viewBox="0 0 17 17" fill="none" xmlns="http://www.w3.org/2000/svg">
<path d="M0.999992 3.49755V2.95902C0.999992 2.69885 1.05202 2.4517 1.15609 2.21755C1.26536 1.9782 1.40845 1.77007 1.58536 1.59316C1.76747 1.41105 1.9756 1.26796 2.20975 1.16389C2.4491 1.05463 2.69885 0.999992 2.95902 0.999992L3.2556 0.992188C3.34406 0.992188 3.43251 0.997391 3.52097 1.0078C3.60942 1.0182 3.68747 1.04162 3.75511 1.07804C3.82796 1.11446 3.8852 1.1665 3.92682 1.23414C3.97365 1.29658 3.99707 1.38503 3.99707 1.4995C3.99707 1.61918 3.97365 1.71284 3.92682 1.78048C3.8852 1.84292 3.82796 1.88975 3.75511 1.92097C3.68747 1.95219 3.60942 1.973 3.52097 1.98341C3.43251 1.98861 3.34666 1.99121 3.26341 1.99121H3.14633C2.37625 1.99121 1.99121 2.37625 1.99121 3.14633L1.99902 3.49755C1.99902 3.63284 1.94959 3.74991 1.85072 3.84877C1.75186 3.94763 1.63479 3.99707 1.4995 3.99707C1.36422 3.99707 1.24715 3.94763 1.14829 3.84877C1.04942 3.74991 0.999992 3.63284 0.999992 3.49755ZM5.99511 1.99902C5.85983 1.99902 5.74276 1.94959 5.64389 1.85072C5.54503 1.75186 5.4956 1.63479 5.4956 1.4995C5.4956 1.36422 5.54503 1.24715 5.64389 1.14829C5.74276 1.04942 5.85983 0.999992 5.99511 0.999992H7.99316C8.12845 0.999992 8.24552 1.04942 8.34438 1.14829C8.44324 1.24715 8.49268 1.36422 8.49268 1.4995C8.49268 1.63479 8.44324 1.75186 8.34438 1.85072C8.24552 1.94959 8.12845 1.99902 7.99316 1.99902H5.99511ZM10.4907 1.99902C10.3554 1.99902 10.2384 1.94959 10.1395 1.85072C10.0406 1.75186 9.99121 1.63479 9.99121 1.4995C9.99121 1.36422 10.0406 1.24715 10.1395 1.14829C10.2384 1.04942 10.3554 0.999992 10.4907 0.999992H12.4888C12.6241 0.999992 12.7411 1.04942 12.84 1.14829C12.9389 1.24715 12.9883 1.36422 12.9883 1.4995C12.9883 1.63479 12.9389 1.75186 12.84 1.85072C12.7411 1.94959 12.6241 1.99902 12.4888 1.99902H10.4907ZM13.9873 1.4995C13.9873 1.36422 14.0367 1.24715 14.1356 1.14829C14.2345 1.04942 14.3515 0.999992 14.4868 0.999992H15.0254C15.2855 0.999992 15.5327 1.05463 15.7668 1.16389C16.0062 1.26796 16.2143 1.41105 16.3912 1.59316C16.5733 1.77007 16.7164 1.9782 16.8205 2.21755C16.9297 2.4517 16.9844 2.69885 16.9844 2.95902L16.9922 3.2556C16.9922 3.34406 16.987 3.43251 16.9766 3.52097C16.9662 3.60942 16.9428 3.69007 16.9063 3.76292C16.8699 3.83056 16.8179 3.8878 16.7502 3.93463C16.6878 3.97625 16.5993 3.99707 16.4849 3.99707C16.3652 3.99707 16.2715 3.97625 16.2039 3.93463C16.1415 3.8878 16.0946 3.83056 16.0634 3.76292C16.0322 3.69528 16.0114 3.61983 16.001 3.53658C15.9958 3.44812 15.9932 3.35967 15.9932 3.27121V3.14633C15.9932 2.7717 15.8943 2.48552 15.6966 2.2878C15.4989 2.09007 15.2127 1.99121 14.838 1.99121L14.4868 1.99902C14.3515 1.99902 14.2345 1.94959 14.1356 1.85072C14.0367 1.75186 13.9873 1.63479 13.9873 1.4995ZM4.49658 7.99316C4.29365 7.99316 4.10113 7.95414 3.91902 7.87609C3.7369 7.79804 3.5756 7.69137 3.43511 7.55609C3.29983 7.4156 3.19316 7.2543 3.11511 7.07219C3.03707 6.89007 2.99804 6.69755 2.99804 6.49463V4.49658C2.99804 4.29365 3.03707 4.10113 3.11511 3.91902C3.19316 3.7369 3.29983 3.5782 3.43511 3.44292C3.5756 3.30243 3.7369 3.19316 3.91902 3.11511C4.10113 3.03707 4.29365 2.99804 4.49658 2.99804H6.49463C6.69755 2.99804 6.89007 3.03707 7.07219 3.11511C7.2543 3.19316 7.413 3.30243 7.54829 3.44292C7.68877 3.5782 7.79804 3.7369 7.87609 3.91902C7.95414 4.10113 7.99316 4.29365 7.99316 4.49658V6.49463C7.99316 6.69755 7.95414 6.89007 7.87609 7.07219C7.79804 7.2543 7.68877 7.4156 7.54829 7.55609C7.413 7.69137 7.2543 7.79804 7.07219 7.87609C6.89007 7.95414 6.69755 7.99316 6.49463 7.99316H4.49658ZM11.4897 7.99316C11.2868 7.99316 11.0943 7.95414 10.9122 7.87609C10.7301 7.79804 10.5688 7.69137 10.4283 7.55609C10.293 7.4156 10.1863 7.2543 10.1083 7.07219C10.0302 6.89007 9.99121 6.69755 9.99121 6.49463V4.49658C9.99121 4.29365 10.0302 4.10113 10.1083 3.91902C10.1863 3.7369 10.293 3.5782 10.4283 3.44292C10.5688 3.30243 10.7301 3.19316 10.9122 3.11511C11.0943 3.03707 11.2868 2.99804 11.4897 2.99804H13.4878C13.6907 2.99804 13.8832 3.03707 14.0654 3.11511C14.2475 3.19316 14.4062 3.30243 14.5415 3.44292C14.6819 3.5782 14.7912 3.7369 14.8693 3.91902C14.9473 4.10113 14.9863 4.29365 14.9863 4.49658V6.49463C14.9863 6.69755 14.9473 6.89007 14.8693 7.07219C14.7912 7.2543 14.6819 7.4156 14.5415 7.55609C14.4062 7.69137 14.2475 7.79804 14.0654 7.87609C13.8832 7.95414 13.6907 7.99316 13.4878 7.99316H11.4897ZM6.49463 6.99414C6.62991 6.99414 6.74698 6.94471 6.84585 6.84585C6.94471 6.74698 6.99414 6.62991 6.99414 6.49463V4.49658C6.99414 4.36129 6.94471 4.24422 6.84585 4.14536C6.74698 4.0465 6.62991 3.99707 6.49463 3.99707H4.49658C4.36129 3.99707 4.24422 4.0465 4.14536 4.14536C4.0465 4.24422 3.99707 4.36129 3.99707 4.49658V6.49463C3.99707 6.62991 4.0465 6.74698 4.14536 6.84585C4.24422 6.94471 4.36129 6.99414 4.49658 6.99414H6.49463ZM13.4878 6.99414C13.6231 6.99414 13.7402 6.94471 13.839 6.84585C13.9379 6.74698 13.9873 6.62991 13.9873 6.49463V4.49658C13.9873 4.36129 13.9379 4.24422 13.839 4.14536C13.7402 4.0465 13.6231 3.99707 13.4878 3.99707H11.4897C11.3545 3.99707 11.2374 4.0465 11.1385 4.14536C11.0397 4.24422 10.9902 4.36129 10.9902 4.49658V6.49463C10.9902 6.62991 11.0397 6.74698 11.1385 6.84585C11.2374 6.94471 11.3545 6.99414 11.4897 6.99414H13.4878ZM0.999992 7.49365V5.4956C0.999992 5.36032 1.04942 5.24324 1.14829 5.14438C1.24715 5.04552 1.36422 4.99609 1.4995 4.99609C1.63479 4.99609 1.75186 5.04552 1.85072 5.14438C1.94959 5.24324 1.99902 5.36032 1.99902 5.4956V7.49365C1.99902 7.62894 1.94959 7.74601 1.85072 7.84487C1.75186 7.94373 1.63479 7.99316 1.4995 7.99316C1.36422 7.99316 1.24715 7.94373 1.14829 7.84487C1.04942 7.74601 0.999992 7.62894 0.999992 7.49365ZM15.9854 7.49365V5.4956C15.9854 5.36032 16.0348 5.24324 16.1337 5.14438C16.2325 5.04552 16.3496 4.99609 16.4849 4.99609C16.6202 4.99609 16.7372 5.04552 16.8361 5.14438C16.935 5.24324 16.9844 5.36032 16.9844 5.4956V7.49365C16.9844 7.62894 16.935 7.74601 16.8361 7.84487C16.7372 7.94373 16.6202 7.99316 16.4849 7.99316C16.3496 7.99316 16.2325 7.94373 16.1337 7.84487C16.0348 7.74601 15.9854 7.62894 15.9854 7.49365ZM0.999992 11.9893V9.99121C0.999992 9.85593 1.04942 9.73885 1.14829 9.63999C1.24715 9.54113 1.36422 9.4917 1.4995 9.4917C1.63479 9.4917 1.75186 9.54113 1.85072 9.63999C1.94959 9.73885 1.99902 9.85593 1.99902 9.99121V11.9893C1.99902 12.1245 1.94959 12.2416 1.85072 12.3405C1.75186 12.4393 1.63479 12.4888 1.4995 12.4888C1.36422 12.4888 1.24715 12.4393 1.14829 12.3405C1.04942 12.2416 0.999992 12.1245 0.999992 11.9893ZM15.9854 11.9893V9.99121C15.9854 9.85593 16.0348 9.73885 16.1337 9.63999C16.2325 9.54113 16.3496 9.4917 16.4849 9.4917C16.6202 9.4917 16.7372 9.54113 16.8361 9.63999C16.935 9.73885 16.9844 9.85593 16.9844 9.99121V11.9893C16.9844 12.1245 16.935 12.2416 16.8361 12.3405C16.7372 12.4393 16.6202 12.4888 16.4849 12.4888C16.3496 12.4888 16.2325 12.4393 16.1337 12.3405C16.0348 12.2416 15.9854 12.1245 15.9854 11.9893ZM4.49658 14.9863C4.29365 14.9863 4.10113 14.9473 3.91902 14.8693C3.7369 14.7912 3.5756 14.6845 3.43511 14.5493C3.29983 14.4088 3.19316 14.2475 3.11511 14.0654C3.03707 13.8832 2.99804 13.6907 2.99804 13.4878V11.4897C2.99804 11.2868 3.03707 11.0943 3.11511 10.9122C3.19316 10.7301 3.29983 10.5714 3.43511 10.4361C3.5756 10.2956 3.7369 10.1863 3.91902 10.1083C4.10113 10.0302 4.29365 9.99121 4.49658 9.99121H6.49463C6.69755 9.99121 6.89007 10.0302 7.07219 10.1083C7.2543 10.1863 7.413 10.2956 7.54829 10.4361C7.68877 10.5714 7.79804 10.7301 7.87609 10.9122C7.95414 11.0943 7.99316 11.2868 7.99316 11.4897V13.4878C7.99316 13.6907 7.95414 13.8832 7.87609 14.0654C7.79804 14.2475 7.68877 14.4088 7.54829 14.5493C7.413 14.6845 7.2543 14.7912 7.07219 14.8693C6.89007 14.9473 6.69755 14.9863 6.49463 14.9863H4.49658ZM11.4897 14.9863C11.2868 14.9863 11.0943 14.9473 10.9122 14.8693C10.7301 14.7912 10.5688 14.6845 10.4283 14.5493C10.293 14.4088 10.1863 14.2475 10.1083 14.0654C10.0302 13.8832 9.99121 13.6907 9.99121 13.4878V11.4897C9.99121 11.2868 10.0302 11.0943 10.1083 10.9122C10.1863 10.7301 10.293 10.5714 10.4283 10.4361C10.5688 10.2956 10.7301 10.1863 10.9122 10.1083C11.0943 10.0302 11.2868 9.99121 11.4897 9.99121H13.4878C13.6907 9.99121 13.8832 10.0302 14.0654 10.1083C14.2475 10.1863 14.4062 10.2956 14.5415 10.4361C14.6819 10.5714 14.7912 10.7301 14.8693 10.9122C14.9473 11.0943 14.9863 11.2868 14.9863 11.4897V13.4878C14.9863 13.6907 14.9473 13.8832 14.8693 14.0654C14.7912 14.2475 14.6819 14.4088 14.5415 14.5493C14.4062 14.6845 14.2475 14.7912 14.0654 14.8693C13.8832 14.9473 13.6907 14.9863 13.4878 14.9863H11.4897ZM6.49463 13.9873C6.62991 13.9873 6.74698 13.9379 6.84585 13.839C6.94471 13.7402 6.99414 13.6231 6.99414 13.4878V11.4897C6.99414 11.3545 6.94471 11.2374 6.84585 11.1385C6.74698 11.0397 6.62991 10.9902 6.49463 10.9902H4.49658C4.36129 10.9902 4.24422 11.0397 4.14536 11.1385C4.0465 11.2374 3.99707 11.3545 3.99707 11.4897V13.4878C3.99707 13.6231 4.0465 13.7402 4.14536 13.839C4.24422 13.9379 4.36129 13.9873 4.49658 13.9873H6.49463ZM13.4878 13.9873C13.6231 13.9873 13.7402 13.9379 13.839 13.839C13.9379 13.7402 13.9873 13.6231 13.9873 13.4878V11.4897C13.9873 11.3545 13.9379 11.2374 13.839 11.1385C13.7402 11.0397 13.6231 10.9902 13.4878 10.9902H11.4897C11.3545 10.9902 11.2374 11.0397 11.1385 11.1385C11.0397 11.2374 10.9902 11.3545 10.9902 11.4897V13.4878C10.9902 13.6231 11.0397 13.7402 11.1385 13.839C11.2374 13.9379 11.3545 13.9873 11.4897 13.9873H13.4878ZM2.95902 16.9844C2.69885 16.9844 2.4491 16.9324 2.20975 16.8283C1.9756 16.719 1.76747 16.5759 1.58536 16.399C1.40845 16.2169 1.26536 16.0088 1.15609 15.7746C1.05202 15.5353 0.999992 15.2855 0.999992 15.0254L0.992188 14.7288C0.992188 14.6403 0.997391 14.5519 1.0078 14.4634C1.0182 14.375 1.03902 14.2969 1.07024 14.2293C1.10666 14.1564 1.15869 14.0992 1.22633 14.0576C1.29398 14.0107 1.38503 13.9873 1.4995 13.9873C1.61398 13.9873 1.70503 14.0107 1.77268 14.0576C1.84032 14.0992 1.88975 14.1564 1.92097 14.2293C1.95219 14.2969 1.9704 14.375 1.9756 14.4634C1.98601 14.5519 1.99121 14.6377 1.99121 14.721V14.838C1.99121 15.6081 2.37625 15.9932 3.14633 15.9932L3.49755 15.9854C3.63284 15.9854 3.74991 16.0348 3.84877 16.1337C3.94763 16.2325 3.99707 16.3496 3.99707 16.4849C3.99707 16.6202 3.94763 16.7372 3.84877 16.8361C3.74991 16.935 3.63284 16.9844 3.49755 16.9844H2.95902ZM13.9873 16.4849C13.9873 16.3704 14.0081 16.2793 14.0497 16.2117C14.0966 16.1441 14.1538 16.0946 14.2215 16.0634C14.2943 16.0322 14.3724 16.014 14.4556 16.0088C14.5441 15.9984 14.6325 15.9932 14.721 15.9932H14.838C15.6081 15.9932 15.9932 15.6081 15.9932 14.838L15.9854 14.4868C15.9854 14.3515 16.0348 14.2345 16.1337 14.1356C16.2325 14.0367 16.3496 13.9873 16.4849 13.9873C16.6202 13.9873 16.7372 14.0367 16.8361 14.1356C16.935 14.2345 16.9844 14.3515 16.9844 14.4868V15.0254C16.9844 15.2855 16.9297 15.5353 16.8205 15.7746C16.7164 16.0088 16.5733 16.2169 16.3912 16.399C16.2143 16.5759 16.0062 16.719 15.7668 16.8283C15.5327 16.9324 15.2855 16.9844 15.0254 16.9844L14.7288 16.9922C14.6403 16.9922 14.5519 16.987 14.4634 16.9766C14.375 16.9662 14.2943 16.9454 14.2215 16.9141C14.1538 16.8777 14.0966 16.8257 14.0497 16.758C14.0081 16.6904 13.9873 16.5993 13.9873 16.4849ZM5.99511 16.9844C5.85983 16.9844 5.74276 16.935 5.64389 16.8361C5.54503 16.7372 5.4956 16.6202 5.4956 16.4849C5.4956 16.3496 5.54503 16.2325 5.64389 16.1337C5.74276 16.0348 5.85983 15.9854 5.99511 15.9854H7.99316C8.12845 15.9854 8.24552 16.0348 8.34438 16.1337C8.44324 16.2325 8.49268 16.3496 8.49268 16.4849C8.49268 16.6202 8.44324 16.7372 8.34438 16.8361C8.24552 16.935 8.12845 16.9844 7.99316 16.9844H5.99511ZM10.4907 16.9844C10.3554 16.9844 10.2384 16.935 10.1395 16.8361C10.0406 16.7372 9.99121 16.6202 9.99121 16.4849C9.99121 16.3496 10.0406 16.2325 10.1395 16.1337C10.2384 16.0348 10.3554 15.9854 10.4907 15.9854H12.4888C12.6241 15.9854 12.7411 16.0348 12.84 16.1337C12.9389 16.2325 12.9883 16.3496 12.9883 16.4849C12.9883 16.6202 12.9389 16.7372 12.84 16.8361C12.7411 16.935 12.6241 16.9844 12.4888 16.9844H10.4907Z" fill="#60CDFF" fill-opacity="0.8"/>
<path d="M0.999992 3.49755V2.95902C0.999992 2.69885 1.05202 2.4517 1.15609 2.21755C1.26536 1.9782 1.40845 1.77007 1.58536 1.59316C1.76747 1.41105 1.9756 1.26796 2.20975 1.16389C2.4491 1.05463 2.69885 0.999992 2.95902 0.999992L3.2556 0.992188C3.34406 0.992188 3.43251 0.997391 3.52097 1.0078C3.60942 1.0182 3.68747 1.04162 3.75511 1.07804C3.82796 1.11446 3.8852 1.1665 3.92682 1.23414C3.97365 1.29658 3.99707 1.38503 3.99707 1.4995C3.99707 1.61918 3.97365 1.71284 3.92682 1.78048C3.8852 1.84292 3.82796 1.88975 3.75511 1.92097C3.68747 1.95219 3.60942 1.973 3.52097 1.98341C3.43251 1.98861 3.34666 1.99121 3.26341 1.99121H3.14633C2.37625 1.99121 1.99121 2.37625 1.99121 3.14633L1.99902 3.49755C1.99902 3.63284 1.94959 3.74991 1.85072 3.84877C1.75186 3.94763 1.63479 3.99707 1.4995 3.99707C1.36422 3.99707 1.24715 3.94763 1.14829 3.84877C1.04942 3.74991 0.999992 3.63284 0.999992 3.49755ZM5.99511 1.99902C5.85983 1.99902 5.74276 1.94959 5.64389 1.85072C5.54503 1.75186 5.4956 1.63479 5.4956 1.4995C5.4956 1.36422 5.54503 1.24715 5.64389 1.14829C5.74276 1.04942 5.85983 0.999992 5.99511 0.999992H7.99316C8.12845 0.999992 8.24552 1.04942 8.34438 1.14829C8.44324 1.24715 8.49268 1.36422 8.49268 1.4995C8.49268 1.63479 8.44324 1.75186 8.34438 1.85072C8.24552 1.94959 8.12845 1.99902 7.99316 1.99902H5.99511ZM10.4907 1.99902C10.3554 1.99902 10.2384 1.94959 10.1395 1.85072C10.0406 1.75186 9.99121 1.63479 9.99121 1.4995C9.99121 1.36422 10.0406 1.24715 10.1395 1.14829C10.2384 1.04942 10.3554 0.999992 10.4907 0.999992H12.4888C12.6241 0.999992 12.7411 1.04942 12.84 1.14829C12.9389 1.24715 12.9883 1.36422 12.9883 1.4995C12.9883 1.63479 12.9389 1.75186 12.84 1.85072C12.7411 1.94959 12.6241 1.99902 12.4888 1.99902H10.4907ZM13.9873 1.4995C13.9873 1.36422 14.0367 1.24715 14.1356 1.14829C14.2345 1.04942 14.3515 0.999992 14.4868 0.999992H15.0254C15.2855 0.999992 15.5327 1.05463 15.7668 1.16389C16.0062 1.26796 16.2143 1.41105 16.3912 1.59316C16.5733 1.77007 16.7164 1.9782 16.8205 2.21755C16.9297 2.4517 16.9844 2.69885 16.9844 2.95902L16.9922 3.2556C16.9922 3.34406 16.987 3.43251 16.9766 3.52097C16.9662 3.60942 16.9428 3.69007 16.9063 3.76292C16.8699 3.83056 16.8179 3.8878 16.7502 3.93463C16.6878 3.97625 16.5993 3.99707 16.4849 3.99707C16.3652 3.99707 16.2715 3.97625 16.2039 3.93463C16.1415 3.8878 16.0946 3.83056 16.0634 3.76292C16.0322 3.69528 16.0114 3.61983 16.001 3.53658C15.9958 3.44812 15.9932 3.35967 15.9932 3.27121V3.14633C15.9932 2.7717 15.8943 2.48552 15.6966 2.2878C15.4989 2.09007 15.2127 1.99121 14.838 1.99121L14.4868 1.99902C14.3515 1.99902 14.2345 1.94959 14.1356 1.85072C14.0367 1.75186 13.9873 1.63479 13.9873 1.4995ZM0.999992 7.49365V5.4956C0.999992 5.36032 1.04942 5.24324 1.14829 5.14438C1.24715 5.04552 1.36422 4.99609 1.4995 4.99609C1.63479 4.99609 1.75186 5.04552 1.85072 5.14438C1.94959 5.24324 1.99902 5.36032 1.99902 5.4956V7.49365C1.99902 7.62894 1.94959 7.74601 1.85072 7.84487C1.75186 7.94373 1.63479 7.99316 1.4995 7.99316C1.36422 7.99316 1.24715 7.94373 1.14829 7.84487C1.04942 7.74601 0.999992 7.62894 0.999992 7.49365ZM15.9854 7.49365V5.4956C15.9854 5.36032 16.0348 5.24324 16.1337 5.14438C16.2325 5.04552 16.3496 4.99609 16.4849 4.99609C16.6202 4.99609 16.7372 5.04552 16.8361 5.14438C16.935 5.24324 16.9844 5.36032 16.9844 5.4956V7.49365C16.9844 7.62894 16.935 7.74601 16.8361 7.84487C16.7372 7.94373 16.6202 7.99316 16.4849 7.99316C16.3496 7.99316 16.2325 7.94373 16.1337 7.84487C16.0348 7.74601 15.9854 7.62894 15.9854 7.49365ZM0.999992 11.9893V9.99121C0.999992 9.85593 1.04942 9.73885 1.14829 9.63999C1.24715 9.54113 1.36422 9.4917 1.4995 9.4917C1.63479 9.4917 1.75186 9.54113 1.85072 9.63999C1.94959 9.73885 1.99902 9.85593 1.99902 9.99121V11.9893C1.99902 12.1245 1.94959 12.2416 1.85072 12.3405C1.75186 12.4393 1.63479 12.4888 1.4995 12.4888C1.36422 12.4888 1.24715 12.4393 1.14829 12.3405C1.04942 12.2416 0.999992 12.1245 0.999992 11.9893ZM15.9854 11.9893V9.99121C15.9854 9.85593 16.0348 9.73885 16.1337 9.63999C16.2325 9.54113 16.3496 9.4917 16.4849 9.4917C16.6202 9.4917 16.7372 9.54113 16.8361 9.63999C16.935 9.73885 16.9844 9.85593 16.9844 9.99121V11.9893C16.9844 12.1245 16.935 12.2416 16.8361 12.3405C16.7372 12.4393 16.6202 12.4888 16.4849 12.4888C16.3496 12.4888 16.2325 12.4393 16.1337 12.3405C16.0348 12.2416 15.9854 12.1245 15.9854 11.9893ZM2.95902 16.9844C2.69885 16.9844 2.4491 16.9324 2.20975 16.8283C1.9756 16.719 1.76747 16.5759 1.58536 16.399C1.40845 16.2169 1.26536 16.0088 1.15609 15.7746C1.05202 15.5353 0.999992 15.2855 0.999992 15.0254L0.992188 14.7288C0.992188 14.6403 0.997391 14.5519 1.0078 14.4634C1.0182 14.375 1.03902 14.2969 1.07024 14.2293C1.10666 14.1564 1.15869 14.0992 1.22633 14.0576C1.29398 14.0107 1.38503 13.9873 1.4995 13.9873C1.61398 13.9873 1.70503 14.0107 1.77268 14.0576C1.84032 14.0992 1.88975 14.1564 1.92097 14.2293C1.95219 14.2969 1.9704 14.375 1.9756 14.4634C1.98601 14.5519 1.99121 14.6377 1.99121 14.721V14.838C1.99121 15.6081 2.37625 15.9932 3.14633 15.9932L3.49755 15.9854C3.63284 15.9854 3.74991 16.0348 3.84877 16.1337C3.94763 16.2325 3.99707 16.3496 3.99707 16.4849C3.99707 16.6202 3.94763 16.7372 3.84877 16.8361C3.74991 16.935 3.63284 16.9844 3.49755 16.9844H2.95902ZM13.9873 16.4849C13.9873 16.3704 14.0081 16.2793 14.0497 16.2117C14.0966 16.1441 14.1538 16.0946 14.2215 16.0634C14.2943 16.0322 14.3724 16.014 14.4556 16.0088C14.5441 15.9984 14.6325 15.9932 14.721 15.9932H14.838C15.6081 15.9932 15.9932 15.6081 15.9932 14.838L15.9854 14.4868C15.9854 14.3515 16.0348 14.2345 16.1337 14.1356C16.2325 14.0367 16.3496 13.9873 16.4849 13.9873C16.6202 13.9873 16.7372 14.0367 16.8361 14.1356C16.935 14.2345 16.9844 14.3515 16.9844 14.4868V15.0254C16.9844 15.2855 16.9297 15.5353 16.8205 15.7746C16.7164 16.0088 16.5733 16.2169 16.3912 16.399C16.2143 16.5759 16.0062 16.719 15.7668 16.8283C15.5327 16.9324 15.2855 16.9844 15.0254 16.9844L14.7288 16.9922C14.6403 16.9922 14.5519 16.987 14.4634 16.9766C14.375 16.9662 14.2943 16.9454 14.2215 16.9141C14.1538 16.8777 14.0966 16.8257 14.0497 16.758C14.0081 16.6904 13.9873 16.5993 13.9873 16.4849ZM5.99511 16.9844C5.85983 16.9844 5.74276 16.935 5.64389 16.8361C5.54503 16.7372 5.4956 16.6202 5.4956 16.4849C5.4956 16.3496 5.54503 16.2325 5.64389 16.1337C5.74276 16.0348 5.85983 15.9854 5.99511 15.9854H7.99316C8.12845 15.9854 8.24552 16.0348 8.34438 16.1337C8.44324 16.2325 8.49268 16.3496 8.49268 16.4849C8.49268 16.6202 8.44324 16.7372 8.34438 16.8361C8.24552 16.935 8.12845 16.9844 7.99316 16.9844H5.99511ZM10.4907 16.9844C10.3554 16.9844 10.2384 16.935 10.1395 16.8361C10.0406 16.7372 9.99121 16.6202 9.99121 16.4849C9.99121 16.3496 10.0406 16.2325 10.1395 16.1337C10.2384 16.0348 10.3554 15.9854 10.4907 15.9854H12.4888C12.6241 15.9854 12.7411 16.0348 12.84 16.1337C12.9389 16.2325 12.9883 16.3496 12.9883 16.4849C12.9883 16.6202 12.9389 16.7372 12.84 16.8361C12.7411 16.935 12.6241 16.9844 12.4888 16.9844H10.4907Z" fill="white"/>
</svg>
