<svg width="18" height="18" viewBox="0 0 18 18" fill="none" xmlns="http://www.w3.org/2000/svg">
<path d="M1 3.5V2.96094C1 2.70052 1.05208 2.45312 1.15625 2.21875C1.26562 1.97917 1.40885 1.77083 1.58594 1.59375C1.76823 1.41146 1.97656 1.26823 2.21094 1.16406C2.45052 1.05469 2.70052 1 2.96094 1L3.25781 0.992188C3.34635 0.992188 3.4349 0.997396 3.52344 1.00781C3.61198 1.01823 3.6901 1.04167 3.75781 1.07812C3.83073 1.11458 3.88802 1.16667 3.92969 1.23438C3.97656 1.29688 4 1.38542 4 1.5C4 1.61979 3.97656 1.71354 3.92969 1.78125C3.88802 1.84375 3.83073 1.89062 3.75781 1.92188C3.6901 1.95312 3.61198 1.97396 3.52344 1.98438C3.4349 1.98958 3.34896 1.99219 3.26562 1.99219H3.14844C2.3776 1.99219 1.99219 2.3776 1.99219 3.14844L2 3.5C2 3.63542 1.95052 3.7526 1.85156 3.85156C1.7526 3.95052 1.63542 4 1.5 4C1.36458 4 1.2474 3.95052 1.14844 3.85156C1.04948 3.7526 1 3.63542 1 3.5ZM6 2C5.86458 2 5.7474 1.95052 5.64844 1.85156C5.54948 1.7526 5.5 1.63542 5.5 1.5C5.5 1.36458 5.54948 1.2474 5.64844 1.14844C5.7474 1.04948 5.86458 1 6 1H8C8.13542 1 8.2526 1.04948 8.35156 1.14844C8.45052 1.2474 8.5 1.36458 8.5 1.5C8.5 1.63542 8.45052 1.7526 8.35156 1.85156C8.2526 1.95052 8.13542 2 8 2H6ZM10.5 2C10.3646 2 10.2474 1.95052 10.1484 1.85156C10.0495 1.7526 10 1.63542 10 1.5C10 1.36458 10.0495 1.2474 10.1484 1.14844C10.2474 1.04948 10.3646 1 10.5 1H12.5C12.6354 1 12.7526 1.04948 12.8516 1.14844C12.9505 1.2474 13 1.36458 13 1.5C13 1.63542 12.9505 1.7526 12.8516 1.85156C12.7526 1.95052 12.6354 2 12.5 2H10.5ZM14 1.5C14 1.36458 14.0495 1.2474 14.1484 1.14844C14.2474 1.04948 14.3646 1 14.5 1H15.0391C15.2995 1 15.5469 1.05469 15.7812 1.16406C16.0208 1.26823 16.2292 1.41146 16.4062 1.59375C16.5885 1.77083 16.7318 1.97917 16.8359 2.21875C16.9453 2.45312 17 2.70052 17 2.96094L17.0078 3.25781C17.0078 3.34635 17.0026 3.4349 16.9922 3.52344C16.9818 3.61198 16.9583 3.69271 16.9219 3.76562C16.8854 3.83333 16.8333 3.89062 16.7656 3.9375C16.7031 3.97917 16.6146 4 16.5 4C16.3802 4 16.2865 3.97917 16.2188 3.9375C16.1562 3.89062 16.1094 3.83333 16.0781 3.76562C16.0469 3.69792 16.026 3.6224 16.0156 3.53906C16.0104 3.45052 16.0078 3.36198 16.0078 3.27344V3.14844C16.0078 2.77344 15.9089 2.48698 15.7109 2.28906C15.513 2.09115 15.2266 1.99219 14.8516 1.99219L14.5 2C14.3646 2 14.2474 1.95052 14.1484 1.85156C14.0495 1.7526 14 1.63542 14 1.5ZM4.5 8C4.29688 8 4.10417 7.96094 3.92188 7.88281C3.73958 7.80469 3.57812 7.69792 3.4375 7.5625C3.30208 7.42188 3.19531 7.26042 3.11719 7.07812C3.03906 6.89583 3 6.70312 3 6.5V4.5C3 4.29688 3.03906 4.10417 3.11719 3.92188C3.19531 3.73958 3.30208 3.58073 3.4375 3.44531C3.57812 3.30469 3.73958 3.19531 3.92188 3.11719C4.10417 3.03906 4.29688 3 4.5 3H6.5C6.70312 3 6.89583 3.03906 7.07812 3.11719C7.26042 3.19531 7.41927 3.30469 7.55469 3.44531C7.69531 3.58073 7.80469 3.73958 7.88281 3.92188C7.96094 4.10417 8 4.29688 8 4.5V6.5C8 6.70312 7.96094 6.89583 7.88281 7.07812C7.80469 7.26042 7.69531 7.42188 7.55469 7.5625C7.41927 7.69792 7.26042 7.80469 7.07812 7.88281C6.89583 7.96094 6.70312 8 6.5 8H4.5ZM11.5 8C11.2969 8 11.1042 7.96094 10.9219 7.88281C10.7396 7.80469 10.5781 7.69792 10.4375 7.5625C10.3021 7.42188 10.1953 7.26042 10.1172 7.07812C10.0391 6.89583 10 6.70312 10 6.5V4.5C10 4.29688 10.0391 4.10417 10.1172 3.92188C10.1953 3.73958 10.3021 3.58073 10.4375 3.44531C10.5781 3.30469 10.7396 3.19531 10.9219 3.11719C11.1042 3.03906 11.2969 3 11.5 3H13.5C13.7031 3 13.8958 3.03906 14.0781 3.11719C14.2604 3.19531 14.4193 3.30469 14.5547 3.44531C14.6953 3.58073 14.8047 3.73958 14.8828 3.92188C14.9609 4.10417 15 4.29688 15 4.5V6.5C15 6.70312 14.9609 6.89583 14.8828 7.07812C14.8047 7.26042 14.6953 7.42188 14.5547 7.5625C14.4193 7.69792 14.2604 7.80469 14.0781 7.88281C13.8958 7.96094 13.7031 8 13.5 8H11.5ZM6.5 7C6.63542 7 6.7526 6.95052 6.85156 6.85156C6.95052 6.7526 7 6.63542 7 6.5V4.5C7 4.36458 6.95052 4.2474 6.85156 4.14844C6.7526 4.04948 6.63542 4 6.5 4H4.5C4.36458 4 4.2474 4.04948 4.14844 4.14844C4.04948 4.2474 4 4.36458 4 4.5V6.5C4 6.63542 4.04948 6.7526 4.14844 6.85156C4.2474 6.95052 4.36458 7 4.5 7H6.5ZM13.5 7C13.6354 7 13.7526 6.95052 13.8516 6.85156C13.9505 6.7526 14 6.63542 14 6.5V4.5C14 4.36458 13.9505 4.2474 13.8516 4.14844C13.7526 4.04948 13.6354 4 13.5 4H11.5C11.3646 4 11.2474 4.04948 11.1484 4.14844C11.0495 4.2474 11 4.36458 11 4.5V6.5C11 6.63542 11.0495 6.7526 11.1484 6.85156C11.2474 6.95052 11.3646 7 11.5 7H13.5ZM1 7.5V5.5C1 5.36458 1.04948 5.2474 1.14844 5.14844C1.2474 5.04948 1.36458 5 1.5 5C1.63542 5 1.7526 5.04948 1.85156 5.14844C1.95052 5.2474 2 5.36458 2 5.5V7.5C2 7.63542 1.95052 7.7526 1.85156 7.85156C1.7526 7.95052 1.63542 8 1.5 8C1.36458 8 1.2474 7.95052 1.14844 7.85156C1.04948 7.7526 1 7.63542 1 7.5ZM16 7.5V5.5C16 5.36458 16.0495 5.2474 16.1484 5.14844C16.2474 5.04948 16.3646 5 16.5 5C16.6354 5 16.7526 5.04948 16.8516 5.14844C16.9505 5.2474 17 5.36458 17 5.5V7.5C17 7.63542 16.9505 7.7526 16.8516 7.85156C16.7526 7.95052 16.6354 8 16.5 8C16.3646 8 16.2474 7.95052 16.1484 7.85156C16.0495 7.7526 16 7.63542 16 7.5ZM1 12V10C1 9.86458 1.04948 9.7474 1.14844 9.64844C1.2474 9.54948 1.36458 9.5 1.5 9.5C1.63542 9.5 1.7526 9.54948 1.85156 9.64844C1.95052 9.7474 2 9.86458 2 10V12C2 12.1354 1.95052 12.2526 1.85156 12.3516C1.7526 12.4505 1.63542 12.5 1.5 12.5C1.36458 12.5 1.2474 12.4505 1.14844 12.3516C1.04948 12.2526 1 12.1354 1 12ZM16 12V10C16 9.86458 16.0495 9.7474 16.1484 9.64844C16.2474 9.54948 16.3646 9.5 16.5 9.5C16.6354 9.5 16.7526 9.54948 16.8516 9.64844C16.9505 9.7474 17 9.86458 17 10V12C17 12.1354 16.9505 12.2526 16.8516 12.3516C16.7526 12.4505 16.6354 12.5 16.5 12.5C16.3646 12.5 16.2474 12.4505 16.1484 12.3516C16.0495 12.2526 16 12.1354 16 12ZM4.5 15C4.29688 15 4.10417 14.9609 3.92188 14.8828C3.73958 14.8047 3.57812 14.6979 3.4375 14.5625C3.30208 14.4219 3.19531 14.2604 3.11719 14.0781C3.03906 13.8958 3 13.7031 3 13.5V11.5C3 11.2969 3.03906 11.1042 3.11719 10.9219C3.19531 10.7396 3.30208 10.5807 3.4375 10.4453C3.57812 10.3047 3.73958 10.1953 3.92188 10.1172C4.10417 10.0391 4.29688 10 4.5 10H6.5C6.70312 10 6.89583 10.0391 7.07812 10.1172C7.26042 10.1953 7.41927 10.3047 7.55469 10.4453C7.69531 10.5807 7.80469 10.7396 7.88281 10.9219C7.96094 11.1042 8 11.2969 8 11.5V13.5C8 13.7031 7.96094 13.8958 7.88281 14.0781C7.80469 14.2604 7.69531 14.4219 7.55469 14.5625C7.41927 14.6979 7.26042 14.8047 7.07812 14.8828C6.89583 14.9609 6.70312 15 6.5 15H4.5ZM11.5 15C11.2969 15 11.1042 14.9609 10.9219 14.8828C10.7396 14.8047 10.5781 14.6979 10.4375 14.5625C10.3021 14.4219 10.1953 14.2604 10.1172 14.0781C10.0391 13.8958 10 13.7031 10 13.5V11.5C10 11.2969 10.0391 11.1042 10.1172 10.9219C10.1953 10.7396 10.3021 10.5807 10.4375 10.4453C10.5781 10.3047 10.7396 10.1953 10.9219 10.1172C11.1042 10.0391 11.2969 10 11.5 10H13.5C13.7031 10 13.8958 10.0391 14.0781 10.1172C14.2604 10.1953 14.4193 10.3047 14.5547 10.4453C14.6953 10.5807 14.8047 10.7396 14.8828 10.9219C14.9609 11.1042 15 11.2969 15 11.5V13.5C15 13.7031 14.9609 13.8958 14.8828 14.0781C14.8047 14.2604 14.6953 14.4219 14.5547 14.5625C14.4193 14.6979 14.2604 14.8047 14.0781 14.8828C13.8958 14.9609 13.7031 15 13.5 15H11.5ZM6.5 14C6.63542 14 6.7526 13.9505 6.85156 13.8516C6.95052 13.7526 7 13.6354 7 13.5V11.5C7 11.3646 6.95052 11.2474 6.85156 11.1484C6.7526 11.0495 6.63542 11 6.5 11H4.5C4.36458 11 4.2474 11.0495 4.14844 11.1484C4.04948 11.2474 4 11.3646 4 11.5V13.5C4 13.6354 4.04948 13.7526 4.14844 13.8516C4.2474 13.9505 4.36458 14 4.5 14H6.5ZM13.5 14C13.6354 14 13.7526 13.9505 13.8516 13.8516C13.9505 13.7526 14 13.6354 14 13.5V11.5C14 11.3646 13.9505 11.2474 13.8516 11.1484C13.7526 11.0495 13.6354 11 13.5 11H11.5C11.3646 11 11.2474 11.0495 11.1484 11.1484C11.0495 11.2474 11 11.3646 11 11.5V13.5C11 13.6354 11.0495 13.7526 11.1484 13.8516C11.2474 13.9505 11.3646 14 11.5 14H13.5ZM2.96094 17C2.70052 17 2.45052 16.9479 2.21094 16.8438C1.97656 16.7344 1.76823 16.5911 1.58594 16.4141C1.40885 16.2318 1.26562 16.0234 1.15625 15.7891C1.05208 15.5495 1 15.2995 1 15.0391L0.992188 14.7422C0.992188 14.6536 0.997396 14.5651 1.00781 14.4766C1.01823 14.388 1.03906 14.3099 1.07031 14.2422C1.10677 14.1693 1.15885 14.112 1.22656 14.0703C1.29427 14.0234 1.38542 14 1.5 14C1.61458 14 1.70573 14.0234 1.77344 14.0703C1.84115 14.112 1.89062 14.1693 1.92188 14.2422C1.95312 14.3099 1.97135 14.388 1.97656 14.4766C1.98698 14.5651 1.99219 14.651 1.99219 14.7344V14.8516C1.99219 15.6224 2.3776 16.0078 3.14844 16.0078L3.5 16C3.63542 16 3.7526 16.0495 3.85156 16.1484C3.95052 16.2474 4 16.3646 4 16.5C4 16.6354 3.95052 16.7526 3.85156 16.8516C3.7526 16.9505 3.63542 17 3.5 17H2.96094ZM14 16.5C14 16.3854 14.0208 16.2943 14.0625 16.2266C14.1094 16.1589 14.1667 16.1094 14.2344 16.0781C14.3073 16.0469 14.3854 16.0286 14.4688 16.0234C14.5573 16.013 14.6458 16.0078 14.7344 16.0078H14.8516C15.6224 16.0078 16.0078 15.6224 16.0078 14.8516L16 14.5C16 14.3646 16.0495 14.2474 16.1484 14.1484C16.2474 14.0495 16.3646 14 16.5 14C16.6354 14 16.7526 14.0495 16.8516 14.1484C16.9505 14.2474 17 14.3646 17 14.5V15.0391C17 15.2995 16.9453 15.5495 16.8359 15.7891C16.7318 16.0234 16.5885 16.2318 16.4062 16.4141C16.2292 16.5911 16.0208 16.7344 15.7812 16.8438C15.5469 16.9479 15.2995 17 15.0391 17L14.7422 17.0078C14.6536 17.0078 14.5651 17.0026 14.4766 16.9922C14.388 16.9818 14.3073 16.9609 14.2344 16.9297C14.1667 16.8932 14.1094 16.8411 14.0625 16.7734C14.0208 16.7057 14 16.6146 14 16.5ZM6 17C5.86458 17 5.7474 16.9505 5.64844 16.8516C5.54948 16.7526 5.5 16.6354 5.5 16.5C5.5 16.3646 5.54948 16.2474 5.64844 16.1484C5.7474 16.0495 5.86458 16 6 16H8C8.13542 16 8.2526 16.0495 8.35156 16.1484C8.45052 16.2474 8.5 16.3646 8.5 16.5C8.5 16.6354 8.45052 16.7526 8.35156 16.8516C8.2526 16.9505 8.13542 17 8 17H6ZM10.5 17C10.3646 17 10.2474 16.9505 10.1484 16.8516C10.0495 16.7526 10 16.6354 10 16.5C10 16.3646 10.0495 16.2474 10.1484 16.1484C10.2474 16.0495 10.3646 16 10.5 16H12.5C12.6354 16 12.7526 16.0495 12.8516 16.1484C12.9505 16.2474 13 16.3646 13 16.5C13 16.6354 12.9505 16.7526 12.8516 16.8516C12.7526 16.9505 12.6354 17 12.5 17H10.5Z" fill="#60CDFF" fill-opacity="0.8"/>
<path d="M1 3.5V2.96094C1 2.70052 1.05208 2.45312 1.15625 2.21875C1.26562 1.97917 1.40885 1.77083 1.58594 1.59375C1.76823 1.41146 1.97656 1.26823 2.21094 1.16406C2.45052 1.05469 2.70052 1 2.96094 1L3.25781 0.992188C3.34635 0.992188 3.4349 0.997396 3.52344 1.00781C3.61198 1.01823 3.6901 1.04167 3.75781 1.07812C3.83073 1.11458 3.88802 1.16667 3.92969 1.23438C3.97656 1.29688 4 1.38542 4 1.5C4 1.61979 3.97656 1.71354 3.92969 1.78125C3.88802 1.84375 3.83073 1.89062 3.75781 1.92188C3.6901 1.95312 3.61198 1.97396 3.52344 1.98438C3.4349 1.98958 3.34896 1.99219 3.26562 1.99219H3.14844C2.3776 1.99219 1.99219 2.3776 1.99219 3.14844L2 3.5C2 3.63542 1.95052 3.7526 1.85156 3.85156C1.7526 3.95052 1.63542 4 1.5 4C1.36458 4 1.2474 3.95052 1.14844 3.85156C1.04948 3.7526 1 3.63542 1 3.5ZM6 2C5.86458 2 5.7474 1.95052 5.64844 1.85156C5.54948 1.7526 5.5 1.63542 5.5 1.5C5.5 1.36458 5.54948 1.2474 5.64844 1.14844C5.7474 1.04948 5.86458 1 6 1H8C8.13542 1 8.2526 1.04948 8.35156 1.14844C8.45052 1.2474 8.5 1.36458 8.5 1.5C8.5 1.63542 8.45052 1.7526 8.35156 1.85156C8.2526 1.95052 8.13542 2 8 2H6ZM10.5 2C10.3646 2 10.2474 1.95052 10.1484 1.85156C10.0495 1.7526 10 1.63542 10 1.5C10 1.36458 10.0495 1.2474 10.1484 1.14844C10.2474 1.04948 10.3646 1 10.5 1H12.5C12.6354 1 12.7526 1.04948 12.8516 1.14844C12.9505 1.2474 13 1.36458 13 1.5C13 1.63542 12.9505 1.7526 12.8516 1.85156C12.7526 1.95052 12.6354 2 12.5 2H10.5ZM14 1.5C14 1.36458 14.0495 1.2474 14.1484 1.14844C14.2474 1.04948 14.3646 1 14.5 1H15.0391C15.2995 1 15.5469 1.05469 15.7812 1.16406C16.0208 1.26823 16.2292 1.41146 16.4062 1.59375C16.5885 1.77083 16.7318 1.97917 16.8359 2.21875C16.9453 2.45312 17 2.70052 17 2.96094L17.0078 3.25781C17.0078 3.34635 17.0026 3.4349 16.9922 3.52344C16.9818 3.61198 16.9583 3.69271 16.9219 3.76562C16.8854 3.83333 16.8333 3.89062 16.7656 3.9375C16.7031 3.97917 16.6146 4 16.5 4C16.3802 4 16.2865 3.97917 16.2188 3.9375C16.1562 3.89062 16.1094 3.83333 16.0781 3.76562C16.0469 3.69792 16.026 3.6224 16.0156 3.53906C16.0104 3.45052 16.0078 3.36198 16.0078 3.27344V3.14844C16.0078 2.77344 15.9089 2.48698 15.7109 2.28906C15.513 2.09115 15.2266 1.99219 14.8516 1.99219L14.5 2C14.3646 2 14.2474 1.95052 14.1484 1.85156C14.0495 1.7526 14 1.63542 14 1.5ZM1 7.5V5.5C1 5.36458 1.04948 5.2474 1.14844 5.14844C1.2474 5.04948 1.36458 5 1.5 5C1.63542 5 1.7526 5.04948 1.85156 5.14844C1.95052 5.2474 2 5.36458 2 5.5V7.5C2 7.63542 1.95052 7.7526 1.85156 7.85156C1.7526 7.95052 1.63542 8 1.5 8C1.36458 8 1.2474 7.95052 1.14844 7.85156C1.04948 7.7526 1 7.63542 1 7.5ZM16 7.5V5.5C16 5.36458 16.0495 5.2474 16.1484 5.14844C16.2474 5.04948 16.3646 5 16.5 5C16.6354 5 16.7526 5.04948 16.8516 5.14844C16.9505 5.2474 17 5.36458 17 5.5V7.5C17 7.63542 16.9505 7.7526 16.8516 7.85156C16.7526 7.95052 16.6354 8 16.5 8C16.3646 8 16.2474 7.95052 16.1484 7.85156C16.0495 7.7526 16 7.63542 16 7.5ZM1 12V10C1 9.86458 1.04948 9.7474 1.14844 9.64844C1.2474 9.54948 1.36458 9.5 1.5 9.5C1.63542 9.5 1.7526 9.54948 1.85156 9.64844C1.95052 9.7474 2 9.86458 2 10V12C2 12.1354 1.95052 12.2526 1.85156 12.3516C1.7526 12.4505 1.63542 12.5 1.5 12.5C1.36458 12.5 1.2474 12.4505 1.14844 12.3516C1.04948 12.2526 1 12.1354 1 12ZM16 12V10C16 9.86458 16.0495 9.7474 16.1484 9.64844C16.2474 9.54948 16.3646 9.5 16.5 9.5C16.6354 9.5 16.7526 9.54948 16.8516 9.64844C16.9505 9.7474 17 9.86458 17 10V12C17 12.1354 16.9505 12.2526 16.8516 12.3516C16.7526 12.4505 16.6354 12.5 16.5 12.5C16.3646 12.5 16.2474 12.4505 16.1484 12.3516C16.0495 12.2526 16 12.1354 16 12ZM2.96094 17C2.70052 17 2.45052 16.9479 2.21094 16.8438C1.97656 16.7344 1.76823 16.5911 1.58594 16.4141C1.40885 16.2318 1.26562 16.0234 1.15625 15.7891C1.05208 15.5495 1 15.2995 1 15.0391L0.992188 14.7422C0.992188 14.6536 0.997396 14.5651 1.00781 14.4766C1.01823 14.388 1.03906 14.3099 1.07031 14.2422C1.10677 14.1693 1.15885 14.112 1.22656 14.0703C1.29427 14.0234 1.38542 14 1.5 14C1.61458 14 1.70573 14.0234 1.77344 14.0703C1.84115 14.112 1.89062 14.1693 1.92188 14.2422C1.95312 14.3099 1.97135 14.388 1.97656 14.4766C1.98698 14.5651 1.99219 14.651 1.99219 14.7344V14.8516C1.99219 15.6224 2.3776 16.0078 3.14844 16.0078L3.5 16C3.63542 16 3.7526 16.0495 3.85156 16.1484C3.95052 16.2474 4 16.3646 4 16.5C4 16.6354 3.95052 16.7526 3.85156 16.8516C3.7526 16.9505 3.63542 17 3.5 17H2.96094ZM14 16.5C14 16.3854 14.0208 16.2943 14.0625 16.2266C14.1094 16.1589 14.1667 16.1094 14.2344 16.0781C14.3073 16.0469 14.3854 16.0286 14.4688 16.0234C14.5573 16.013 14.6458 16.0078 14.7344 16.0078H14.8516C15.6224 16.0078 16.0078 15.6224 16.0078 14.8516L16 14.5C16 14.3646 16.0495 14.2474 16.1484 14.1484C16.2474 14.0495 16.3646 14 16.5 14C16.6354 14 16.7526 14.0495 16.8516 14.1484C16.9505 14.2474 17 14.3646 17 14.5V15.0391C17 15.2995 16.9453 15.5495 16.8359 15.7891C16.7318 16.0234 16.5885 16.2318 16.4062 16.4141C16.2292 16.5911 16.0208 16.7344 15.7812 16.8438C15.5469 16.9479 15.2995 17 15.0391 17L14.7422 17.0078C14.6536 17.0078 14.5651 17.0026 14.4766 16.9922C14.388 16.9818 14.3073 16.9609 14.2344 16.9297C14.1667 16.8932 14.1094 16.8411 14.0625 16.7734C14.0208 16.7057 14 16.6146 14 16.5ZM6 17C5.86458 17 5.7474 16.9505 5.64844 16.8516C5.54948 16.7526 5.5 16.6354 5.5 16.5C5.5 16.3646 5.54948 16.2474 5.64844 16.1484C5.7474 16.0495 5.86458 16 6 16H8C8.13542 16 8.2526 16.0495 8.35156 16.1484C8.45052 16.2474 8.5 16.3646 8.5 16.5C8.5 16.6354 8.45052 16.7526 8.35156 16.8516C8.2526 16.9505 8.13542 17 8 17H6ZM10.5 17C10.3646 17 10.2474 16.9505 10.1484 16.8516C10.0495 16.7526 10 16.6354 10 16.5C10 16.3646 10.0495 16.2474 10.1484 16.1484C10.2474 16.0495 10.3646 16 10.5 16H12.5C12.6354 16 12.7526 16.0495 12.8516 16.1484C12.9505 16.2474 13 16.3646 13 16.5C13 16.6354 12.9505 16.7526 12.8516 16.8516C12.7526 16.9505 12.6354 17 12.5 17H10.5Z" fill="white"/>
</svg>
