<svg width="16" height="14" viewBox="0 0 16 14" fill="none" xmlns="http://www.w3.org/2000/svg">
<path d="M13.825 0.3125L15.2533 1.65625C15.3529 1.75 15.4027 1.86979 15.4027 2.01562C15.4027 2.15104 15.3529 2.26562 15.2533 2.35938C15.1425 2.45312 15.0152 2.5 14.8713 2.5C14.7274 2.5 14.6 2.45312 14.4893 2.35938L13.9911 1.875V5C13.9911 5.14583 13.9357 5.26562 13.825 5.35938C13.7254 5.45312 13.6036 5.5 13.4597 5.5C13.3047 5.5 13.1773 5.45312 13.0777 5.35938C12.9781 5.26562 12.9282 5.14583 12.9282 5V1.875L12.4134 2.35938C12.3138 2.45312 12.1864 2.5 12.0314 2.5C11.8875 2.5 11.7657 2.45312 11.6661 2.35938C11.5554 2.26562 11.5 2.15104 11.5 2.01562C11.5 1.86979 11.5554 1.75 11.6661 1.65625L13.0777 0.3125C13.1331 0.270833 13.1884 0.239583 13.2438 0.21875C13.3102 0.1875 13.3822 0.171875 13.4597 0.171875C13.4929 0.171875 13.5261 0.177083 13.5593 0.1875C13.5925 0.1875 13.6257 0.192708 13.659 0.203125C13.6922 0.223958 13.7198 0.244792 13.742 0.265625C13.7752 0.276042 13.8029 0.291667 13.825 0.3125ZM3.15309e-05 2.51562C3.15309e-05 2.38021 0.0498536 2.26562 0.149498 2.17188C0.260213 2.06771 0.387536 2.01562 0.531467 2.01562H6.55994C6.70387 2.01562 6.82565 2.06771 6.9253 2.17188C7.03601 2.26562 7.09137 2.38021 7.09137 2.51562C7.09137 2.66146 7.03601 2.78125 6.9253 2.875C6.82565 2.96875 6.70387 3.01562 6.55994 3.01562H0.531467C0.387536 3.01562 0.260213 2.96875 0.149498 2.875C0.0498536 2.78125 3.15309e-05 2.66146 3.15309e-05 2.51562ZM3.18885e-05 7.5C3.18885e-05 7.35417 0.049854 7.23438 0.149498 7.14062C0.260214 7.04688 0.387537 7 0.531467 7H8.68568C8.82961 7 8.9514 7.04688 9.05104 7.14062C9.16176 7.23438 9.21711 7.35417 9.21711 7.5C9.21711 7.63542 9.16176 7.75521 9.05104 7.85938C8.9514 7.95312 8.82961 8 8.68568 8H0.531467C0.387537 8 0.260214 7.95312 0.149498 7.85938C0.049854 7.75521 3.18885e-05 7.63542 3.18885e-05 7.5ZM0.531436 12C0.387505 12 0.260182 12.0521 0.149467 12.1562C0.0498224 12.25 3.57628e-07 12.3646 3.57628e-07 12.5C3.57628e-07 12.6354 0.0498224 12.7552 0.149467 12.8594C0.260182 12.9531 0.387505 13 0.531436 13H6.55991C6.70384 13 6.82562 12.9531 6.92527 12.8594C7.03598 12.7552 7.09134 12.6354 7.09134 12.5C7.09134 12.3646 7.03598 12.25 6.92527 12.1562C6.82562 12.0521 6.70384 12 6.55991 12H0.531436ZM13.0255 12.2969V9.17188C13.0255 9.02604 13.0753 8.90625 13.175 8.8125C13.2746 8.71875 13.4019 8.67188 13.5569 8.67188C13.7009 8.67188 13.8227 8.71875 13.9223 8.8125C14.033 8.90625 14.0884 9.02604 14.0884 9.17188V12.2969L14.5866 11.8125C14.6973 11.7188 14.8246 11.6719 14.9686 11.6719C15.1125 11.6719 15.2398 11.7188 15.3505 11.8125C15.4502 11.9062 15.5 12.026 15.5 12.1719C15.5 12.3073 15.4502 12.4219 15.3505 12.5156L13.9223 13.8594C13.9002 13.8802 13.8725 13.901 13.8393 13.9219C13.8171 13.9323 13.7894 13.9479 13.7562 13.9688C13.723 13.9792 13.6898 13.9896 13.6566 14C13.6344 14 13.6068 14 13.5735 14C13.5735 14 13.568 14 13.5569 14C13.5127 14 13.4739 14 13.4407 14C13.4075 13.9896 13.3743 13.9792 13.341 13.9688C13.3189 13.9479 13.2912 13.9323 13.258 13.9219C13.2248 13.901 13.1971 13.8802 13.175 13.8594L11.7633 12.5156C11.6526 12.4219 11.5973 12.3073 11.5973 12.1719C11.5973 12.026 11.6526 11.9062 11.7633 11.8125C11.863 11.7188 11.9848 11.6719 12.1287 11.6719C12.2837 11.6719 12.411 11.7188 12.5107 11.8125L13.0255 12.2969Z" fill="#60CDFF" fill-opacity="0.8"/>
<path d="M3.15309e-05 2.51562C3.15309e-05 2.38021 0.0498536 2.26562 0.149498 2.17188C0.260213 2.06771 0.387536 2.01562 0.531467 2.01562H6.55994C6.70387 2.01562 6.82565 2.06771 6.9253 2.17188C7.03601 2.26562 7.09137 2.38021 7.09137 2.51562C7.09137 2.66146 7.03601 2.78125 6.9253 2.875C6.82565 2.96875 6.70387 3.01562 6.55994 3.01562H0.531467C0.387536 3.01562 0.260213 2.96875 0.149498 2.875C0.0498536 2.78125 3.15309e-05 2.66146 3.15309e-05 2.51562ZM3.18885e-05 7.5C3.18885e-05 7.35417 0.049854 7.23438 0.149498 7.14062C0.260214 7.04688 0.387537 7 0.531467 7H8.68568C8.82961 7 8.9514 7.04688 9.05104 7.14062C9.16176 7.23438 9.21711 7.35417 9.21711 7.5C9.21711 7.63542 9.16176 7.75521 9.05104 7.85938C8.9514 7.95312 8.82961 8 8.68568 8H0.531467C0.387537 8 0.260214 7.95312 0.149498 7.85938C0.049854 7.75521 3.18885e-05 7.63542 3.18885e-05 7.5ZM0.531436 12C0.387505 12 0.260182 12.0521 0.149467 12.1562C0.0498224 12.25 3.57628e-07 12.3646 3.57628e-07 12.5C3.57628e-07 12.6354 0.0498224 12.7552 0.149467 12.8594C0.260182 12.9531 0.387505 13 0.531436 13H6.55991C6.70384 13 6.82562 12.9531 6.92527 12.8594C7.03598 12.7552 7.09134 12.6354 7.09134 12.5C7.09134 12.3646 7.03598 12.25 6.92527 12.1562C6.82562 12.0521 6.70384 12 6.55991 12H0.531436Z" fill="white"/>
</svg>
