<svg width="26" height="32" viewBox="0 0 26 32" fill="none" xmlns="http://www.w3.org/2000/svg">
<mask id="path-1-inside-1_0_1" fill="white">
<path d="M0 9.11759C0 8.42307 0.36031 7.77827 0.951805 7.41427L11.9518 0.645043C12.5946 0.249465 13.4054 0.249465 14.0482 0.645043L25.0482 7.41427C25.6397 7.77827 26 8.42307 26 9.11759V22.4181C26 23.0932 25.6595 23.7226 25.0945 24.0921L14.062 31.3056C13.4137 31.7295 12.579 31.7409 11.9193 31.335L0.951804 24.5857C0.360309 24.2217 0 23.5769 0 22.8824V9.11759Z"/>
</mask>
<path d="M0 9.11759C0 8.42307 0.36031 7.77827 0.951805 7.41427L11.9518 0.645043C12.5946 0.249465 13.4054 0.249465 14.0482 0.645043L25.0482 7.41427C25.6397 7.77827 26 8.42307 26 9.11759V22.4181C26 23.0932 25.6595 23.7226 25.0945 24.0921L14.062 31.3056C13.4137 31.7295 12.579 31.7409 11.9193 31.335L0.951804 24.5857C0.360309 24.2217 0 23.5769 0 22.8824V9.11759Z" stroke="#191919" stroke-width="4" mask="url(#path-1-inside-1_0_1)"/>
<path d="M5.12716 10.6508C5.39353 10.2232 5.99115 10.0727 6.46198 10.3146L13.3521 13.8552C13.8229 14.0971 13.9886 14.6399 13.7222 15.0675C13.4559 15.4951 12.8582 15.6457 12.3874 15.4037L5.49733 11.8632C5.02651 11.6212 4.86078 11.0784 5.12716 10.6508Z" fill="#191919"/>
<path d="M5.12716 10.6508C5.39353 10.2232 5.99115 10.0727 6.46198 10.3146L13.3521 13.8552C13.8229 14.0971 13.9886 14.6399 13.7222 15.0675C13.4559 15.4951 12.8582 15.6457 12.3874 15.4037L5.49733 11.8632C5.02651 11.6212 4.86078 11.0784 5.12716 10.6508Z" fill="#191919"/>
<path d="M5.12716 10.6508C5.39353 10.2232 5.99115 10.0727 6.46198 10.3146L13.3521 13.8552C13.8229 14.0971 13.9886 14.6399 13.7222 15.0675C13.4559 15.4951 12.8582 15.6457 12.3874 15.4037L5.49733 11.8632C5.02651 11.6212 4.86078 11.0784 5.12716 10.6508Z" fill="#191919"/>
<path d="M20.86 10.4316C21.1386 10.8527 20.9885 11.3992 20.5248 11.6523L13.7902 15.3276C13.3265 15.5806 12.7248 15.4444 12.4462 15.0232C12.1676 14.6021 12.3176 14.0555 12.7813 13.8025L19.5159 10.1272C19.9796 9.87415 20.5813 10.0104 20.86 10.4316Z" fill="#191919"/>
<path d="M20.86 10.4316C21.1386 10.8527 20.9885 11.3992 20.5248 11.6523L13.7902 15.3276C13.3265 15.5806 12.7248 15.4444 12.4462 15.0232C12.1676 14.6021 12.3176 14.0555 12.7813 13.8025L19.5159 10.1272C19.9796 9.87415 20.5813 10.0104 20.86 10.4316Z" fill="#191919"/>
<path d="M20.86 10.4316C21.1386 10.8527 20.9885 11.3992 20.5248 11.6523L13.7902 15.3276C13.3265 15.5806 12.7248 15.4444 12.4462 15.0232C12.1676 14.6021 12.3176 14.0555 12.7813 13.8025L19.5159 10.1272C19.9796 9.87415 20.5813 10.0104 20.86 10.4316Z" fill="#191919"/>
<path d="M12.9212 25C12.3802 25 11.9417 24.6017 11.9417 24.1104L11.9417 15.2142C11.9417 14.7229 12.3802 14.3246 12.9212 14.3246C13.4621 14.3246 13.9007 14.7229 13.9007 15.2142L13.9007 24.1104C13.9007 24.6017 13.4621 25 12.9212 25Z" fill="#191919"/>
<path d="M12.9212 25C12.3802 25 11.9417 24.6017 11.9417 24.1104L11.9417 15.2142C11.9417 14.7229 12.3802 14.3246 12.9212 14.3246C13.4621 14.3246 13.9007 14.7229 13.9007 15.2142L13.9007 24.1104C13.9007 24.6017 13.4621 25 12.9212 25Z" fill="#191919"/>
<path d="M12.9212 25C12.3802 25 11.9417 24.6017 11.9417 24.1104L11.9417 15.2142C11.9417 14.7229 12.3802 14.3246 12.9212 14.3246C13.4621 14.3246 13.9007 14.7229 13.9007 15.2142L13.9007 24.1104C13.9007 24.6017 13.4621 25 12.9212 25Z" fill="#191919"/>
</svg>
