<svg width="15" height="14" viewBox="0 0 15 14" fill="none" xmlns="http://www.w3.org/2000/svg">
<path d="M12.5 10.0391C12.5 10.2995 12.4453 10.5495 12.3359 10.7891C12.2318 11.0234 12.0885 11.2318 11.9062 11.4141C11.7292 11.5911 11.5208 11.7344 11.2812 11.8438C11.0469 11.9479 10.7995 12 10.5391 12H2.46094C2.20052 12 1.95052 11.9479 1.71094 11.8438C1.47656 11.7344 1.26823 11.5911 1.08594 11.4141C0.908854 11.2318 0.765625 11.0234 0.65625 10.7891C0.552083 10.5495 0.5 10.2995 0.5 10.0391V1.96094C0.5 1.70052 0.552083 1.45312 0.65625 1.21875C0.765625 0.979167 0.908854 0.770833 1.08594 0.59375C1.26823 0.411458 1.47656 0.268229 1.71094 0.164062C1.95052 0.0546875 2.20052 0 2.46094 0H10.5391C10.7995 0 11.0469 0.0546875 11.2812 0.164062C11.5208 0.268229 11.7292 0.411458 11.9062 0.59375C12.0885 0.770833 12.2318 0.979167 12.3359 1.21875C12.4453 1.45312 12.5 1.70052 12.5 1.96094V10.0391ZM1.5 10C1.5 10.0417 1.5026 10.0859 1.50781 10.1328C1.51302 10.1797 1.52083 10.224 1.53125 10.2656L5.08594 6.70312C5.26823 6.52083 5.48438 6.38281 5.73438 6.28906C5.98438 6.1901 6.23958 6.14062 6.5 6.14062C6.76562 6.14062 7.02083 6.1875 7.26562 6.28125C7.51562 6.375 7.73177 6.51562 7.91406 6.70312L11.4688 10.2656C11.4792 10.224 11.487 10.1797 11.4922 10.1328C11.4974 10.0859 11.5 10.0417 11.5 10V2C11.5 1.86458 11.474 1.73698 11.4219 1.61719C11.3698 1.49219 11.2969 1.38542 11.2031 1.29688C11.1146 1.20312 11.0078 1.13021 10.8828 1.07812C10.763 1.02604 10.6354 1 10.5 1H2.5C2.35938 1 2.22917 1.02604 2.10938 1.07812C1.98958 1.13021 1.88281 1.20312 1.78906 1.29688C1.70052 1.38542 1.63021 1.48958 1.57812 1.60938C1.52604 1.72917 1.5 1.85938 1.5 2V10ZM14.5 4V11.0625C14.5 11.4531 14.4193 11.8281 14.2578 12.1875C14.1016 12.5417 13.888 12.8542 13.6172 13.125C13.3516 13.3906 13.0391 13.6042 12.6797 13.7656C12.3255 13.9219 11.9531 14 11.5625 14H4.5C4.14062 14 3.80469 13.9115 3.49219 13.7344C3.1849 13.5573 2.94271 13.3125 2.76562 13H11.5391C11.8099 13 12.0625 12.9453 12.2969 12.8359C12.5365 12.7266 12.7448 12.5807 12.9219 12.3984C13.099 12.2161 13.2396 12.0052 13.3438 11.7656C13.4479 11.5208 13.5 11.2656 13.5 11V2.26562C13.8125 2.44271 14.0573 2.6875 14.2344 3C14.4115 3.30729 14.5 3.64062 14.5 4ZM8 3.5C8 3.35938 8.02604 3.22917 8.07812 3.10938C8.13021 2.98958 8.20052 2.88542 8.28906 2.79688C8.38281 2.70312 8.48958 2.63021 8.60938 2.57812C8.72917 2.52604 8.85938 2.5 9 2.5C9.13542 2.5 9.26302 2.52604 9.38281 2.57812C9.50781 2.63021 9.61458 2.70312 9.70312 2.79688C9.79688 2.88542 9.86979 2.99219 9.92188 3.11719C9.97396 3.23698 10 3.36458 10 3.5C10 3.64062 9.97396 3.77083 9.92188 3.89062C9.86979 4.01042 9.79688 4.11719 9.70312 4.21094C9.61458 4.29948 9.51042 4.36979 9.39062 4.42188C9.27083 4.47396 9.14062 4.5 9 4.5C8.85938 4.5 8.72656 4.47396 8.60156 4.42188C8.48177 4.36979 8.3776 4.29948 8.28906 4.21094C8.20052 4.1224 8.13021 4.01823 8.07812 3.89844C8.02604 3.77344 8 3.64062 8 3.5ZM2.23438 10.9688C2.27604 10.9792 2.32031 10.987 2.36719 10.9922C2.41406 10.9974 2.45833 11 2.5 11H10.5C10.5417 11 10.5859 10.9974 10.6328 10.9922C10.6797 10.987 10.724 10.9792 10.7656 10.9688L7.21094 7.41406C7.11719 7.32031 7.00781 7.25 6.88281 7.20312C6.75781 7.15625 6.63021 7.13281 6.5 7.13281C6.36979 7.13281 6.24219 7.15625 6.11719 7.20312C5.9974 7.25 5.89062 7.32031 5.79688 7.41406L2.23438 10.9688Z" fill="black"/>
</svg>
