<svg width="180" height="256" viewBox="0 0 180 256" fill="none" xmlns="http://www.w3.org/2000/svg">
<g clip-path="url(#clip0_1_2)">
<rect x="1.5" y="19.9577" width="176.762" height="234.542" rx="10.5" fill="url(#paint0_linear_1_2)" stroke="url(#paint1_linear_1_2)" stroke-width="3"/>
<g filter="url(#filter0_f_1_2)">
<path d="M170.563 37H9.43657C4.22493 37 0 43.3889 0 51.2699V224.73C0 232.611 4.22493 239 9.43657 239H170.563C175.775 239 180 232.611 180 224.73V51.2699C180 43.3889 175.775 37 170.563 37Z" fill="black" fill-opacity="0.652632"/>
</g>
<rect x="1.5" y="19.9577" width="176.762" height="223.307" rx="10.5" fill="url(#paint2_radial_1_2)" stroke="url(#paint3_linear_1_2)" stroke-width="3"/>
<rect x="21.9352" y="126.49" width="136.039" height="5.31009" rx="2.65504" fill="#AFAFAF"/>
<rect x="21.9352" y="172.005" width="136.039" height="5.31009" rx="2.65504" fill="#AFAFAF"/>
<rect x="21.9352" y="156.833" width="136.039" height="5.31009" rx="2.65504" fill="#AFAFAF"/>
<rect x="21.9352" y="141.661" width="136.039" height="5.31009" rx="2.65504" fill="#AFAFAF"/>
<rect x="21.9352" y="172.005" width="136.039" height="5.31009" rx="2.65504" fill="#AFAFAF"/>
<rect x="21.9352" y="217.52" width="136.039" height="5.31009" rx="2.65504" fill="#AFAFAF"/>
<rect x="21.9352" y="202.348" width="136.039" height="5.31009" rx="2.65504" fill="#AFAFAF"/>
<rect x="21.9352" y="187.176" width="136.039" height="5.31009" rx="2.65504" fill="#AFAFAF"/>
<g filter="url(#filter1_f_1_2)">
<path d="M153.241 28H20.759C16.4738 28 13 28.1581 13 28.3532V32.6468C13 32.8419 16.4738 33 20.759 33H153.241C157.526 33 161 32.8419 161 32.6468V28.3532C161 28.1581 157.526 28 153.241 28Z" fill="black" fill-opacity="0.652632"/>
</g>
<g filter="url(#filter2_d_1_2)">
<path d="M0 12C0 5.37258 5.37258 0 12 0H167.762C174.389 0 179.762 5.37258 179.762 12V37.1829H0V12Z" fill="url(#paint4_linear_1_2)"/>
</g>
<path d="M26.0585 106.126L26.0506 106.137L26.0433 106.148C25.8104 106.517 25.7153 106.965 25.7153 107.454C25.7153 108.125 25.9734 108.71 26.4619 109.186L26.8104 108.829L26.462 109.186C26.9503 109.662 27.5449 109.909 28.2215 109.909H36.2466C36.9233 109.909 37.5179 109.662 38.0062 109.186L37.6573 108.828L38.0062 109.186C38.4948 108.71 38.7529 108.125 38.7529 107.454C38.7529 106.926 38.6478 106.444 38.3783 106.065C38.1328 105.719 37.804 105.467 37.4056 105.31C37.0572 105.166 36.6723 105.085 36.2575 105.062C36.1186 105.046 35.9784 105.033 35.8369 105.023L39.9755 94.27H60.8588L65.0777 105.008C64.8372 105.018 64.5967 105.036 64.3563 105.061C63.9386 105.085 63.5455 105.166 63.181 105.308L63.181 105.308L63.1699 105.312C62.794 105.469 62.476 105.717 62.2178 106.044L62.21 106.054L62.2027 106.065C61.9332 106.444 61.8281 106.926 61.8281 107.454C61.8281 108.125 62.0862 108.71 62.5748 109.186C63.0631 109.662 63.6577 109.909 64.3344 109.909H72.3595C73.0361 109.909 73.6307 109.662 74.1191 109.186C74.6076 108.71 74.8657 108.125 74.8657 107.454C74.8657 106.965 74.7706 106.517 74.5377 106.148C74.3246 105.811 74.0401 105.546 73.6889 105.362C73.3544 105.186 72.9797 105.079 72.5732 105.033C72.1991 104.99 71.8248 104.968 71.4504 104.968C71.2132 104.968 70.976 104.979 70.739 104.999H70.7386H70.7374H70.7362H70.735H70.7337H70.7325H70.7313H70.73H70.7288H70.7276H70.7263H70.7251H70.7239H70.7226H70.7214H70.7202H70.719H70.7177H70.7165H70.7153H70.714H70.7128H70.7116H70.7103H70.7091H70.7078H70.7066H70.7054H70.7041H70.7029H70.7017H70.7004H70.6992H70.698H70.6967H70.6955H70.6943H70.693H70.6918H70.6905H70.6893H70.6881H70.6868H70.6856H70.6843H70.6831H70.6819H70.6806H70.6794H70.6781H70.6769H70.6757H70.6744H70.6732H70.6719H70.6707H70.6695H70.6682H70.667H70.6657H70.6645H70.6632H70.662H70.6608H70.6595H70.6583H70.657H70.6558H70.6545H70.6533H70.652H70.6508H70.6495H70.6483H70.6471H70.6458H70.6446H70.6433H70.6421H70.6408H70.6396H70.6383H70.6371H70.6358H70.6346H70.6333H70.6321H70.6308H70.6296H70.6283H70.6271H70.6258H70.6246H70.6233H70.6221H70.6208H70.6196H70.6183H70.6171H70.6158H70.6146H70.6133H70.6121H70.6108H70.6096H70.6083H70.607H70.6058H70.6045H70.6033H70.602H70.6008H70.5995H70.5983H70.597H70.5957H70.5945H70.5932H70.592H70.5907H70.5895H70.5882H70.5869H70.5857H70.5844H70.5832H70.5819H70.5807H70.5794H70.5781H70.5769H70.5756H70.5744H70.5731H70.5718H70.5706H70.5693H70.5681H70.5668H70.5655H70.5643H70.563H70.5617H70.5605H70.5592H70.5579H70.5567H70.5554H70.5542H70.5529H70.5516H70.5504H70.5491H70.5478H70.5466H70.5453H70.544H70.5428H70.5415H70.5402H70.539H70.5377H70.5364H70.5352H70.5339H70.5326H70.5314H70.5301H70.5288H70.5276H70.5263H70.525H70.5237H70.5225H70.5212H70.5199H70.5187H70.5174H70.5161H70.5149H70.5136H70.5123H70.511H70.5098H70.5085H70.5072H70.5059H70.5047H70.5034H70.5021H70.5008H70.4996H70.4983H70.497H70.4958H70.4945H70.4932H70.4919H70.4906H70.4894H70.4881H70.4868H70.4855H70.4843H70.483H70.4817H70.4804H70.4792H70.4779H70.4766H70.4753H70.474H70.4728H70.4715H70.4702H70.4689H70.4676H70.4664H70.4651H70.4638H70.4625H70.4612H70.4599H70.4587H70.4574H70.4561H70.4548H70.4535H70.4523H70.451H70.4497H70.4484H70.4471H70.4458H70.4445H70.4433L52.6391 59.6585C52.6387 59.6575 52.6383 59.6564 52.6379 59.6554C52.4531 59.1687 52.1333 58.7799 51.6915 58.4998C51.273 58.221 50.8012 58.0831 50.2905 58.0831C49.769 58.0831 49.285 58.2373 48.8499 58.5359C48.4282 58.819 48.1241 59.208 47.9425 59.6877C47.9423 59.6882 47.9421 59.6886 47.9419 59.6891L30.5114 104.999H30.5104H30.5089H30.5075H30.506H30.5045H30.5031H30.5016H30.5001H30.4987H30.4972H30.4957H30.4943H30.4928H30.4913H30.4899H30.4884H30.4869H30.4854H30.484H30.4825H30.481H30.4795H30.4781H30.4766H30.4751H30.4736H30.4722H30.4707H30.4692H30.4677H30.4663H30.4648H30.4633H30.4618H30.4603H30.4589H30.4574H30.4559H30.4544H30.4529H30.4515H30.45H30.4485H30.447H30.4455H30.444H30.4425H30.4411H30.4396H30.4381H30.4366H30.4351H30.4336H30.4321H30.4306H30.4291H30.4277H30.4262H30.4247H30.4232H30.4217H30.4202H30.4187H30.4172H30.4157H30.4142H30.4127H30.4112H30.4097H30.4082H30.4067H30.4052H30.4037H30.4022H30.4007H30.3992H30.3977H30.3962H30.3947H30.3932H30.3917H30.3902H30.3887H30.3872H30.3857H30.3842H30.3827H30.3812H30.3797H30.3782H30.3767H30.3752H30.3737H30.3722H30.3707H30.3691H30.3676H30.3661H30.3646H30.3631H30.3616H30.3601H30.3586H30.3571H30.3555H30.354H30.3525H30.351H30.3495H30.348H30.3464H30.3449H30.3434H30.3419H30.3404H30.3389H30.3373H30.3358H30.3343H30.3328H30.3313H30.3297H30.3282H30.3267H30.3252H30.3236H30.3221H30.3206H30.3191H30.3175H30.316H30.3145H30.313H30.3114H30.3099H30.3084H30.3069H30.3053H30.3038H30.3023H30.3007H30.2992H30.2977H30.2961H30.2946H30.2931H30.2915H30.29H30.2885H30.2869H30.2854H30.2839H30.2823H30.2808H30.2792H30.2777H30.2762H30.2746H30.2731H30.2716H30.27H30.2685H30.2669H30.2654H30.2638H30.2623H30.2608H30.2592H30.2577H30.2561H30.2546H30.253H30.2515H30.2499H30.2484H30.2468H30.2453H30.2438H30.2422H30.2407H30.2391H30.2376H30.236H30.2344H30.2329H30.2313H30.2298H30.2282H30.2267H30.2251H30.2236H30.222H30.2205H30.2189H30.2174H30.2158H30.2142H30.2127H30.2111H30.2096H30.208H30.2064H30.2049H30.2033H30.2018H30.2002H30.1986H30.1971H30.1955H30.1939H30.1924H30.1908H30.1892H30.1877H30.1861H30.1845H30.183H30.1814H30.1798H30.1783H30.1767H30.1751H30.1736H30.172H30.1704H30.1689H30.1673H30.1657H30.1641H30.1626H30.161H30.1594H30.1578H30.1563H30.1547H30.1531H30.1515H30.15H30.1484H30.1468H30.1452H30.1436H30.1421H30.1405H30.1389H30.1373H30.1357H30.1342H30.1326H30.131H30.1294H30.1278H30.1262H30.1247H30.1231H30.1215H30.1209C29.8418 104.978 29.5534 104.968 29.256 104.968C28.8618 104.968 28.477 104.99 28.1019 105.033C27.6959 105.079 27.3164 105.185 26.9681 105.355C26.6004 105.534 26.2952 105.793 26.0585 106.126ZM58.9301 89.3603H41.8659L50.3258 67.4446L58.9301 89.3603Z" fill="url(#paint5_linear_1_2)" stroke="#FE651F"/>
<rect x="89.8809" y="58.5831" width="68.2132" height="5.35005" rx="2.67503" fill="#494949"/>
<rect x="89.8809" y="99.511" width="68.2132" height="5.35005" rx="2.67503" fill="#494949"/>
<rect x="89.8809" y="85.8683" width="68.2132" height="5.35005" rx="2.67503" fill="#494949"/>
<rect x="89.8809" y="72.2257" width="68.2132" height="5.35005" rx="2.67503" fill="#494949"/>
</g>
<defs>
<filter id="filter0_f_1_2" x="-15" y="22" width="210" height="232" filterUnits="userSpaceOnUse" color-interpolation-filters="sRGB">
<feFlood flood-opacity="0" result="BackgroundImageFix"/>
<feBlend mode="normal" in="SourceGraphic" in2="BackgroundImageFix" result="shape"/>
<feGaussianBlur stdDeviation="7.5" result="effect1_foregroundBlur_1_2"/>
</filter>
<filter id="filter1_f_1_2" x="-5" y="10" width="184" height="41" filterUnits="userSpaceOnUse" color-interpolation-filters="sRGB">
<feFlood flood-opacity="0" result="BackgroundImageFix"/>
<feBlend mode="normal" in="SourceGraphic" in2="BackgroundImageFix" result="shape"/>
<feGaussianBlur stdDeviation="9" result="effect1_foregroundBlur_1_2"/>
</filter>
<filter id="filter2_d_1_2" x="-36" y="-15" width="251.762" height="109.183" filterUnits="userSpaceOnUse" color-interpolation-filters="sRGB">
<feFlood flood-opacity="0" result="BackgroundImageFix"/>
<feColorMatrix in="SourceAlpha" type="matrix" values="0 0 0 0 0 0 0 0 0 0 0 0 0 0 0 0 0 0 127 0" result="hardAlpha"/>
<feOffset dy="21"/>
<feGaussianBlur stdDeviation="18"/>
<feComposite in2="hardAlpha" operator="out"/>
<feColorMatrix type="matrix" values="0 0 0 0 0 0 0 0 0 0 0 0 0 0 0 0 0 0 0.1 0"/>
<feBlend mode="normal" in2="BackgroundImageFix" result="effect1_dropShadow_1_2"/>
<feBlend mode="normal" in="SourceGraphic" in2="effect1_dropShadow_1_2" result="shape"/>
</filter>
<linearGradient id="paint0_linear_1_2" x1="89.8809" y1="18.4577" x2="89.8809" y2="256" gradientUnits="userSpaceOnUse">
<stop stop-color="#FEFEFE"/>
<stop offset="1" stop-color="#E8E8E8"/>
</linearGradient>
<linearGradient id="paint1_linear_1_2" x1="157.039" y1="133.545" x2="79.4948" y2="246.837" gradientUnits="userSpaceOnUse">
<stop stop-color="#8C8C8C" stop-opacity="0.47"/>
<stop offset="1" stop-color="#919191" stop-opacity="0.14"/>
</linearGradient>
<radialGradient id="paint2_radial_1_2" cx="0" cy="0" r="1" gradientUnits="userSpaceOnUse" gradientTransform="translate(20.5767 63.8873) rotate(59.0289) scale(328.468 271.116)">
<stop stop-color="#FEFEFE"/>
<stop offset="1" stop-color="#DFDFDF"/>
</radialGradient>
<linearGradient id="paint3_linear_1_2" x1="157.039" y1="128.102" x2="84.5198" y2="239.312" gradientUnits="userSpaceOnUse">
<stop stop-color="#8C8C8C" stop-opacity="0.47"/>
<stop offset="1" stop-color="#919191" stop-opacity="0.14"/>
</linearGradient>
<linearGradient id="paint4_linear_1_2" x1="191.264" y1="37.1829" x2="181.032" y2="-22.5891" gradientUnits="userSpaceOnUse">
<stop stop-color="#3769C9"/>
<stop offset="1" stop-color="#2697FF"/>
</linearGradient>
<linearGradient id="paint5_linear_1_2" x1="26.2153" y1="46.278" x2="73.162" y2="111.415" gradientUnits="userSpaceOnUse">
<stop stop-color="#FFA375"/>
<stop offset="1" stop-color="#FE651F"/>
</linearGradient>
<clipPath id="clip0_1_2">
<rect width="179.762" height="256" fill="white"/>
</clipPath>
</defs>
</svg>
