<svg width="17" height="13" viewBox="0 0 17 13" fill="none" xmlns="http://www.w3.org/2000/svg">
<path d="M1.31707 11.1553C1.18425 11.1553 1.06931 11.1067 0.97225 11.0097C0.87519 10.9126 0.82666 10.7977 0.82666 10.6649C0.82666 10.532 0.87519 10.4171 0.97225 10.32C1.06931 10.223 1.18425 10.1745 1.31707 10.1745H10.1444C10.2772 10.1745 10.3921 10.223 10.4892 10.32C10.5863 10.4171 10.6348 10.532 10.6348 10.6649C10.6348 10.7977 10.5863 10.9126 10.4892 11.0097C10.3921 11.1067 10.2772 11.1553 10.1444 11.1553H1.31707Z" fill="black"/>
<path d="M0.97225 1.33522C1.06931 1.43228 1.18425 1.48081 1.31707 1.48081H16.0293C16.1621 1.48081 16.277 1.43228 16.3741 1.33522C16.4711 1.23816 16.5197 1.12323 16.5197 0.990407C16.5197 0.857588 16.4711 0.742649 16.3741 0.645589C16.277 0.54853 16.1621 0.5 16.0293 0.5H1.31707C1.18425 0.5 1.06931 0.54853 0.97225 0.645589C0.87519 0.742649 0.82666 0.857588 0.82666 0.990407C0.82666 1.12323 0.87519 1.23816 0.97225 1.33522Z" fill="black"/>
<rect x="11.783" y="2.95203" width="4.90407" height="0.980813" rx="0.490407" fill="black"/>
<rect x="15.7063" y="2.95203" width="9.80813" height="0.980813" rx="0.490407" transform="rotate(90 15.7063 2.95203)" fill="black"/>
<path d="M8.53352 5.40404C8.53352 5.67489 8.31395 5.89445 8.04311 5.89445L1.17742 5.89445C0.906575 5.89445 0.687012 5.67489 0.687012 5.40404V5.40404C0.687012 5.1332 0.906574 4.91364 1.17742 4.91364H8.04311C8.31395 4.91364 8.53352 5.1332 8.53352 5.40404V5.40404V5.40404Z" fill="black"/>
<rect x="13.7446" y="2.95203" width="9.80813" height="0.980813" rx="0.490407" transform="rotate(90 13.7446 2.95203)" fill="black"/>
<path d="M12.7637 8.34651C11.1387 8.34651 9.82129 7.51954 9.82129 5.89448C9.82129 4.26942 10.6483 3.44244 12.2733 3.44244" stroke="black"/>
</svg>
