<svg viewBox="0 0 16 16" fill="none" xmlns="http://www.w3.org/2000/svg">
<path d="M8.81424 0.953101C8.92882 1.04685 8.99132 1.16143 9.00174 1.29685C9.01215 1.43227 8.97049 1.55206 8.87674 1.65623L5.15799 5.99998L8.51736 9.90623C8.41319 10.0521 8.31944 10.2083 8.23611 10.375C8.15278 10.5416 8.09028 10.7239 8.04861 10.9219L4.50174 6.7656L0.876736 10.9844C0.782986 11.0989 0.668403 11.1614 0.532986 11.1719C0.397569 11.1823 0.277778 11.1406 0.173611 11.0469C0.0694444 10.9531 0.0121528 10.8385 0.00173611 10.7031C-0.00868056 10.5677 0.0277778 10.4479 0.111111 10.3437L3.84549 5.99998L0.111111 1.65623C0.0277778 1.55206 -0.00868056 1.43227 0.00173611 1.29685C0.0121528 1.16143 0.0694444 1.04685 0.173611 0.953101C0.277778 0.859351 0.397569 0.817684 0.532986 0.828101C0.668403 0.838517 0.782986 0.901017 0.876736 1.0156L4.50174 5.23435L8.11111 1.0156C8.20486 0.901017 8.31944 0.838517 8.45486 0.828101C8.59028 0.817684 8.71007 0.859351 8.81424 0.953101ZM9.65799 8.34373C9.65799 8.16664 9.72049 8.01039 9.84549 7.87498C9.9809 7.73956 10.1372 7.67185 10.3142 7.67185C10.4497 7.67185 10.5694 7.69789 10.6736 7.74998C10.7778 7.80206 10.8611 7.86977 10.9236 7.9531C10.9653 8.02602 10.9861 8.12498 10.9861 8.24998C10.9965 8.36456 10.9549 8.51039 10.8611 8.68748C10.809 8.77081 10.7413 8.85414 10.658 8.93748C10.5851 9.01039 10.4965 9.08852 10.3924 9.17185C10.3507 9.21352 10.2986 9.25518 10.2361 9.29685C10.184 9.3281 10.1267 9.36456 10.0642 9.40623L10.0174 9.43748C9.96528 9.47914 9.91319 9.52081 9.86111 9.56248C9.80903 9.59373 9.75694 9.63018 9.70486 9.67185C9.45486 9.85935 9.21528 10.0937 8.98611 10.375C8.76736 10.6562 8.65799 11.0312 8.65799 11.5C8.65799 11.6354 8.70486 11.7552 8.79861 11.8594C8.90278 11.9531 9.02257 12 9.15799 12H11.4705C11.6059 12 11.7205 11.9531 11.8142 11.8594C11.9184 11.7552 11.9705 11.6354 11.9705 11.5C11.9705 11.3646 11.9184 11.25 11.8142 11.1562C11.7205 11.0521 11.6059 11 11.4705 11H9.78299C9.83507 10.9062 9.90278 10.8177 9.98611 10.7344C10.0799 10.651 10.1892 10.5625 10.3142 10.4687C10.3559 10.4375 10.3976 10.4062 10.4392 10.375C10.4913 10.3333 10.5434 10.2969 10.5955 10.2656L10.6424 10.2344C10.7049 10.1823 10.7674 10.1354 10.8299 10.0937C10.8924 10.0521 10.9549 10.0052 11.0174 9.9531C11.1424 9.85935 11.2674 9.74998 11.3924 9.62498C11.5174 9.49998 11.6267 9.35414 11.7205 9.18748C11.908 8.87498 12.0017 8.56248 12.0017 8.24998C12.0017 7.93748 11.9184 7.65623 11.7517 7.40623C11.5955 7.16664 11.3872 6.98435 11.1267 6.85935C10.8767 6.73435 10.6059 6.67185 10.3142 6.67185C9.82465 6.67185 9.42361 6.84893 9.11111 7.2031C8.80903 7.54685 8.65799 7.92706 8.65799 8.34373C8.65799 8.48956 8.70486 8.60935 8.79861 8.7031C8.90278 8.79685 9.02257 8.84373 9.15799 8.84373C9.30382 8.84373 9.42361 8.79685 9.51736 8.7031C9.61111 8.60935 9.65799 8.48956 9.65799 8.34373Z" fill="#005FB7"/>
<path d="M8.81424 0.953101C8.92882 1.04685 8.99132 1.16143 9.00174 1.29685C9.01215 1.43227 8.97049 1.55206 8.87674 1.65623L5.15799 5.99998L8.51736 9.90623C8.41319 10.0521 8.31944 10.2083 8.23611 10.375C8.15278 10.5416 8.09028 10.7239 8.04861 10.9219L4.50174 6.7656L0.876736 10.9844C0.782986 11.0989 0.668403 11.1614 0.532986 11.1719C0.397569 11.1823 0.277778 11.1406 0.173611 11.0469C0.0694444 10.9531 0.0121528 10.8385 0.00173611 10.7031C-0.00868056 10.5677 0.0277778 10.4479 0.111111 10.3437L3.84549 5.99998L0.111111 1.65623C0.0277778 1.55206 -0.00868056 1.43227 0.00173611 1.29685C0.0121528 1.16143 0.0694444 1.04685 0.173611 0.953101C0.277778 0.859351 0.397569 0.817684 0.532986 0.828101C0.668403 0.838517 0.782986 0.901017 0.876736 1.0156L4.50174 5.23435L8.11111 1.0156C8.20486 0.901017 8.31944 0.838517 8.45486 0.828101C8.59028 0.817684 8.71007 0.859351 8.81424 0.953101Z" fill="black" fill-opacity="0.8956"/>
</svg>
