<svg viewBox="0 0 16 16" fill="none" xmlns="http://www.w3.org/2000/svg">
<path d="M15.8298 10.5C15.8298 11.1198 15.71 11.7031 15.4705 12.25C15.2361 12.7969 14.9158 13.2734 14.5095 13.6797C14.1033 14.0859 13.6267 14.4089 13.0798 14.6484C12.533 14.8828 11.9496 15 11.3298 15C10.7048 15 10.1189 14.8828 9.57202 14.6484C9.02515 14.4141 8.54858 14.0938 8.14233 13.6875C7.73608 13.2812 7.41577 12.8047 7.1814 12.2578C6.94702 11.7109 6.82983 11.125 6.82983 10.5C6.82983 9.88021 6.94702 9.29688 7.1814 8.75C7.42098 8.20312 7.7439 7.72656 8.15015 7.32031C8.5564 6.91406 9.03296 6.59375 9.57983 6.35938C10.1267 6.11979 10.71 6 11.3298 6C11.7413 6 12.1371 6.05469 12.5173 6.16406C12.9028 6.26823 13.2621 6.41927 13.5955 6.61719C13.9288 6.8099 14.2335 7.04427 14.5095 7.32031C14.7856 7.59635 15.0199 7.90104 15.2126 8.23438C15.4106 8.56771 15.5616 8.92708 15.6658 9.3125C15.7751 9.69271 15.8298 10.0885 15.8298 10.5ZM12.8298 11C12.9653 11 13.0824 10.9505 13.1814 10.8516C13.2804 10.7526 13.3298 10.6354 13.3298 10.5C13.3298 10.3646 13.2804 10.2474 13.1814 10.1484C13.0824 10.0495 12.9653 10 12.8298 10H11.8298V8.5C11.8298 8.36458 11.7804 8.2474 11.6814 8.14844C11.5824 8.04948 11.4653 8 11.3298 8C11.1944 8 11.0772 8.04948 10.9783 8.14844C10.8793 8.2474 10.8298 8.36458 10.8298 8.5V10.5C10.8298 10.6354 10.8793 10.7526 10.9783 10.8516C11.0772 10.9505 11.1944 11 11.3298 11H12.8298Z" fill="#EECE82"/>
<path d="M6.15015 13C6.23869 13.1771 6.33244 13.349 6.4314 13.5156C6.53556 13.6823 6.64754 13.8438 6.76733 14H3.76733C3.37671 14 3.00171 13.9219 2.64233 13.7656C2.28817 13.6042 1.97567 13.3906 1.70483 13.125C1.43921 12.8542 1.22567 12.5417 1.06421 12.1875C0.907959 11.8281 0.829834 11.4531 0.829834 11.0625V2.9375C0.829834 2.54688 0.907959 2.17448 1.06421 1.82031C1.22567 1.46094 1.43921 1.14844 1.70483 0.882812C1.97567 0.611979 2.28817 0.398438 2.64233 0.242188C3.00171 0.0807292 3.37671 0 3.76733 0H11.8923C12.283 0 12.6554 0.0807292 13.0095 0.242188C13.3689 0.398438 13.6814 0.611979 13.947 0.882812C14.2179 1.14844 14.4314 1.46094 14.5876 1.82031C14.7491 2.17448 14.8298 2.54688 14.8298 2.9375V5.9375C14.6736 5.81771 14.5121 5.70833 14.3455 5.60938C14.1788 5.50521 14.0069 5.40885 13.8298 5.32031V4H1.82983V11.0391C1.82983 11.3099 1.88452 11.5651 1.9939 11.8047C2.10327 12.0391 2.2491 12.2448 2.4314 12.4219C2.61369 12.599 2.82463 12.7396 3.06421 12.8438C3.309 12.9479 3.56421 13 3.82983 13H6.15015ZM3.79077 1C3.52515 1 3.27254 1.05469 3.03296 1.16406C2.79338 1.27344 2.58504 1.41927 2.40796 1.60156C2.23088 1.78385 2.09025 1.9974 1.98608 2.24219C1.88192 2.48177 1.82983 2.73438 1.82983 3H13.8298V2.96094C13.8298 2.70052 13.7751 2.45312 13.6658 2.21875C13.5616 1.97917 13.4184 1.77083 13.2361 1.59375C13.059 1.41146 12.8507 1.26823 12.6111 1.16406C12.3767 1.05469 12.1293 1 11.8689 1H3.79077Z" fill="black" fill-opacity="0.8956"/>
</svg>
