<svg viewBox="0 0 22 22" fill="none" xmlns="http://www.w3.org/2000/svg">
<path d="M21.766 14.4375C21.766 15.2897 21.6012 16.0918 21.2719 16.8438C20.9496 17.5957 20.5092 18.2509 19.9506 18.8096C19.392 19.3681 18.7367 19.8122 17.9847 20.1416C17.2329 20.4639 16.4307 20.625 15.5785 20.625C14.7191 20.625 13.9135 20.4639 13.1615 20.1416C12.4096 19.8194 11.7543 19.379 11.1957 18.8203C10.6371 18.2616 10.1967 17.6065 9.87442 16.8545C9.55215 16.1025 9.39101 15.2969 9.39101 14.4375C9.39101 13.5853 9.55215 12.7832 9.87442 12.0312C10.2038 11.2793 10.6479 10.624 11.2065 10.0654C11.765 9.50683 12.4203 9.06641 13.1723 8.74415C13.9242 8.41471 14.7262 8.25 15.5785 8.25C16.1443 8.25 16.6885 8.3252 17.2113 8.47558C17.7413 8.61882 18.2354 8.8265 18.6938 9.09864C19.1521 9.36361 19.5711 9.68587 19.9506 10.0654C20.3302 10.445 20.6524 10.8639 20.9173 11.3223C21.1896 11.7806 21.3972 12.2747 21.5405 12.8047C21.6908 13.3275 21.766 13.8717 21.766 14.4375ZM17.641 15.125C17.8273 15.125 17.9883 15.0569 18.1244 14.9209C18.2605 14.7848 18.3285 14.6237 18.3285 14.4375C18.3285 14.2513 18.2605 14.0902 18.1244 13.9541C17.9883 13.8181 17.8273 13.75 17.641 13.75H16.266V11.6875C16.266 11.5013 16.198 11.3402 16.0619 11.2041C15.9258 11.068 15.7648 11 15.5785 11C15.3923 11 15.2311 11.068 15.0952 11.2041C14.959 11.3402 14.891 11.5013 14.891 11.6875V14.4375C14.891 14.6237 14.959 14.7848 15.0952 14.9209C15.2311 15.0569 15.3923 15.125 15.5785 15.125H17.641Z" fill="#005FB7"/>
<path d="M1 4H20V5H1V4Z" fill="black" fill-opacity="0.8956"/>
<path d="M5 18.5C5 18.2239 5.22386 18 5.5 18H8.49785C8.49917 18 8.50037 18.0007 8.50096 18.0019L8.99713 18.9943C8.99845 18.9969 8.99653 19 8.99359 19H5.5C5.22386 19 5 18.7761 5 18.5Z" fill="black" fill-opacity="0.8956"/>
<path d="M1.5 15C1.22386 15 1 14.7761 1 14.5V4L2 4V14.5C2 14.7761 1.77614 15 1.5 15Z" fill="black" fill-opacity="0.8956"/>
<path d="M1 14.5L2 14V14.5C2 16.433 3.567 18 5.5 18V19H5C2.79086 19 1 17.2091 1 15V14.5Z" fill="black" fill-opacity="0.8956"/>
<path d="M19 7V4H20V8L19 7Z" fill="black" fill-opacity="0.8956"/>
<path d="M1 4C1 1.79086 2.79086 0 5 0H16C18.2091 0 20 1.79086 20 4H1Z" fill="#CBE6FF"/>
<path fill-rule="evenodd" clip-rule="evenodd" d="M16 1C17.6569 1 19 2.34315 19 4H20C20 1.79086 18.2091 0 16 0H5C2.79086 0 1 1.79086 1 4H2C2 2.34315 3.34315 1 5 1H16Z" fill="black" fill-opacity="0.8956"/>
</svg>
