<svg viewBox="0 0 16 16" fill="none" xmlns="http://www.w3.org/2000/svg">
<path d="M8.95483 2.75C8.78556 2.75 8.63908 2.68815 8.51538 2.56445C8.39168 2.44076 8.32983 2.29427 8.32983 2.125C8.32983 2.01432 8.35913 1.9069 8.41772 1.80273C8.48283 1.69857 8.56746 1.62044 8.67163 1.56836L11.1716 0.318359C11.2563 0.272786 11.3507 0.25 11.4548 0.25C11.559 0.25 11.6534 0.272786 11.738 0.318359L14.238 1.56836C14.3422 1.62044 14.4236 1.69857 14.4822 1.80273C14.5473 1.9069 14.5798 2.01432 14.5798 2.125C14.5798 2.29427 14.518 2.44076 14.3943 2.56445C14.2706 2.68815 14.1241 2.75 13.9548 2.75C13.8507 2.75 13.7563 2.72721 13.6716 2.68164L11.4548 1.57812L9.23804 2.68164C9.1534 2.72721 9.059 2.75 8.95483 2.75ZM0.829834 14.6152C0.829834 14.5306 0.842855 14.459 0.868896 14.4004L5.2439 3.15039C5.29598 3.02669 5.3741 2.92904 5.47827 2.85742C5.58244 2.78581 5.69963 2.75 5.82983 2.75C5.96004 2.75 6.07723 2.78581 6.1814 2.85742C6.28556 2.92904 6.36369 3.02669 6.41577 3.15039L10.7908 14.4004C10.8168 14.459 10.8298 14.5306 10.8298 14.6152C10.8298 14.7845 10.7712 14.9342 10.6541 15.0645C10.5369 15.1882 10.3904 15.25 10.2146 15.25C10.0844 15.25 9.96395 15.2142 9.85327 15.1426C9.7491 15.071 9.67098 14.9733 9.6189 14.8496L8.32007 11.5H3.3396L2.04077 14.8496C1.98869 14.9733 1.90731 15.071 1.79663 15.1426C1.69246 15.2142 1.57528 15.25 1.44507 15.25C1.26929 15.25 1.1228 15.1882 1.00562 15.0645C0.888428 14.9342 0.829834 14.7845 0.829834 14.6152ZM5.82983 5.10352L3.82788 10.25H7.83179L5.82983 5.10352Z" fill="#005FB7"/>
<path d="M0.829834 14.6152C0.829834 14.5306 0.842855 14.459 0.868896 14.4004L5.2439 3.15039C5.29598 3.02669 5.3741 2.92904 5.47827 2.85742C5.58244 2.78581 5.69963 2.75 5.82983 2.75C5.96004 2.75 6.07723 2.78581 6.1814 2.85742C6.28556 2.92904 6.36369 3.02669 6.41577 3.15039L10.7908 14.4004C10.8168 14.459 10.8298 14.5306 10.8298 14.6152C10.8298 14.7845 10.7712 14.9342 10.6541 15.0645C10.5369 15.1882 10.3904 15.25 10.2146 15.25C10.0844 15.25 9.96395 15.2142 9.85327 15.1426C9.7491 15.071 9.67098 14.9733 9.6189 14.8496L8.32007 11.5H3.3396L2.04077 14.8496C1.98869 14.9733 1.90731 15.071 1.79663 15.1426C1.69246 15.2142 1.57528 15.25 1.44507 15.25C1.26929 15.25 1.1228 15.1882 1.00562 15.0645C0.888428 14.9342 0.829834 14.7845 0.829834 14.6152ZM5.82983 5.10352L3.82788 10.25H7.83179L5.82983 5.10352Z" fill="black" fill-opacity="0.8956"/>
</svg>
