<svg viewBox="0 0 16 16" fill="none" xmlns="http://www.w3.org/2000/svg">
<path d="M3.76733 12C3.37671 12 3.00171 11.9219 2.64233 11.7656C2.28817 11.6042 1.97567 11.3906 1.70483 11.125C1.43921 10.8542 1.22567 10.5417 1.06421 10.1875C0.907959 9.82812 0.829834 9.45312 0.829834 9.0625V2.9375C0.829834 2.54688 0.907959 2.17448 1.06421 1.82031C1.22567 1.46094 1.43921 1.14844 1.70483 0.882812C1.97567 0.611979 2.28817 0.398438 2.64233 0.242188C3.00171 0.0807292 3.37671 0 3.76733 0H9.89233C10.283 0 10.6554 0.0807292 11.0095 0.242188C11.3689 0.398438 11.6814 0.611979 11.947 0.882812C12.2179 1.14844 12.4314 1.46094 12.5876 1.82031C12.7491 2.17448 12.8298 2.54688 12.8298 2.9375V9.0625C12.8298 9.45312 12.7491 9.82812 12.5876 10.1875C12.4314 10.5417 12.2179 10.8542 11.947 11.125C11.6814 11.3906 11.3689 11.6042 11.0095 11.7656C10.6554 11.9219 10.283 12 9.89233 12H3.76733ZM6.82983 6.125C7.09546 6.125 7.35067 6.17708 7.59546 6.28125C7.84025 6.38021 8.0564 6.52344 8.2439 6.71094L11.5564 10.0156C11.6449 9.86458 11.7126 9.70312 11.7595 9.53125C11.8064 9.35417 11.8298 9.17708 11.8298 9V2.96094C11.8298 2.70052 11.7751 2.45312 11.6658 2.21875C11.5616 1.97917 11.4184 1.77083 11.2361 1.59375C11.059 1.41146 10.8507 1.26823 10.6111 1.16406C10.3767 1.05469 10.1293 1 9.8689 1H3.79077C3.53035 1 3.28035 1.05469 3.04077 1.16406C2.8064 1.26823 2.59806 1.41146 2.41577 1.59375C2.23869 1.77083 2.09546 1.97917 1.98608 2.21875C1.88192 2.45312 1.82983 2.70052 1.82983 2.96094V9C1.82983 9.17708 1.85327 9.35417 1.90015 9.53125C1.94702 9.70312 2.01473 9.86458 2.10327 10.0156L5.41577 6.71094C5.60327 6.52344 5.81942 6.38021 6.06421 6.28125C6.309 6.17708 6.56421 6.125 6.82983 6.125ZM8.32983 3.5C8.32983 3.35938 8.35588 3.22917 8.40796 3.10938C8.46004 2.98958 8.53035 2.88542 8.6189 2.79688C8.71265 2.70312 8.81942 2.63021 8.93921 2.57812C9.059 2.52604 9.18921 2.5 9.32983 2.5C9.46525 2.5 9.59285 2.52604 9.71265 2.57812C9.83765 2.63021 9.94442 2.70312 10.033 2.79688C10.1267 2.88542 10.1996 2.99219 10.2517 3.11719C10.3038 3.23698 10.3298 3.36458 10.3298 3.5C10.3298 3.64062 10.3038 3.77083 10.2517 3.89062C10.1996 4.01042 10.1267 4.11719 10.033 4.21094C9.94442 4.29948 9.84025 4.36979 9.72046 4.42188C9.60067 4.47396 9.47046 4.5 9.32983 4.5C9.18921 4.5 9.0564 4.47396 8.9314 4.42188C8.8116 4.36979 8.70744 4.29948 8.6189 4.21094C8.53035 4.1224 8.46004 4.01823 8.40796 3.89844C8.35588 3.77344 8.32983 3.64062 8.32983 3.5ZM5.82983 14C5.40275 14 4.9939 13.9141 4.60327 13.7422C4.21265 13.5703 3.87671 13.3229 3.59546 13H10.3845C10.8585 13 11.3038 12.9062 11.7205 12.7188C12.1423 12.5312 12.5095 12.2786 12.822 11.9609C13.1345 11.638 13.3793 11.2656 13.5564 10.8438C13.7387 10.4219 13.8298 9.97396 13.8298 9.5V2.76562C14.1528 3.04688 14.4001 3.38281 14.572 3.77344C14.7439 4.16406 14.8298 4.57292 14.8298 5V9.5C14.8298 10.1198 14.71 10.7031 14.4705 11.25C14.2361 11.7969 13.9158 12.2734 13.5095 12.6797C13.1033 13.0859 12.6267 13.4089 12.0798 13.6484C11.533 13.8828 10.9496 14 10.3298 14H5.82983ZM9.82983 11C10.0069 11 10.1814 10.9766 10.3533 10.9297C10.5304 10.8828 10.6944 10.8151 10.8455 10.7266L7.54077 7.41406C7.34285 7.21615 7.10588 7.11719 6.82983 7.11719C6.55379 7.11719 6.31681 7.21615 6.1189 7.41406L2.81421 10.7266C2.96525 10.8151 3.12671 10.8828 3.29858 10.9297C3.47567 10.9766 3.65275 11 3.82983 11H9.82983Z" fill="#005FB7"/>
<path d="M3.76733 12C3.37671 12 3.00171 11.9219 2.64233 11.7656C2.28817 11.6042 1.97567 11.3906 1.70483 11.125C1.43921 10.8542 1.22567 10.5417 1.06421 10.1875C0.907959 9.82812 0.829834 9.45312 0.829834 9.0625V2.9375C0.829834 2.54688 0.907959 2.17448 1.06421 1.82031C1.22567 1.46094 1.43921 1.14844 1.70483 0.882812C1.97567 0.611979 2.28817 0.398438 2.64233 0.242188C3.00171 0.0807292 3.37671 0 3.76733 0H9.89233C10.283 0 10.6554 0.0807292 11.0095 0.242188C11.3689 0.398438 11.6814 0.611979 11.947 0.882812C12.2179 1.14844 12.4314 1.46094 12.5876 1.82031C12.7491 2.17448 12.8298 2.54688 12.8298 2.9375V9.0625C12.8298 9.45312 12.7491 9.82812 12.5876 10.1875C12.4314 10.5417 12.2179 10.8542 11.947 11.125C11.6814 11.3906 11.3689 11.6042 11.0095 11.7656C10.6554 11.9219 10.283 12 9.89233 12H3.76733ZM6.82983 6.125C7.09546 6.125 7.35067 6.17708 7.59546 6.28125C7.84025 6.38021 8.0564 6.52344 8.2439 6.71094L11.5564 10.0156C11.6449 9.86458 11.7126 9.70312 11.7595 9.53125C11.8064 9.35417 11.8298 9.17708 11.8298 9V2.96094C11.8298 2.70052 11.7751 2.45312 11.6658 2.21875C11.5616 1.97917 11.4184 1.77083 11.2361 1.59375C11.059 1.41146 10.8507 1.26823 10.6111 1.16406C10.3767 1.05469 10.1293 1 9.8689 1H3.79077C3.53035 1 3.28035 1.05469 3.04077 1.16406C2.8064 1.26823 2.59806 1.41146 2.41577 1.59375C2.23869 1.77083 2.09546 1.97917 1.98608 2.21875C1.88192 2.45312 1.82983 2.70052 1.82983 2.96094V9C1.82983 9.17708 1.85327 9.35417 1.90015 9.53125C1.94702 9.70312 2.01473 9.86458 2.10327 10.0156L5.41577 6.71094C5.60327 6.52344 5.81942 6.38021 6.06421 6.28125C6.309 6.17708 6.56421 6.125 6.82983 6.125ZM8.32983 3.5C8.32983 3.35938 8.35588 3.22917 8.40796 3.10938C8.46004 2.98958 8.53035 2.88542 8.6189 2.79688C8.71265 2.70312 8.81942 2.63021 8.93921 2.57812C9.059 2.52604 9.18921 2.5 9.32983 2.5C9.46525 2.5 9.59285 2.52604 9.71265 2.57812C9.83765 2.63021 9.94442 2.70312 10.033 2.79688C10.1267 2.88542 10.1996 2.99219 10.2517 3.11719C10.3038 3.23698 10.3298 3.36458 10.3298 3.5C10.3298 3.64062 10.3038 3.77083 10.2517 3.89062C10.1996 4.01042 10.1267 4.11719 10.033 4.21094C9.94442 4.29948 9.84025 4.36979 9.72046 4.42188C9.60067 4.47396 9.47046 4.5 9.32983 4.5C9.18921 4.5 9.0564 4.47396 8.9314 4.42188C8.8116 4.36979 8.70744 4.29948 8.6189 4.21094C8.53035 4.1224 8.46004 4.01823 8.40796 3.89844C8.35588 3.77344 8.32983 3.64062 8.32983 3.5ZM9.82983 11C10.0069 11 10.1814 10.9766 10.3533 10.9297C10.5304 10.8828 10.6944 10.8151 10.8455 10.7266L7.54077 7.41406C7.34285 7.21615 7.10588 7.11719 6.82983 7.11719C6.55379 7.11719 6.31681 7.21615 6.1189 7.41406L2.81421 10.7266C2.96525 10.8151 3.12671 10.8828 3.29858 10.9297C3.47567 10.9766 3.65275 11 3.82983 11H9.82983Z" fill="black" fill-opacity="0.8956"/>
</svg>
