<svg fill="none" xmlns="http://www.w3.org/2000/svg">
<path d="M0.829834 1.5C0.829834 1.35938 0.855876 1.22917 0.907959 1.10938C0.960042 0.989583 1.03035 0.885417 1.1189 0.796875C1.21265 0.703125 1.31942 0.630208 1.43921 0.578125C1.559 0.526042 1.68921 0.5 1.82983 0.5C1.96525 0.5 2.09285 0.526042 2.21265 0.578125C2.33765 0.630208 2.44442 0.703125 2.53296 0.796875C2.62671 0.885417 2.69963 0.992188 2.75171 1.11719C2.80379 1.23698 2.82983 1.36458 2.82983 1.5C2.82983 1.64062 2.80379 1.77083 2.75171 1.89062C2.69963 2.01042 2.62671 2.11719 2.53296 2.21094C2.44442 2.29948 2.34025 2.36979 2.22046 2.42188C2.10067 2.47396 1.97046 2.5 1.82983 2.5C1.68921 2.5 1.5564 2.47396 1.4314 2.42188C1.3116 2.36979 1.20744 2.29948 1.1189 2.21094C1.03035 2.1224 0.960042 2.01823 0.907959 1.89844C0.855876 1.77344 0.829834 1.64062 0.829834 1.5ZM5.32983 2C5.19442 2 5.07723 1.95052 4.97827 1.85156C4.87931 1.7526 4.82983 1.63542 4.82983 1.5C4.82983 1.36458 4.87931 1.2474 4.97827 1.14844C5.07723 1.04948 5.19442 1 5.32983 1H16.3298C16.4653 1 16.5824 1.04948 16.6814 1.14844C16.7804 1.2474 16.8298 1.36458 16.8298 1.5C16.8298 1.63542 16.7804 1.7526 16.6814 1.85156C16.5824 1.95052 16.4653 2 16.3298 2H5.32983ZM0.829834 5.5C0.829834 5.35938 0.855876 5.22917 0.907959 5.10938C0.960042 4.98958 1.03035 4.88542 1.1189 4.79688C1.21265 4.70312 1.31942 4.63021 1.43921 4.57812C1.559 4.52604 1.68921 4.5 1.82983 4.5C1.96525 4.5 2.09285 4.52604 2.21265 4.57812C2.33765 4.63021 2.44442 4.70312 2.53296 4.79688C2.62671 4.88542 2.69963 4.99219 2.75171 5.11719C2.80379 5.23698 2.82983 5.36458 2.82983 5.5C2.82983 5.64062 2.80379 5.77083 2.75171 5.89062C2.69963 6.01042 2.62671 6.11719 2.53296 6.21094C2.44442 6.29948 2.34025 6.36979 2.22046 6.42188C2.10067 6.47396 1.97046 6.5 1.82983 6.5C1.68921 6.5 1.5564 6.47396 1.4314 6.42188C1.3116 6.36979 1.20744 6.29948 1.1189 6.21094C1.03035 6.1224 0.960042 6.01823 0.907959 5.89844C0.855876 5.77344 0.829834 5.64062 0.829834 5.5ZM5.32983 6C5.19442 6 5.07723 5.95052 4.97827 5.85156C4.87931 5.7526 4.82983 5.63542 4.82983 5.5C4.82983 5.36458 4.87931 5.2474 4.97827 5.14844C5.07723 5.04948 5.19442 5 5.32983 5H16.3298C16.4653 5 16.5824 5.04948 16.6814 5.14844C16.7804 5.2474 16.8298 5.36458 16.8298 5.5C16.8298 5.63542 16.7804 5.7526 16.6814 5.85156C16.5824 5.95052 16.4653 6 16.3298 6H5.32983ZM0.829834 9.5C0.829834 9.35938 0.855876 9.22917 0.907959 9.10938C0.960042 8.98958 1.03035 8.88542 1.1189 8.79688C1.21265 8.70312 1.31942 8.63021 1.43921 8.57812C1.559 8.52604 1.68921 8.5 1.82983 8.5C1.96525 8.5 2.09285 8.52604 2.21265 8.57812C2.33765 8.63021 2.44442 8.70312 2.53296 8.79688C2.62671 8.88542 2.69963 8.99219 2.75171 9.11719C2.80379 9.23698 2.82983 9.36458 2.82983 9.5C2.82983 9.64062 2.80379 9.77083 2.75171 9.89062C2.69963 10.0104 2.62671 10.1172 2.53296 10.2109C2.44442 10.2995 2.34025 10.3698 2.22046 10.4219C2.10067 10.474 1.97046 10.5 1.82983 10.5C1.68921 10.5 1.5564 10.474 1.4314 10.4219C1.3116 10.3698 1.20744 10.2995 1.1189 10.2109C1.03035 10.1224 0.960042 10.0182 0.907959 9.89844C0.855876 9.77344 0.829834 9.64062 0.829834 9.5ZM5.32983 10C5.19442 10 5.07723 9.95052 4.97827 9.85156C4.87931 9.7526 4.82983 9.63542 4.82983 9.5C4.82983 9.36458 4.87931 9.2474 4.97827 9.14844C5.07723 9.04948 5.19442 9 5.32983 9H16.3298C16.4653 9 16.5824 9.04948 16.6814 9.14844C16.7804 9.2474 16.8298 9.36458 16.8298 9.5C16.8298 9.63542 16.7804 9.7526 16.6814 9.85156C16.5824 9.95052 16.4653 10 16.3298 10H5.32983Z" fill="#005FB7"/>
<path d="M5.32983 2C5.19442 2 5.07723 1.95052 4.97827 1.85156C4.87931 1.7526 4.82983 1.63542 4.82983 1.5C4.82983 1.36458 4.87931 1.2474 4.97827 1.14844C5.07723 1.04948 5.19442 1 5.32983 1H16.3298C16.4653 1 16.5824 1.04948 16.6814 1.14844C16.7804 1.2474 16.8298 1.36458 16.8298 1.5C16.8298 1.63542 16.7804 1.7526 16.6814 1.85156C16.5824 1.95052 16.4653 2 16.3298 2H5.32983ZM5.32983 6C5.19442 6 5.07723 5.95052 4.97827 5.85156C4.87931 5.7526 4.82983 5.63542 4.82983 5.5C4.82983 5.36458 4.87931 5.2474 4.97827 5.14844C5.07723 5.04948 5.19442 5 5.32983 5H16.3298C16.4653 5 16.5824 5.04948 16.6814 5.14844C16.7804 5.2474 16.8298 5.36458 16.8298 5.5C16.8298 5.63542 16.7804 5.7526 16.6814 5.85156C16.5824 5.95052 16.4653 6 16.3298 6H5.32983ZM5.32983 10C5.19442 10 5.07723 9.95052 4.97827 9.85156C4.87931 9.7526 4.82983 9.63542 4.82983 9.5C4.82983 9.36458 4.87931 9.2474 4.97827 9.14844C5.07723 9.04948 5.19442 9 5.32983 9H16.3298C16.4653 9 16.5824 9.04948 16.6814 9.14844C16.7804 9.2474 16.8298 9.36458 16.8298 9.5C16.8298 9.63542 16.7804 9.7526 16.6814 9.85156C16.5824 9.95052 16.4653 10 16.3298 10H5.32983Z" fill="black" fill-opacity="0.8956"/>
</svg>
