<svg viewBox="0 0 16 16" fill="none" xmlns="http://www.w3.org/2000/svg">
<path d="M5.32983 1C5.19442 1 5.07723 0.950521 4.97827 0.851562C4.87931 0.752604 4.82983 0.635417 4.82983 0.5C4.82983 0.364583 4.87931 0.247396 4.97827 0.148438C5.07723 0.0494792 5.19442 0 5.32983 0H13.3298C13.4653 0 13.5824 0.0494792 13.6814 0.148438C13.7804 0.247396 13.8298 0.364583 13.8298 0.5C13.8298 0.635417 13.7804 0.752604 13.6814 0.851562C13.5824 0.950521 13.4653 1 13.3298 1H5.32983ZM5.32983 6C5.19442 6 5.07723 5.95052 4.97827 5.85156C4.87931 5.7526 4.82983 5.63542 4.82983 5.5C4.82983 5.36458 4.87931 5.2474 4.97827 5.14844C5.07723 5.04948 5.19442 5 5.32983 5H16.3298C16.4653 5 16.5824 5.04948 16.6814 5.14844C16.7804 5.2474 16.8298 5.36458 16.8298 5.5C16.8298 5.63542 16.7804 5.7526 16.6814 5.85156C16.5824 5.95052 16.4653 6 16.3298 6H5.32983ZM5.32983 11C5.19442 11 5.07723 10.9505 4.97827 10.8516C4.87931 10.7526 4.82983 10.6354 4.82983 10.5C4.82983 10.3646 4.87931 10.2474 4.97827 10.1484C5.07723 10.0495 5.19442 10 5.32983 10H11.3298C11.4653 10 11.5824 10.0495 11.6814 10.1484C11.7804 10.2474 11.8298 10.3646 11.8298 10.5C11.8298 10.6354 11.7804 10.7526 11.6814 10.8516C11.5824 10.9505 11.4653 11 11.3298 11H5.32983Z" fill="black" fill-opacity="0.8956"/>
<path d="M0.829834 5.5C0.829834 5.36458 0.879313 5.2474 0.978271 5.14844L2.39233 3.73438C2.49129 3.63542 2.60848 3.58594 2.7439 3.58594C2.87931 3.58594 2.9965 3.63542 3.09546 3.73438C3.19442 3.83333 3.2439 3.95052 3.2439 4.08594C3.2439 4.22135 3.19442 4.33854 3.09546 4.4375L2.04077 5.5L3.09546 6.5625C3.19442 6.66146 3.2439 6.77865 3.2439 6.91406C3.2439 7.04948 3.19442 7.16667 3.09546 7.26562C2.9965 7.36458 2.87931 7.41406 2.7439 7.41406C2.60848 7.41406 2.49129 7.36458 2.39233 7.26562L0.978271 5.85156C0.879313 5.7526 0.829834 5.63542 0.829834 5.5Z" fill="#005FB7"/>

</svg>
