<svg viewBox="0 0 16 16" fill="none" xmlns="http://www.w3.org/2000/svg">
<path d="M0 11.9356V4.0644C0 3.91415 0.0234371 3.76392 0.0703122 3.61369C0.117187 3.46345 0.182296 3.32663 0.265627 3.20322C0.348957 3.07445 0.447917 2.96178 0.562497 2.86519C0.677088 2.76325 0.804688 2.68277 0.945318 2.62375L6.70314 0.257546C7.12501 0.0858482 7.55731 0 8.00001 0C8.44272 0 8.87502 0.0858482 9.29689 0.257546L15.0547 2.62375C15.1953 2.68277 15.323 2.76325 15.4375 2.86519C15.5521 2.96178 15.6511 3.07445 15.7344 3.20322C15.8177 3.32663 15.8828 3.46345 15.9297 3.61369C15.9766 3.76392 16 3.91415 16 4.0644V11.9356C16 12.0913 15.9766 12.2442 15.9297 12.3944C15.8828 12.5392 15.8177 12.6761 15.7344 12.8049C15.6511 12.9283 15.5521 13.0409 15.4375 13.1429C15.323 13.2448 15.1953 13.3227 15.0547 13.3763L9.29689 15.7425C8.87502 15.9142 8.44272 16 8.00001 16C7.55731 16 7.12501 15.9142 6.70314 15.7425L0.945318 13.3763C0.804688 13.3227 0.677088 13.2448 0.562497 13.1429C0.447917 13.0409 0.348957 12.9283 0.265627 12.8049C0.182296 12.6761 0.117187 12.5392 0.0703122 12.3944C0.0234371 12.2442 0 12.0913 0 11.9356ZM8.00001 14.9698C8.32814 14.9698 8.63803 14.9108 8.9297 14.7928L14.6875 12.4186C14.7813 12.3756 14.8568 12.3112 14.9141 12.2254C14.9714 12.1395 15 12.043 15 11.9356V4.0644C15 3.95708 14.9714 3.8605 14.9141 3.77466C14.8568 3.6888 14.7813 3.62441 14.6875 3.5815L8.9297 1.20725C8.62762 1.08384 8.31772 1.02213 8.00001 1.02213C7.68231 1.02213 7.37241 1.08384 7.07033 1.20725L1.3125 3.5815C1.21875 3.62441 1.14323 3.6888 1.08594 3.77466C1.02865 3.8605 0.999998 3.95708 0.999998 4.0644V11.9356C0.999998 12.043 1.02865 12.1395 1.08594 12.2254C1.14323 12.3112 1.21875 12.3756 1.3125 12.4186L7.07033 14.7928C7.36199 14.9108 7.67189 14.9698 8.00001 14.9698Z" fill="black" fill-opacity="0.8956"/>
<path d="M7.5 6.82812L3.29688 4.95312C3.20834 4.91146 3.13542 4.85156 3.07813 4.77344C3.02605 4.69531 3 4.60417 3 4.5C3 4.36458 3.04688 4.2474 3.14063 4.14844C3.23959 4.04948 3.35677 4 3.49219 4C3.5599 4 3.63021 4.01562 3.70313 4.04688L8 5.95312L12.2969 4.04688C12.3594 4.01562 12.4271 4 12.5 4C12.6355 4 12.7526 4.04948 12.8516 4.14844C12.9506 4.2474 13 4.36458 13 4.5C13 4.60417 12.9714 4.69531 12.9141 4.77344C12.862 4.85156 12.7917 4.91146 12.7032 4.95312L8.5 6.82812V11.5C8.5 11.6354 8.45052 11.7526 8.35157 11.8516C8.25261 11.9505 8.13542 12 8 12C7.86459 12 7.7474 11.9505 7.64844 11.8516C7.54948 11.7526 7.5 11.6354 7.5 11.5V6.82812Z" fill="#039900"/>
</svg>
