<svg viewBox="0 0 16 16" fill="none" xmlns="http://www.w3.org/2000/svg">
<path d="M0.829834 11.8203V4.17969C0.829834 4.03385 0.853271 3.88802 0.900146 3.74219C0.947021 3.59635 1.01213 3.46354 1.09546 3.34375C1.17879 3.21875 1.27775 3.10938 1.39233 3.01562C1.50692 2.91667 1.63452 2.83854 1.77515 2.78125L7.53296 0.484375C7.95483 0.317708 8.38713 0.234375 8.82983 0.234375C9.27254 0.234375 9.70483 0.317708 10.1267 0.484375L15.8845 2.78125C16.0251 2.83854 16.1528 2.91667 16.2673 3.01562C16.3819 3.10938 16.4809 3.21875 16.5642 3.34375C16.6475 3.46354 16.7126 3.59635 16.7595 3.74219C16.8064 3.88802 16.8298 4.03385 16.8298 4.17969V11.8203C16.8298 11.9714 16.8064 12.1198 16.7595 12.2656C16.7126 12.4062 16.6475 12.5391 16.5642 12.6641C16.4809 12.7839 16.3819 12.8932 16.2673 12.9922C16.1528 13.0911 16.0251 13.1667 15.8845 13.2188L10.1267 15.5156C9.70483 15.6823 9.27254 15.7656 8.82983 15.7656C8.38713 15.7656 7.95483 15.6823 7.53296 15.5156L1.77515 13.2188C1.63452 13.1667 1.50692 13.0911 1.39233 12.9922C1.27775 12.8932 1.17879 12.7839 1.09546 12.6641C1.01213 12.5391 0.947021 12.4062 0.900146 12.2656C0.853271 12.1198 0.829834 11.9714 0.829834 11.8203ZM8.82983 14.7656C9.15796 14.7656 9.46785 14.7083 9.75952 14.5938L15.5173 12.2891C15.6111 12.2474 15.6866 12.1849 15.7439 12.1016C15.8012 12.0182 15.8298 11.9245 15.8298 11.8203V4.17969C15.8298 4.07552 15.8012 3.98177 15.7439 3.89844C15.6866 3.8151 15.6111 3.7526 15.5173 3.71094L9.75952 1.40625C9.45744 1.28646 9.14754 1.22656 8.82983 1.22656C8.51213 1.22656 8.20223 1.28646 7.90015 1.40625L2.14233 3.71094C2.04858 3.7526 1.97306 3.8151 1.91577 3.89844C1.85848 3.98177 1.82983 4.07552 1.82983 4.17969V11.8203C1.82983 11.9245 1.85848 12.0182 1.91577 12.1016C1.97306 12.1849 2.04858 12.2474 2.14233 12.2891L7.90015 14.5938C8.19181 14.7083 8.50171 14.7656 8.82983 14.7656ZM8.32983 6.82812L4.12671 4.95312C4.03817 4.91146 3.96525 4.85156 3.90796 4.77344C3.85588 4.69531 3.82983 4.60417 3.82983 4.5C3.82983 4.36458 3.87671 4.2474 3.97046 4.14844C4.06942 4.04948 4.1866 4 4.32202 4C4.38973 4 4.46004 4.01562 4.53296 4.04688L8.82983 5.95312L13.1267 4.04688C13.1892 4.01562 13.2569 4 13.3298 4C13.4653 4 13.5824 4.04948 13.6814 4.14844C13.7804 4.2474 13.8298 4.36458 13.8298 4.5C13.8298 4.60417 13.8012 4.69531 13.7439 4.77344C13.6918 4.85156 13.6215 4.91146 13.533 4.95312L9.32983 6.82812V11.5C9.32983 11.6354 9.28035 11.7526 9.1814 11.8516C9.08244 11.9505 8.96525 12 8.82983 12C8.69442 12 8.57723 11.9505 8.47827 11.8516C8.37931 11.7526 8.32983 11.6354 8.32983 11.5V6.82812Z" fill="black" fill-opacity="0.8956"/>
<path d="M0.829834 11.8203V4.17969C0.829834 4.03385 0.853271 3.88802 0.900146 3.74219C0.947021 3.59635 1.01213 3.46354 1.09546 3.34375C1.17879 3.21875 1.27775 3.10938 1.39233 3.01562C1.50692 2.91667 1.63452 2.83854 1.77515 2.78125L7.53296 0.484375C7.95483 0.317708 8.38713 0.234375 8.82983 0.234375C9.27254 0.234375 9.70483 0.317708 10.1267 0.484375L15.8845 2.78125C16.0251 2.83854 16.1528 2.91667 16.2673 3.01562C16.3819 3.10938 16.4809 3.21875 16.5642 3.34375C16.6475 3.46354 16.7126 3.59635 16.7595 3.74219C16.8064 3.88802 16.8298 4.03385 16.8298 4.17969V11.8203C16.8298 11.9714 16.8064 12.1198 16.7595 12.2656C16.7126 12.4062 16.6475 12.5391 16.5642 12.6641C16.4809 12.7839 16.3819 12.8932 16.2673 12.9922C16.1528 13.0911 16.0251 13.1667 15.8845 13.2188L10.1267 15.5156C9.70483 15.6823 9.27254 15.7656 8.82983 15.7656C8.38713 15.7656 7.95483 15.6823 7.53296 15.5156L1.77515 13.2188C1.63452 13.1667 1.50692 13.0911 1.39233 12.9922C1.27775 12.8932 1.17879 12.7839 1.09546 12.6641C1.01213 12.5391 0.947021 12.4062 0.900146 12.2656C0.853271 12.1198 0.829834 11.9714 0.829834 11.8203ZM8.82983 14.7656C9.15796 14.7656 9.46785 14.7083 9.75952 14.5938L15.5173 12.2891C15.6111 12.2474 15.6866 12.1849 15.7439 12.1016C15.8012 12.0182 15.8298 11.9245 15.8298 11.8203V4.17969C15.8298 4.07552 15.8012 3.98177 15.7439 3.89844C15.6866 3.8151 15.6111 3.7526 15.5173 3.71094L9.75952 1.40625C9.45744 1.28646 9.14754 1.22656 8.82983 1.22656C8.51213 1.22656 8.20223 1.28646 7.90015 1.40625L2.14233 3.71094C2.04858 3.7526 1.97306 3.8151 1.91577 3.89844C1.85848 3.98177 1.82983 4.07552 1.82983 4.17969V11.8203C1.82983 11.9245 1.85848 12.0182 1.91577 12.1016C1.97306 12.1849 2.04858 12.2474 2.14233 12.2891L7.90015 14.5938C8.19181 14.7083 8.50171 14.7656 8.82983 14.7656ZM8.32983 6.82812L4.12671 4.95312C4.03817 4.91146 3.96525 4.85156 3.90796 4.77344C3.85588 4.69531 3.82983 4.60417 3.82983 4.5C3.82983 4.36458 3.87671 4.2474 3.97046 4.14844C4.06942 4.04948 4.1866 4 4.32202 4C4.38973 4 4.46004 4.01562 4.53296 4.04688L8.82983 5.95312L13.1267 4.04688C13.1892 4.01562 13.2569 4 13.3298 4C13.4653 4 13.5824 4.04948 13.6814 4.14844C13.7804 4.2474 13.8298 4.36458 13.8298 4.5C13.8298 4.60417 13.8012 4.69531 13.7439 4.77344C13.6918 4.85156 13.6215 4.91146 13.533 4.95312L9.32983 6.82812V11.5C9.32983 11.6354 9.28035 11.7526 9.1814 11.8516C9.08244 11.9505 8.96525 12 8.82983 12C8.69442 12 8.57723 11.9505 8.47827 11.8516C8.37931 11.7526 8.32983 11.6354 8.32983 11.5V6.82812Z" fill="#039900"/>
<path d="M0.829834 11.8203V4.17969C0.829834 4.03385 0.853271 3.88802 0.900146 3.74219C0.947021 3.59635 1.01213 3.46354 1.09546 3.34375C1.17879 3.21875 1.27775 3.10938 1.39233 3.01562C1.50692 2.91667 1.63452 2.83854 1.77515 2.78125L7.53296 0.484375C7.95483 0.317708 8.38713 0.234375 8.82983 0.234375C9.27254 0.234375 9.70483 0.317708 10.1267 0.484375L15.8845 2.78125C16.0251 2.83854 16.1528 2.91667 16.2673 3.01562C16.3819 3.10938 16.4809 3.21875 16.5642 3.34375C16.6475 3.46354 16.7126 3.59635 16.7595 3.74219C16.8064 3.88802 16.8298 4.03385 16.8298 4.17969V11.8203C16.8298 11.9714 16.8064 12.1198 16.7595 12.2656C16.7126 12.4062 16.6475 12.5391 16.5642 12.6641C16.4809 12.7839 16.3819 12.8932 16.2673 12.9922C16.1528 13.0911 16.0251 13.1667 15.8845 13.2188L10.1267 15.5156C9.70483 15.6823 9.27254 15.7656 8.82983 15.7656C8.38713 15.7656 7.95483 15.6823 7.53296 15.5156L1.77515 13.2188C1.63452 13.1667 1.50692 13.0911 1.39233 12.9922C1.27775 12.8932 1.17879 12.7839 1.09546 12.6641C1.01213 12.5391 0.947021 12.4062 0.900146 12.2656C0.853271 12.1198 0.829834 11.9714 0.829834 11.8203ZM8.82983 14.7656C9.15796 14.7656 9.46785 14.7083 9.75952 14.5938L15.5173 12.2891C15.6111 12.2474 15.6866 12.1849 15.7439 12.1016C15.8012 12.0182 15.8298 11.9245 15.8298 11.8203V4.17969C15.8298 4.07552 15.8012 3.98177 15.7439 3.89844C15.6866 3.8151 15.6111 3.7526 15.5173 3.71094L9.75952 1.40625C9.45744 1.28646 9.14754 1.22656 8.82983 1.22656C8.51213 1.22656 8.20223 1.28646 7.90015 1.40625L2.14233 3.71094C2.04858 3.7526 1.97306 3.8151 1.91577 3.89844C1.85848 3.98177 1.82983 4.07552 1.82983 4.17969V11.8203C1.82983 11.9245 1.85848 12.0182 1.91577 12.1016C1.97306 12.1849 2.04858 12.2474 2.14233 12.2891L7.90015 14.5938C8.19181 14.7083 8.50171 14.7656 8.82983 14.7656Z" fill="black" fill-opacity="0.8956"/>
</svg>
