<svg fill="none" xmlns="http://www.w3.org/2000/svg">
<path d="M12.8298 2H16.299C16.5922 2 16.8298 2.23767 16.8298 2.53086C16.8298 2.78996 16.6198 3 16.3607 3H15.8298V12C15.8298 12.086 15.8298 12.1823 15.8298 12V12.4906C15.8298 12.7719 15.6018 13 15.3204 13C15.0495 13 14.8298 12.7804 14.8298 12.5094V3H13.8298V12.5C13.8298 12.7761 13.606 13 13.3298 13C13.0537 13 12.8298 12.7761 12.8298 12.5V8.99997H12.5798C11.6033 8.99997 10.7699 8.70963 10.0798 8.01953C9.38973 7.32942 8.82983 6.53127 8.82983 5.55471C8.82983 4.56513 9.38973 3.6901 10.0798 3C10.7699 2.30989 11.8533 2 12.8298 2ZM12.3298 3C11.7048 3 11.2192 3.34896 10.7635 3.80468C10.3208 4.24739 9.82983 4.91669 9.82983 5.55471C9.82983 6.17971 10.3208 6.84392 10.7635 7.29965C11.2192 7.74236 11.9548 8.02355 12.5798 8.02355H12.8298V3H12.3298ZM16.3298 0C16.606 -1.48545e-06 16.8298 0.223855 16.8298 0.499997C16.8298 0.77614 16.606 0.999997 16.3298 0.999997C16.1228 0.999997 15.9119 0.999997 15.8298 0.999997H1.27515C1.02921 0.999997 0.829834 0.800578 0.829834 0.554639C0.829834 0.535157 0.829834 0.516783 0.829834 0.499997C0.829834 0.223856 1.05369 -9.95826e-07 1.32983 1.09361e-06L16.3298 0ZM0.829834 4.5C0.829834 4.22385 1.05369 4 1.32983 4H8.82983C8.82983 4 8.49349 4.49997 8.49349 4.99997L1.32983 5C1.05369 5 0.829834 4.77614 0.829834 4.5ZM9.32983 8C9.32983 8 10.3298 9 10.8298 8.99997H1.82983C1.74776 8.99997 1.53689 8.99997 1.32983 8.99998C1.05368 8.99999 0.829834 8.77613 0.829834 8.49999C0.829834 8.22385 1.05369 8 1.32983 8H9.32983Z" fill="#005FB7"/>
<path d="M16.3298 0C16.606 -1.48545e-06 16.8298 0.223855 16.8298 0.499997C16.8298 0.77614 16.606 0.999997 16.3298 0.999997C16.1228 0.999997 15.9119 0.999997 15.8298 0.999997H1.27515C1.02921 0.999997 0.829834 0.800578 0.829834 0.554639C0.829834 0.535157 0.829834 0.516783 0.829834 0.499997C0.829834 0.223856 1.05369 -9.95826e-07 1.32983 1.09361e-06L16.3298 0ZM0.829834 4.5C0.829834 4.22385 1.05369 4 1.32983 4H8.82983C8.82983 4 8.49349 4.49997 8.49349 4.99997L1.32983 5C1.05369 5 0.829834 4.77614 0.829834 4.5ZM9.32983 8C9.32983 8 10.3298 9 10.8298 8.99997H1.82983C1.74776 8.99997 1.53689 8.99997 1.32983 8.99998C1.05368 8.99999 0.829834 8.77613 0.829834 8.49999C0.829834 8.22385 1.05369 8 1.32983 8H9.32983Z" fill="black" fill-opacity="0.8956"/>
</svg>
