<svg viewBox="0 0 24 24" fill="none" xmlns="http://www.w3.org/2000/svg">
<path d="M18.0625 8.4375H12.4375C11.3329 8.4375 10.4375 9.33293 10.4375 10.4375V19.5625C10.4375 20.6671 11.3329 21.5625 12.4375 21.5625H18.0625C19.1671 21.5625 20.0625 20.6671 20.0625 19.5625V10.4375C20.0625 9.33293 19.1671 8.4375 18.0625 8.4375Z" fill="black" fill-opacity="0.0241"/>
<path fill-rule="evenodd" clip-rule="evenodd" d="M8.68762 1.875C7.96275 1.875 7.37512 2.46263 7.37512 3.1875C7.37512 3.91237 7.96275 4.5 8.68762 4.5H13.0626C13.7875 4.5 14.3751 3.91237 14.3751 3.1875C14.3751 2.46263 13.7875 1.875 13.0626 1.875H8.68762ZM6.50012 3.1875C6.50012 1.97938 7.4795 1 8.68762 1H13.0626C14.2707 1 15.2501 1.97938 15.2501 3.1875C15.2501 4.39562 14.2707 5.375 13.0626 5.375H8.68762C7.4795 5.375 6.50012 4.39562 6.50012 3.1875Z" fill="black" fill-opacity="0.8956"/>
<path fill-rule="evenodd" clip-rule="evenodd" d="M5.1875 3.625C4.46263 3.625 3.875 4.21263 3.875 4.9375V19.8125C3.875 20.5374 4.46263 21.125 5.1875 21.125H8.6875C8.92912 21.125 9.125 21.3209 9.125 21.5625C9.125 21.8041 8.92912 22 8.6875 22H5.1875C3.97938 22 3 21.0206 3 19.8125V4.9375C3 3.72938 3.97938 2.75 5.1875 2.75H6.9375C7.17912 2.75 7.375 2.94588 7.375 3.1875C7.375 3.42912 7.17912 3.625 6.9375 3.625H5.1875ZM14.375 3.1875C14.375 2.94588 14.5709 2.75 14.8125 2.75H16.5625C17.7706 2.75 18.75 3.72938 18.75 4.9375V6.6875C18.75 6.92912 18.5541 7.125 18.3125 7.125C18.0709 7.125 17.875 6.92912 17.875 6.6875V4.9375C17.875 4.21263 17.2874 3.625 16.5625 3.625H14.8125C14.5709 3.625 14.375 3.42912 14.375 3.1875Z" fill="black" fill-opacity="0.8956"/>
<path fill-rule="evenodd" clip-rule="evenodd" d="M9.99988 10.1875C9.99988 8.97938 10.9793 8 12.1874 8H18.3124C19.5205 8 20.4999 8.97938 20.4999 10.1875V19.8125C20.4999 21.0206 19.5205 22 18.3124 22H12.1874C10.9793 22 9.99988 21.0206 9.99988 19.8125V10.1875ZM12.1874 8.875C11.4625 8.875 10.8749 9.46263 10.8749 10.1875V19.8125C10.8749 20.5374 11.4625 21.125 12.1874 21.125H18.3124C19.0373 21.125 19.6249 20.5374 19.6249 19.8125V10.1875C19.6249 9.46263 19.0373 8.875 18.3124 8.875H12.1874Z" fill="#005FB7"/>
</svg>
