<svg viewBox="0 0 20 20" fill="none" xmlns="http://www.w3.org/2000/svg">
<g clip-path="url(#clip0)">
<path fill-rule="evenodd" clip-rule="evenodd" d="M2.9196 4.99984C2.36706 4.99984 1.83714 5.21934 1.44644 5.61004C1.05574 6.00074 0.836263 6.53063 0.836263 7.08317V13.3332C0.836263 13.5542 0.924059 13.7662 1.08033 13.9224C1.23661 14.0787 1.44857 14.1665 1.6696 14.1665H4.58626V14.9998H1.6696C1.22758 14.9998 0.803645 14.8243 0.491078 14.5117C0.178511 14.1991 0.00292969 13.7752 0.00292969 13.3332V7.08317C0.00292969 6.30963 0.310203 5.56777 0.857187 5.02079C1.40417 4.47381 2.14605 4.1665 2.9196 4.1665H17.0863C17.8598 4.1665 18.6017 4.47381 19.1487 5.02079C19.6957 5.56777 20.0029 6.30963 20.0029 7.08317V13.3332C20.0029 13.7752 19.8273 14.1991 19.5148 14.5117C19.2022 14.8243 18.7783 14.9998 18.3363 14.9998H15.4196V14.1665H18.3363C18.5573 14.1665 18.7693 14.0787 18.9255 13.9224C19.0818 13.7662 19.1696 13.5542 19.1696 13.3332V7.08317C19.1696 6.53063 18.9501 6.00074 18.5594 5.61004C18.1687 5.21934 17.6388 4.99984 17.0863 4.99984H2.9196Z" fill="black" fill-opacity="0.8956"/>
<path fill-rule="evenodd" clip-rule="evenodd" d="M5.8361 1.66659C5.61508 1.66659 5.40311 1.75438 5.24684 1.91066C5.09056 2.06693 5.00277 2.2789 5.00277 2.49992V4.16659H15.0867V2.49992C15.0867 2.2789 14.9989 2.06693 14.8426 1.91066C14.6863 1.75438 14.4744 1.66659 14.2534 1.66659H5.8361ZM4.65758 1.3214C4.97015 1.00883 5.39408 0.833252 5.8361 0.833252H14.2534C14.6954 0.833252 15.1193 1.00883 15.4319 1.3214C15.7444 1.63397 15.92 2.0579 15.92 2.49992V4.99992H4.16943V2.49992C4.16943 2.0579 4.34501 1.63397 4.65758 1.3214Z" fill="black" fill-opacity="0.8956"/>
<path fill-rule="evenodd" clip-rule="evenodd" d="M5.8361 10.8333C5.37586 10.8333 5.00277 11.2064 5.00277 11.6667V17.5C5.00277 17.9602 5.37586 18.3333 5.8361 18.3333H14.1694C14.6297 18.3333 15.0028 17.9602 15.0028 17.5V11.6667C15.0028 11.2064 14.6297 10.8333 14.1694 10.8333H5.8361ZM4.16943 11.6667C4.16943 10.7462 4.91563 10 5.8361 10H14.1694C15.0899 10 15.8361 10.7462 15.8361 11.6667V17.5C15.8361 18.4205 15.0899 19.1667 14.1694 19.1667H5.8361C4.91563 19.1667 4.16943 18.4205 4.16943 17.5V11.6667Z" fill="black" fill-opacity="0.8956"/>
</g>
<defs>
<clipPath id="clip0">
<rect width="20" height="20" fill="white"/>
</clipPath>
</defs>
</svg>
