<svg viewBox="0 0 16 16" fill="none" xmlns="http://www.w3.org/2000/svg">
<path d="M6.82983 3C6.13713 3 5.48608 3.13021 4.87671 3.39062C4.27254 3.65104 3.7439 4.00781 3.29077 4.46094C2.83765 4.91406 2.48088 5.44531 2.22046 6.05469C1.96004 6.65885 1.82983 7.30729 1.82983 8C1.82983 8.42188 1.88452 8.84635 1.9939 9.27344C2.10327 9.69531 2.26473 10.0911 2.47827 10.4609C2.50952 10.5182 2.54858 10.5807 2.59546 10.6484C2.64754 10.7161 2.69702 10.7865 2.7439 10.8594C2.79077 10.9323 2.82983 11.0052 2.86108 11.0781C2.89754 11.151 2.91577 11.2188 2.91577 11.2812C2.91577 11.4167 2.86629 11.5339 2.76733 11.6328C2.66838 11.7318 2.55119 11.7812 2.41577 11.7812C2.32723 11.7812 2.25171 11.763 2.18921 11.7266C2.13192 11.6901 2.07463 11.6406 2.01733 11.5781C1.82463 11.3542 1.65275 11.0964 1.50171 10.8047C1.35588 10.513 1.23348 10.2083 1.13452 9.89062C1.03556 9.57292 0.960042 9.2526 0.907959 8.92969C0.855876 8.60156 0.829834 8.29167 0.829834 8C0.829834 7.45312 0.900146 6.92448 1.04077 6.41406C1.1866 5.90365 1.38973 5.42708 1.65015 4.98438C1.91056 4.53646 2.22306 4.13021 2.58765 3.76562C2.95223 3.40104 3.35588 3.08854 3.79858 2.82812C4.24129 2.5625 4.71785 2.35938 5.22827 2.21875C5.7439 2.07292 6.27775 2 6.82983 2H12.1267L10.9783 0.851562C10.8793 0.752604 10.8298 0.635417 10.8298 0.5C10.8298 0.364583 10.8793 0.247396 10.9783 0.148438C11.0772 0.0494792 11.1944 0 11.3298 0C11.4653 0 11.5824 0.0494792 11.6814 0.148438L13.6814 2.14844C13.7804 2.2474 13.8298 2.36458 13.8298 2.5C13.8298 2.63542 13.7804 2.7526 13.6814 2.85156L11.6814 4.85156C11.5824 4.95052 11.4653 5 11.3298 5C11.1944 5 11.0772 4.95052 10.9783 4.85156C10.8793 4.7526 10.8298 4.63542 10.8298 4.5C10.8298 4.36458 10.8793 4.2474 10.9783 4.14844L12.1267 3H6.82983ZM16.8298 8C16.8298 8.55208 16.7569 9.08333 16.6111 9.59375C16.4705 10.099 16.2699 10.5755 16.0095 11.0234C15.7491 11.4661 15.4366 11.8698 15.072 12.2344C14.7074 12.599 14.3038 12.9141 13.8611 13.1797C13.4184 13.4401 12.9392 13.6432 12.4236 13.7891C11.9132 13.9297 11.3819 14 10.8298 14H5.54077L6.6814 15.1484C6.78035 15.2474 6.82983 15.3646 6.82983 15.5C6.82983 15.6354 6.78035 15.7526 6.6814 15.8516C6.58244 15.9505 6.46525 16 6.32983 16C6.19442 16 6.07723 15.9505 5.97827 15.8516L3.97827 13.8516C3.87931 13.7526 3.82983 13.6354 3.82983 13.5C3.82983 13.3646 3.87931 13.2474 3.97827 13.1484L5.97827 11.1484C6.07723 11.0495 6.19442 11 6.32983 11C6.46525 11 6.58244 11.0495 6.6814 11.1484C6.78035 11.2474 6.82983 11.3646 6.82983 11.5C6.82983 11.6354 6.78035 11.7526 6.6814 11.8516L5.54077 13H10.8298C11.5225 13 12.171 12.8698 12.7751 12.6094C13.3845 12.349 13.9158 11.9922 14.3689 11.5391C14.822 11.0859 15.1788 10.5573 15.4392 9.95312C15.6996 9.34375 15.8298 8.69271 15.8298 8C15.8298 7.70312 15.809 7.42708 15.7673 7.17188C15.7257 6.91667 15.6632 6.66927 15.5798 6.42969C15.4965 6.1901 15.3923 5.95573 15.2673 5.72656C15.1475 5.4974 15.0069 5.26042 14.8455 5.01562C14.809 4.95833 14.783 4.91146 14.7673 4.875C14.7517 4.83854 14.7439 4.78646 14.7439 4.71875C14.7439 4.58333 14.7908 4.46615 14.8845 4.36719C14.9835 4.26302 15.1033 4.21094 15.2439 4.21094C15.3324 4.21094 15.4054 4.22917 15.4626 4.26562C15.5251 4.30208 15.585 4.35156 15.6423 4.41406C15.835 4.63802 16.0043 4.89583 16.1501 5.1875C16.3012 5.47917 16.4262 5.78646 16.5251 6.10938C16.6241 6.42708 16.6996 6.75 16.7517 7.07812C16.8038 7.40104 16.8298 7.70833 16.8298 8Z" fill="#005FB7"/>
<path d="M6.82983 3C6.13713 3 5.48608 3.13021 4.87671 3.39062C4.27254 3.65104 3.7439 4.00781 3.29077 4.46094C2.83765 4.91406 2.48088 5.44531 2.22046 6.05469C1.96004 6.65885 1.82983 7.30729 1.82983 8C1.82983 8.42188 1.88452 8.84635 1.9939 9.27344C2.10327 9.69531 2.26473 10.0911 2.47827 10.4609C2.50952 10.5182 2.54858 10.5807 2.59546 10.6484C2.64754 10.7161 2.69702 10.7865 2.7439 10.8594C2.79077 10.9323 2.82983 11.0052 2.86108 11.0781C2.89754 11.151 2.91577 11.2188 2.91577 11.2812C2.91577 11.4167 2.86629 11.5339 2.76733 11.6328C2.66838 11.7318 2.55119 11.7812 2.41577 11.7812C2.32723 11.7812 2.25171 11.763 2.18921 11.7266C2.13192 11.6901 2.07463 11.6406 2.01733 11.5781C1.82463 11.3542 1.65275 11.0964 1.50171 10.8047C1.35588 10.513 1.23348 10.2083 1.13452 9.89062C1.03556 9.57292 0.960042 9.2526 0.907959 8.92969C0.855876 8.60156 0.829834 8.29167 0.829834 8C0.829834 7.45312 0.900146 6.92448 1.04077 6.41406C1.1866 5.90365 1.38973 5.42708 1.65015 4.98438C1.91056 4.53646 2.22306 4.13021 2.58765 3.76562C2.95223 3.40104 3.35588 3.08854 3.79858 2.82812C4.24129 2.5625 4.71785 2.35938 5.22827 2.21875C5.7439 2.07292 6.27775 2 6.82983 2H12.1267L10.9783 0.851562C10.8793 0.752604 10.8298 0.635417 10.8298 0.5C10.8298 0.364583 10.8793 0.247396 10.9783 0.148438C11.0772 0.0494792 11.1944 0 11.3298 0C11.4653 0 11.5824 0.0494792 11.6814 0.148438L13.6814 2.14844C13.7804 2.2474 13.8298 2.36458 13.8298 2.5C13.8298 2.63542 13.7804 2.7526 13.6814 2.85156L11.6814 4.85156C11.5824 4.95052 11.4653 5 11.3298 5C11.1944 5 11.0772 4.95052 10.9783 4.85156C10.8793 4.7526 10.8298 4.63542 10.8298 4.5C10.8298 4.36458 10.8793 4.2474 10.9783 4.14844L12.1267 3H6.82983Z" fill="black" fill-opacity="0.8956"/>
</svg>
