<svg viewBox="0 0 17 17" fill="none" xmlns="http://www.w3.org/2000/svg">
<path d="M4.32641 7.99317C4.12348 7.99317 3.93096 7.95415 3.74885 7.8761C3.56674 7.79805 3.40544 7.69138 3.26495 7.5561C3.12966 7.41561 3.023 7.25431 2.94495 7.0722C2.8669 6.89008 2.82788 6.69756 2.82788 6.49464V4.49659C2.82788 4.29366 2.8669 4.10114 2.94495 3.91903C3.023 3.73691 3.12966 3.57821 3.26495 3.44293C3.40544 3.30244 3.56674 3.19317 3.74885 3.11512C3.93096 3.03708 4.12348 2.99805 4.32641 2.99805H6.32446C6.52739 2.99805 6.71991 3.03708 6.90202 3.11512C7.08414 3.19317 7.24283 3.30244 7.37812 3.44293C7.51861 3.57821 7.62788 3.73691 7.70592 3.91903C7.78397 4.10114 7.823 4.29366 7.823 4.49659V6.49464C7.823 6.69756 7.78397 6.89008 7.70592 7.0722C7.62788 7.25431 7.51861 7.41561 7.37812 7.5561C7.24283 7.69138 7.08414 7.79805 6.90202 7.8761C6.71991 7.95415 6.52739 7.99317 6.32446 7.99317H4.32641ZM11.3196 7.99317C11.1167 7.99317 10.9241 7.95415 10.742 7.8761C10.5599 7.79805 10.3986 7.69138 10.2581 7.5561C10.1228 7.41561 10.0162 7.25431 9.93812 7.0722C9.86007 6.89008 9.82105 6.69756 9.82105 6.49464V4.49659C9.82105 4.29366 9.86007 4.10114 9.93812 3.91903C10.0162 3.73691 10.1228 3.57821 10.2581 3.44293C10.3986 3.30244 10.5599 3.19317 10.742 3.11512C10.9241 3.03708 11.1167 2.99805 11.3196 2.99805H13.3176C13.5206 2.99805 13.7131 3.03708 13.8952 3.11512C14.0773 3.19317 14.236 3.30244 14.3713 3.44293C14.5118 3.57821 14.621 3.73691 14.6991 3.91903C14.7771 4.10114 14.8162 4.29366 14.8162 4.49659V6.49464C14.8162 6.69756 14.7771 6.89008 14.6991 7.0722C14.621 7.25431 14.5118 7.41561 14.3713 7.5561C14.236 7.69138 14.0773 7.79805 13.8952 7.8761C13.7131 7.95415 13.5206 7.99317 13.3176 7.99317H11.3196ZM6.32446 6.99415C6.45975 6.99415 6.57682 6.94472 6.67568 6.84586C6.77454 6.74699 6.82397 6.62992 6.82397 6.49464V4.49659C6.82397 4.3613 6.77454 4.24423 6.67568 4.14537C6.57682 4.04651 6.45975 3.99708 6.32446 3.99708H4.32641C4.19113 3.99708 4.07405 4.04651 3.97519 4.14537C3.87633 4.24423 3.8269 4.3613 3.8269 4.49659V6.49464C3.8269 6.62992 3.87633 6.74699 3.97519 6.84586C4.07405 6.94472 4.19113 6.99415 4.32641 6.99415H6.32446ZM13.3176 6.99415C13.4529 6.99415 13.57 6.94472 13.6689 6.84586C13.7677 6.74699 13.8171 6.62992 13.8171 6.49464V4.49659C13.8171 4.3613 13.7677 4.24423 13.6689 4.14537C13.57 4.04651 13.4529 3.99708 13.3176 3.99708H11.3196C11.1843 3.99708 11.0672 4.04651 10.9684 4.14537C10.8695 4.24423 10.8201 4.3613 10.8201 4.49659V6.49464C10.8201 6.62992 10.8695 6.74699 10.9684 6.84586C11.0672 6.94472 11.1843 6.99415 11.3196 6.99415H13.3176ZM4.32641 14.9863C4.12348 14.9863 3.93096 14.9473 3.74885 14.8693C3.56674 14.7912 3.40544 14.6845 3.26495 14.5493C3.12966 14.4088 3.023 14.2475 2.94495 14.0654C2.8669 13.8832 2.82788 13.6907 2.82788 13.4878V11.4897C2.82788 11.2868 2.8669 11.0943 2.94495 10.9122C3.023 10.7301 3.12966 10.5714 3.26495 10.4361C3.40544 10.2956 3.56674 10.1863 3.74885 10.1083C3.93096 10.0302 4.12348 9.99122 4.32641 9.99122H6.32446C6.52739 9.99122 6.71991 10.0302 6.90202 10.1083C7.08414 10.1863 7.24283 10.2956 7.37812 10.4361C7.51861 10.5714 7.62788 10.7301 7.70592 10.9122C7.78397 11.0943 7.823 11.2868 7.823 11.4897V13.4878C7.823 13.6907 7.78397 13.8832 7.70592 14.0654C7.62788 14.2475 7.51861 14.4088 7.37812 14.5493C7.24283 14.6845 7.08414 14.7912 6.90202 14.8693C6.71991 14.9473 6.52739 14.9863 6.32446 14.9863H4.32641ZM11.3196 14.9863C11.1167 14.9863 10.9241 14.9473 10.742 14.8693C10.5599 14.7912 10.3986 14.6845 10.2581 14.5493C10.1228 14.4088 10.0162 14.2475 9.93812 14.0654C9.86007 13.8832 9.82105 13.6907 9.82105 13.4878V11.4897C9.82105 11.2868 9.86007 11.0943 9.93812 10.9122C10.0162 10.7301 10.1228 10.5714 10.2581 10.4361C10.3986 10.2956 10.5599 10.1863 10.742 10.1083C10.9241 10.0302 11.1167 9.99122 11.3196 9.99122H13.3176C13.5206 9.99122 13.7131 10.0302 13.8952 10.1083C14.0773 10.1863 14.236 10.2956 14.3713 10.4361C14.5118 10.5714 14.621 10.7301 14.6991 10.9122C14.7771 11.0943 14.8162 11.2868 14.8162 11.4897V13.4878C14.8162 13.6907 14.7771 13.8832 14.6991 14.0654C14.621 14.2475 14.5118 14.4088 14.3713 14.5493C14.236 14.6845 14.0773 14.7912 13.8952 14.8693C13.7131 14.9473 13.5206 14.9863 13.3176 14.9863H11.3196ZM6.32446 13.9873C6.45975 13.9873 6.57682 13.9379 6.67568 13.839C6.77454 13.7402 6.82397 13.6231 6.82397 13.4878V11.4897C6.82397 11.3545 6.77454 11.2374 6.67568 11.1385C6.57682 11.0397 6.45975 10.9902 6.32446 10.9902H4.32641C4.19113 10.9902 4.07405 11.0397 3.97519 11.1385C3.87633 11.2374 3.8269 11.3545 3.8269 11.4897V13.4878C3.8269 13.6231 3.87633 13.7402 3.97519 13.839C4.07405 13.9379 4.19113 13.9873 4.32641 13.9873H6.32446ZM13.3176 13.9873C13.4529 13.9873 13.57 13.9379 13.6689 13.839C13.7677 13.7402 13.8171 13.6231 13.8171 13.4878V11.4897C13.8171 11.3545 13.7677 11.2374 13.6689 11.1385C13.57 11.0397 13.4529 10.9902 13.3176 10.9902H11.3196C11.1843 10.9902 11.0672 11.0397 10.9684 11.1385C10.8695 11.2374 10.8201 11.3545 10.8201 11.4897V13.4878C10.8201 13.6231 10.8695 13.7402 10.9684 13.839C11.0672 13.9379 11.1843 13.9873 11.3196 13.9873H13.3176Z" fill="#005FB7"/>
<path d="M0.829826 3.49755V2.95902C0.829826 2.69885 0.881859 2.4517 0.985924 2.21755C1.09519 1.9782 1.23828 1.77007 1.41519 1.59316C1.59731 1.41105 1.80544 1.26796 2.03958 1.16389C2.27893 1.05463 2.52869 0.999992 2.78885 0.999992L3.08544 0.992188C3.17389 0.992188 3.26235 0.997391 3.3508 1.0078C3.43926 1.0182 3.51731 1.04162 3.58495 1.07804C3.65779 1.11446 3.71503 1.1665 3.75666 1.23414C3.80348 1.29658 3.8269 1.38503 3.8269 1.4995C3.8269 1.61918 3.80348 1.71284 3.75666 1.78048C3.71503 1.84292 3.65779 1.88975 3.58495 1.92097C3.51731 1.95219 3.43926 1.973 3.3508 1.98341C3.26235 1.98861 3.17649 1.99121 3.09324 1.99121H2.97617C2.20609 1.99121 1.82105 2.37625 1.82105 3.14633L1.82885 3.49755C1.82885 3.63284 1.77942 3.74991 1.68056 3.84877C1.5817 3.94763 1.46462 3.99707 1.32934 3.99707C1.19405 3.99707 1.07698 3.94763 0.978119 3.84877C0.879257 3.74991 0.829826 3.63284 0.829826 3.49755ZM5.82495 1.99902C5.68966 1.99902 5.57259 1.94959 5.47373 1.85072C5.37487 1.75186 5.32544 1.63479 5.32544 1.4995C5.32544 1.36422 5.37487 1.24715 5.47373 1.14829C5.57259 1.04942 5.68966 0.999992 5.82495 0.999992H7.823C7.95828 0.999992 8.07535 1.04942 8.17422 1.14829C8.27308 1.24715 8.32251 1.36422 8.32251 1.4995C8.32251 1.63479 8.27308 1.75186 8.17422 1.85072C8.07535 1.94959 7.95828 1.99902 7.823 1.99902H5.82495ZM10.3206 1.99902C10.1853 1.99902 10.0682 1.94959 9.96934 1.85072C9.87048 1.75186 9.82105 1.63479 9.82105 1.4995C9.82105 1.36422 9.87048 1.24715 9.96934 1.14829C10.0682 1.04942 10.1853 0.999992 10.3206 0.999992H12.3186C12.4539 0.999992 12.571 1.04942 12.6698 1.14829C12.7687 1.24715 12.8181 1.36422 12.8181 1.4995C12.8181 1.63479 12.7687 1.75186 12.6698 1.85072C12.571 1.94959 12.4539 1.99902 12.3186 1.99902H10.3206ZM13.8171 1.4995C13.8171 1.36422 13.8666 1.24715 13.9654 1.14829C14.0643 1.04942 14.1814 0.999992 14.3167 0.999992H14.8552C15.1154 0.999992 15.3625 1.05463 15.5967 1.16389C15.836 1.26796 16.0441 1.41105 16.221 1.59316C16.4032 1.77007 16.5462 1.9782 16.6503 2.21755C16.7596 2.4517 16.8142 2.69885 16.8142 2.95902L16.822 3.2556C16.822 3.34406 16.8168 3.43251 16.8064 3.52097C16.796 3.60942 16.7726 3.69007 16.7362 3.76292C16.6997 3.83056 16.6477 3.8878 16.5801 3.93463C16.5176 3.97625 16.4292 3.99707 16.3147 3.99707C16.195 3.99707 16.1014 3.97625 16.0337 3.93463C15.9713 3.8878 15.9245 3.83056 15.8932 3.76292C15.862 3.69528 15.8412 3.61983 15.8308 3.53658C15.8256 3.44812 15.823 3.35967 15.823 3.27121V3.14633C15.823 2.7717 15.7241 2.48552 15.5264 2.2878C15.3287 2.09007 15.0425 1.99121 14.6679 1.99121L14.3167 1.99902C14.1814 1.99902 14.0643 1.94959 13.9654 1.85072C13.8666 1.75186 13.8171 1.63479 13.8171 1.4995ZM0.829826 7.49365V5.4956C0.829826 5.36032 0.879257 5.24324 0.978119 5.14438C1.07698 5.04552 1.19405 4.99609 1.32934 4.99609C1.46462 4.99609 1.5817 5.04552 1.68056 5.14438C1.77942 5.24324 1.82885 5.36032 1.82885 5.4956V7.49365C1.82885 7.62894 1.77942 7.74601 1.68056 7.84487C1.5817 7.94373 1.46462 7.99316 1.32934 7.99316C1.19405 7.99316 1.07698 7.94373 0.978119 7.84487C0.879257 7.74601 0.829826 7.62894 0.829826 7.49365ZM15.8152 7.49365V5.4956C15.8152 5.36032 15.8646 5.24324 15.9635 5.14438C16.0623 5.04552 16.1794 4.99609 16.3147 4.99609C16.45 4.99609 16.5671 5.04552 16.6659 5.14438C16.7648 5.24324 16.8142 5.36032 16.8142 5.4956V7.49365C16.8142 7.62894 16.7648 7.74601 16.6659 7.84487C16.5671 7.94373 16.45 7.99316 16.3147 7.99316C16.1794 7.99316 16.0623 7.94373 15.9635 7.84487C15.8646 7.74601 15.8152 7.62894 15.8152 7.49365ZM0.829826 11.9893V9.99121C0.829826 9.85593 0.879257 9.73885 0.978119 9.63999C1.07698 9.54113 1.19405 9.4917 1.32934 9.4917C1.46462 9.4917 1.5817 9.54113 1.68056 9.63999C1.77942 9.73885 1.82885 9.85593 1.82885 9.99121V11.9893C1.82885 12.1245 1.77942 12.2416 1.68056 12.3405C1.5817 12.4393 1.46462 12.4888 1.32934 12.4888C1.19405 12.4888 1.07698 12.4393 0.978119 12.3405C0.879257 12.2416 0.829826 12.1245 0.829826 11.9893ZM15.8152 11.9893V9.99121C15.8152 9.85593 15.8646 9.73885 15.9635 9.63999C16.0623 9.54113 16.1794 9.4917 16.3147 9.4917C16.45 9.4917 16.5671 9.54113 16.6659 9.63999C16.7648 9.73885 16.8142 9.85593 16.8142 9.99121V11.9893C16.8142 12.1245 16.7648 12.2416 16.6659 12.3405C16.5671 12.4393 16.45 12.4888 16.3147 12.4888C16.1794 12.4888 16.0623 12.4393 15.9635 12.3405C15.8646 12.2416 15.8152 12.1245 15.8152 11.9893ZM2.78885 16.9844C2.52869 16.9844 2.27893 16.9324 2.03958 16.8283C1.80544 16.719 1.59731 16.5759 1.41519 16.399C1.23828 16.2169 1.09519 16.0088 0.985924 15.7746C0.881859 15.5353 0.829826 15.2855 0.829826 15.0254L0.822021 14.7288C0.822021 14.6403 0.827225 14.5519 0.837631 14.4634C0.848038 14.375 0.868851 14.2969 0.90007 14.2293C0.936493 14.1564 0.988526 14.0992 1.05617 14.0576C1.12381 14.0107 1.21487 13.9873 1.32934 13.9873C1.44381 13.9873 1.53487 14.0107 1.60251 14.0576C1.67015 14.0992 1.71958 14.1564 1.7508 14.2293C1.78202 14.2969 1.80023 14.375 1.80544 14.4634C1.81584 14.5519 1.82105 14.6377 1.82105 14.721V14.838C1.82105 15.6081 2.20609 15.9932 2.97617 15.9932L3.32739 15.9854C3.46267 15.9854 3.57975 16.0348 3.67861 16.1337C3.77747 16.2325 3.8269 16.3496 3.8269 16.4849C3.8269 16.6202 3.77747 16.7372 3.67861 16.8361C3.57975 16.935 3.46267 16.9844 3.32739 16.9844H2.78885ZM13.8171 16.4849C13.8171 16.3704 13.838 16.2793 13.8796 16.2117C13.9264 16.1441 13.9836 16.0946 14.0513 16.0634C14.1241 16.0322 14.2022 16.014 14.2854 16.0088C14.3739 15.9984 14.4623 15.9932 14.5508 15.9932H14.6679C15.438 15.9932 15.823 15.6081 15.823 14.838L15.8152 14.4868C15.8152 14.3515 15.8646 14.2345 15.9635 14.1356C16.0623 14.0367 16.1794 13.9873 16.3147 13.9873C16.45 13.9873 16.5671 14.0367 16.6659 14.1356C16.7648 14.2345 16.8142 14.3515 16.8142 14.4868V15.0254C16.8142 15.2855 16.7596 15.5353 16.6503 15.7746C16.5462 16.0088 16.4032 16.2169 16.221 16.399C16.0441 16.5759 15.836 16.719 15.5967 16.8283C15.3625 16.9324 15.1154 16.9844 14.8552 16.9844L14.5586 16.9922C14.4702 16.9922 14.3817 16.987 14.2932 16.9766C14.2048 16.9662 14.1241 16.9454 14.0513 16.9141C13.9836 16.8777 13.9264 16.8257 13.8796 16.758C13.838 16.6904 13.8171 16.5993 13.8171 16.4849ZM5.82495 16.9844C5.68966 16.9844 5.57259 16.935 5.47373 16.8361C5.37487 16.7372 5.32544 16.6202 5.32544 16.4849C5.32544 16.3496 5.37487 16.2325 5.47373 16.1337C5.57259 16.0348 5.68966 15.9854 5.82495 15.9854H7.823C7.95828 15.9854 8.07535 16.0348 8.17422 16.1337C8.27308 16.2325 8.32251 16.3496 8.32251 16.4849C8.32251 16.6202 8.27308 16.7372 8.17422 16.8361C8.07535 16.935 7.95828 16.9844 7.823 16.9844H5.82495ZM10.3206 16.9844C10.1853 16.9844 10.0682 16.935 9.96934 16.8361C9.87048 16.7372 9.82105 16.6202 9.82105 16.4849C9.82105 16.3496 9.87048 16.2325 9.96934 16.1337C10.0682 16.0348 10.1853 15.9854 10.3206 15.9854H12.3186C12.4539 15.9854 12.571 16.0348 12.6698 16.1337C12.7687 16.2325 12.8181 16.3496 12.8181 16.4849C12.8181 16.6202 12.7687 16.7372 12.6698 16.8361C12.571 16.935 12.4539 16.9844 12.3186 16.9844H10.3206Z" fill="black" fill-opacity="0.8956"/>
</svg>
