<svg fill="none" xmlns="http://www.w3.org/2000/svg">
<path d="M0.829834 3.5V2.96094C0.829834 2.70052 0.881917 2.45312 0.986084 2.21875C1.09546 1.97917 1.23869 1.77083 1.41577 1.59375C1.59806 1.41146 1.8064 1.26823 2.04077 1.16406C2.28035 1.05469 2.53035 1 2.79077 1L3.08765 0.992188C3.17619 0.992188 3.26473 0.997396 3.35327 1.00781C3.44181 1.01823 3.51994 1.04167 3.58765 1.07812C3.66056 1.11458 3.71785 1.16667 3.75952 1.23438C3.8064 1.29688 3.82983 1.38542 3.82983 1.5C3.82983 1.61979 3.8064 1.71354 3.75952 1.78125C3.71785 1.84375 3.66056 1.89062 3.58765 1.92188C3.51994 1.95312 3.44181 1.97396 3.35327 1.98438C3.26473 1.98958 3.17879 1.99219 3.09546 1.99219H2.97827C2.20744 1.99219 1.82202 2.3776 1.82202 3.14844L1.82983 3.5C1.82983 3.63542 1.78035 3.7526 1.6814 3.85156C1.58244 3.95052 1.46525 4 1.32983 4C1.19442 4 1.07723 3.95052 0.978271 3.85156C0.879313 3.7526 0.829834 3.63542 0.829834 3.5ZM5.82983 2C5.69442 2 5.57723 1.95052 5.47827 1.85156C5.37931 1.7526 5.32983 1.63542 5.32983 1.5C5.32983 1.36458 5.37931 1.2474 5.47827 1.14844C5.57723 1.04948 5.69442 1 5.82983 1H7.82983C7.96525 1 8.08244 1.04948 8.1814 1.14844C8.28035 1.2474 8.32983 1.36458 8.32983 1.5C8.32983 1.63542 8.28035 1.7526 8.1814 1.85156C8.08244 1.95052 7.96525 2 7.82983 2H5.82983ZM10.3298 2C10.1944 2 10.0772 1.95052 9.97827 1.85156C9.87931 1.7526 9.82983 1.63542 9.82983 1.5C9.82983 1.36458 9.87931 1.2474 9.97827 1.14844C10.0772 1.04948 10.1944 1 10.3298 1H12.3298C12.4653 1 12.5824 1.04948 12.6814 1.14844C12.7804 1.2474 12.8298 1.36458 12.8298 1.5C12.8298 1.63542 12.7804 1.7526 12.6814 1.85156C12.5824 1.95052 12.4653 2 12.3298 2H10.3298ZM13.8298 1.5C13.8298 1.36458 13.8793 1.2474 13.9783 1.14844C14.0772 1.04948 14.1944 1 14.3298 1H14.8689C15.1293 1 15.3767 1.05469 15.6111 1.16406C15.8507 1.26823 16.059 1.41146 16.2361 1.59375C16.4184 1.77083 16.5616 1.97917 16.6658 2.21875C16.7751 2.45312 16.8298 2.70052 16.8298 2.96094L16.8376 3.25781C16.8376 3.34635 16.8324 3.4349 16.822 3.52344C16.8116 3.61198 16.7882 3.69271 16.7517 3.76562C16.7153 3.83333 16.6632 3.89062 16.5955 3.9375C16.533 3.97917 16.4444 4 16.3298 4C16.21 4 16.1163 3.97917 16.0486 3.9375C15.9861 3.89062 15.9392 3.83333 15.908 3.76562C15.8767 3.69792 15.8559 3.6224 15.8455 3.53906C15.8403 3.45052 15.8376 3.36198 15.8376 3.27344V3.14844C15.8376 2.77344 15.7387 2.48698 15.5408 2.28906C15.3429 2.09115 15.0564 1.99219 14.6814 1.99219L14.3298 2C14.1944 2 14.0772 1.95052 13.9783 1.85156C13.8793 1.7526 13.8298 1.63542 13.8298 1.5ZM4.32983 8C4.12671 8 3.934 7.96094 3.75171 7.88281C3.56942 7.80469 3.40796 7.69792 3.26733 7.5625C3.13192 7.42188 3.02515 7.26042 2.94702 7.07812C2.8689 6.89583 2.82983 6.70312 2.82983 6.5V4.5C2.82983 4.29688 2.8689 4.10417 2.94702 3.92188C3.02515 3.73958 3.13192 3.58073 3.26733 3.44531C3.40796 3.30469 3.56942 3.19531 3.75171 3.11719C3.934 3.03906 4.12671 3 4.32983 3H6.32983C6.53296 3 6.72567 3.03906 6.90796 3.11719C7.09025 3.19531 7.2491 3.30469 7.38452 3.44531C7.52515 3.58073 7.63452 3.73958 7.71265 3.92188C7.79077 4.10417 7.82983 4.29688 7.82983 4.5V6.5C7.82983 6.70312 7.79077 6.89583 7.71265 7.07812C7.63452 7.26042 7.52515 7.42188 7.38452 7.5625C7.2491 7.69792 7.09025 7.80469 6.90796 7.88281C6.72567 7.96094 6.53296 8 6.32983 8H4.32983ZM11.3298 8C11.1267 8 10.934 7.96094 10.7517 7.88281C10.5694 7.80469 10.408 7.69792 10.2673 7.5625C10.1319 7.42188 10.0251 7.26042 9.94702 7.07812C9.8689 6.89583 9.82983 6.70312 9.82983 6.5V4.5C9.82983 4.29688 9.8689 4.10417 9.94702 3.92188C10.0251 3.73958 10.1319 3.58073 10.2673 3.44531C10.408 3.30469 10.5694 3.19531 10.7517 3.11719C10.934 3.03906 11.1267 3 11.3298 3H13.3298C13.533 3 13.7257 3.03906 13.908 3.11719C14.0903 3.19531 14.2491 3.30469 14.3845 3.44531C14.5251 3.58073 14.6345 3.73958 14.7126 3.92188C14.7908 4.10417 14.8298 4.29688 14.8298 4.5V6.5C14.8298 6.70312 14.7908 6.89583 14.7126 7.07812C14.6345 7.26042 14.5251 7.42188 14.3845 7.5625C14.2491 7.69792 14.0903 7.80469 13.908 7.88281C13.7257 7.96094 13.533 8 13.3298 8H11.3298ZM6.32983 7C6.46525 7 6.58244 6.95052 6.6814 6.85156C6.78035 6.7526 6.82983 6.63542 6.82983 6.5V4.5C6.82983 4.36458 6.78035 4.2474 6.6814 4.14844C6.58244 4.04948 6.46525 4 6.32983 4H4.32983C4.19442 4 4.07723 4.04948 3.97827 4.14844C3.87931 4.2474 3.82983 4.36458 3.82983 4.5V6.5C3.82983 6.63542 3.87931 6.7526 3.97827 6.85156C4.07723 6.95052 4.19442 7 4.32983 7H6.32983ZM13.3298 7C13.4653 7 13.5824 6.95052 13.6814 6.85156C13.7804 6.7526 13.8298 6.63542 13.8298 6.5V4.5C13.8298 4.36458 13.7804 4.2474 13.6814 4.14844C13.5824 4.04948 13.4653 4 13.3298 4H11.3298C11.1944 4 11.0772 4.04948 10.9783 4.14844C10.8793 4.2474 10.8298 4.36458 10.8298 4.5V6.5C10.8298 6.63542 10.8793 6.7526 10.9783 6.85156C11.0772 6.95052 11.1944 7 11.3298 7H13.3298ZM0.829834 7.5V5.5C0.829834 5.36458 0.879313 5.2474 0.978271 5.14844C1.07723 5.04948 1.19442 5 1.32983 5C1.46525 5 1.58244 5.04948 1.6814 5.14844C1.78035 5.2474 1.82983 5.36458 1.82983 5.5V7.5C1.82983 7.63542 1.78035 7.7526 1.6814 7.85156C1.58244 7.95052 1.46525 8 1.32983 8C1.19442 8 1.07723 7.95052 0.978271 7.85156C0.879313 7.7526 0.829834 7.63542 0.829834 7.5ZM15.8298 7.5V5.5C15.8298 5.36458 15.8793 5.2474 15.9783 5.14844C16.0772 5.04948 16.1944 5 16.3298 5C16.4653 5 16.5824 5.04948 16.6814 5.14844C16.7804 5.2474 16.8298 5.36458 16.8298 5.5V7.5C16.8298 7.63542 16.7804 7.7526 16.6814 7.85156C16.5824 7.95052 16.4653 8 16.3298 8C16.1944 8 16.0772 7.95052 15.9783 7.85156C15.8793 7.7526 15.8298 7.63542 15.8298 7.5ZM0.829834 12V10C0.829834 9.86458 0.879313 9.7474 0.978271 9.64844C1.07723 9.54948 1.19442 9.5 1.32983 9.5C1.46525 9.5 1.58244 9.54948 1.6814 9.64844C1.78035 9.7474 1.82983 9.86458 1.82983 10V12C1.82983 12.1354 1.78035 12.2526 1.6814 12.3516C1.58244 12.4505 1.46525 12.5 1.32983 12.5C1.19442 12.5 1.07723 12.4505 0.978271 12.3516C0.879313 12.2526 0.829834 12.1354 0.829834 12ZM15.8298 12V10C15.8298 9.86458 15.8793 9.7474 15.9783 9.64844C16.0772 9.54948 16.1944 9.5 16.3298 9.5C16.4653 9.5 16.5824 9.54948 16.6814 9.64844C16.7804 9.7474 16.8298 9.86458 16.8298 10V12C16.8298 12.1354 16.7804 12.2526 16.6814 12.3516C16.5824 12.4505 16.4653 12.5 16.3298 12.5C16.1944 12.5 16.0772 12.4505 15.9783 12.3516C15.8793 12.2526 15.8298 12.1354 15.8298 12ZM4.32983 15C4.12671 15 3.934 14.9609 3.75171 14.8828C3.56942 14.8047 3.40796 14.6979 3.26733 14.5625C3.13192 14.4219 3.02515 14.2604 2.94702 14.0781C2.8689 13.8958 2.82983 13.7031 2.82983 13.5V11.5C2.82983 11.2969 2.8689 11.1042 2.94702 10.9219C3.02515 10.7396 3.13192 10.5807 3.26733 10.4453C3.40796 10.3047 3.56942 10.1953 3.75171 10.1172C3.934 10.0391 4.12671 10 4.32983 10H6.32983C6.53296 10 6.72567 10.0391 6.90796 10.1172C7.09025 10.1953 7.2491 10.3047 7.38452 10.4453C7.52515 10.5807 7.63452 10.7396 7.71265 10.9219C7.79077 11.1042 7.82983 11.2969 7.82983 11.5V13.5C7.82983 13.7031 7.79077 13.8958 7.71265 14.0781C7.63452 14.2604 7.52515 14.4219 7.38452 14.5625C7.2491 14.6979 7.09025 14.8047 6.90796 14.8828C6.72567 14.9609 6.53296 15 6.32983 15H4.32983ZM11.3298 15C11.1267 15 10.934 14.9609 10.7517 14.8828C10.5694 14.8047 10.408 14.6979 10.2673 14.5625C10.1319 14.4219 10.0251 14.2604 9.94702 14.0781C9.8689 13.8958 9.82983 13.7031 9.82983 13.5V11.5C9.82983 11.2969 9.8689 11.1042 9.94702 10.9219C10.0251 10.7396 10.1319 10.5807 10.2673 10.4453C10.408 10.3047 10.5694 10.1953 10.7517 10.1172C10.934 10.0391 11.1267 10 11.3298 10H13.3298C13.533 10 13.7257 10.0391 13.908 10.1172C14.0903 10.1953 14.2491 10.3047 14.3845 10.4453C14.5251 10.5807 14.6345 10.7396 14.7126 10.9219C14.7908 11.1042 14.8298 11.2969 14.8298 11.5V13.5C14.8298 13.7031 14.7908 13.8958 14.7126 14.0781C14.6345 14.2604 14.5251 14.4219 14.3845 14.5625C14.2491 14.6979 14.0903 14.8047 13.908 14.8828C13.7257 14.9609 13.533 15 13.3298 15H11.3298ZM6.32983 14C6.46525 14 6.58244 13.9505 6.6814 13.8516C6.78035 13.7526 6.82983 13.6354 6.82983 13.5V11.5C6.82983 11.3646 6.78035 11.2474 6.6814 11.1484C6.58244 11.0495 6.46525 11 6.32983 11H4.32983C4.19442 11 4.07723 11.0495 3.97827 11.1484C3.87931 11.2474 3.82983 11.3646 3.82983 11.5V13.5C3.82983 13.6354 3.87931 13.7526 3.97827 13.8516C4.07723 13.9505 4.19442 14 4.32983 14H6.32983ZM13.3298 14C13.4653 14 13.5824 13.9505 13.6814 13.8516C13.7804 13.7526 13.8298 13.6354 13.8298 13.5V11.5C13.8298 11.3646 13.7804 11.2474 13.6814 11.1484C13.5824 11.0495 13.4653 11 13.3298 11H11.3298C11.1944 11 11.0772 11.0495 10.9783 11.1484C10.8793 11.2474 10.8298 11.3646 10.8298 11.5V13.5C10.8298 13.6354 10.8793 13.7526 10.9783 13.8516C11.0772 13.9505 11.1944 14 11.3298 14H13.3298ZM2.79077 17C2.53035 17 2.28035 16.9479 2.04077 16.8438C1.8064 16.7344 1.59806 16.5911 1.41577 16.4141C1.23869 16.2318 1.09546 16.0234 0.986084 15.7891C0.881917 15.5495 0.829834 15.2995 0.829834 15.0391L0.822021 14.7422C0.822021 14.6536 0.82723 14.5651 0.837646 14.4766C0.848063 14.388 0.868896 14.3099 0.900146 14.2422C0.936605 14.1693 0.988688 14.112 1.0564 14.0703C1.1241 14.0234 1.21525 14 1.32983 14C1.44442 14 1.53556 14.0234 1.60327 14.0703C1.67098 14.112 1.72046 14.1693 1.75171 14.2422C1.78296 14.3099 1.80119 14.388 1.8064 14.4766C1.81681 14.5651 1.82202 14.651 1.82202 14.7344V14.8516C1.82202 15.6224 2.20744 16.0078 2.97827 16.0078L3.32983 16C3.46525 16 3.58244 16.0495 3.6814 16.1484C3.78035 16.2474 3.82983 16.3646 3.82983 16.5C3.82983 16.6354 3.78035 16.7526 3.6814 16.8516C3.58244 16.9505 3.46525 17 3.32983 17H2.79077ZM13.8298 16.5C13.8298 16.3854 13.8507 16.2943 13.8923 16.2266C13.9392 16.1589 13.9965 16.1094 14.0642 16.0781C14.1371 16.0469 14.2153 16.0286 14.2986 16.0234C14.3871 16.013 14.4757 16.0078 14.5642 16.0078H14.6814C15.4522 16.0078 15.8376 15.6224 15.8376 14.8516L15.8298 14.5C15.8298 14.3646 15.8793 14.2474 15.9783 14.1484C16.0772 14.0495 16.1944 14 16.3298 14C16.4653 14 16.5824 14.0495 16.6814 14.1484C16.7804 14.2474 16.8298 14.3646 16.8298 14.5V15.0391C16.8298 15.2995 16.7751 15.5495 16.6658 15.7891C16.5616 16.0234 16.4184 16.2318 16.2361 16.4141C16.059 16.5911 15.8507 16.7344 15.6111 16.8438C15.3767 16.9479 15.1293 17 14.8689 17L14.572 17.0078C14.4835 17.0078 14.3949 17.0026 14.3064 16.9922C14.2179 16.9818 14.1371 16.9609 14.0642 16.9297C13.9965 16.8932 13.9392 16.8411 13.8923 16.7734C13.8507 16.7057 13.8298 16.6146 13.8298 16.5ZM5.82983 17C5.69442 17 5.57723 16.9505 5.47827 16.8516C5.37931 16.7526 5.32983 16.6354 5.32983 16.5C5.32983 16.3646 5.37931 16.2474 5.47827 16.1484C5.57723 16.0495 5.69442 16 5.82983 16H7.82983C7.96525 16 8.08244 16.0495 8.1814 16.1484C8.28035 16.2474 8.32983 16.3646 8.32983 16.5C8.32983 16.6354 8.28035 16.7526 8.1814 16.8516C8.08244 16.9505 7.96525 17 7.82983 17H5.82983ZM10.3298 17C10.1944 17 10.0772 16.9505 9.97827 16.8516C9.87931 16.7526 9.82983 16.6354 9.82983 16.5C9.82983 16.3646 9.87931 16.2474 9.97827 16.1484C10.0772 16.0495 10.1944 16 10.3298 16H12.3298C12.4653 16 12.5824 16.0495 12.6814 16.1484C12.7804 16.2474 12.8298 16.3646 12.8298 16.5C12.8298 16.6354 12.7804 16.7526 12.6814 16.8516C12.5824 16.9505 12.4653 17 12.3298 17H10.3298Z" fill="#005FB7"/>
<path d="M0.829834 3.5V2.96094C0.829834 2.70052 0.881917 2.45312 0.986084 2.21875C1.09546 1.97917 1.23869 1.77083 1.41577 1.59375C1.59806 1.41146 1.8064 1.26823 2.04077 1.16406C2.28035 1.05469 2.53035 1 2.79077 1L3.08765 0.992188C3.17619 0.992188 3.26473 0.997396 3.35327 1.00781C3.44181 1.01823 3.51994 1.04167 3.58765 1.07812C3.66056 1.11458 3.71785 1.16667 3.75952 1.23438C3.8064 1.29688 3.82983 1.38542 3.82983 1.5C3.82983 1.61979 3.8064 1.71354 3.75952 1.78125C3.71785 1.84375 3.66056 1.89062 3.58765 1.92188C3.51994 1.95312 3.44181 1.97396 3.35327 1.98438C3.26473 1.98958 3.17879 1.99219 3.09546 1.99219H2.97827C2.20744 1.99219 1.82202 2.3776 1.82202 3.14844L1.82983 3.5C1.82983 3.63542 1.78035 3.7526 1.6814 3.85156C1.58244 3.95052 1.46525 4 1.32983 4C1.19442 4 1.07723 3.95052 0.978271 3.85156C0.879313 3.7526 0.829834 3.63542 0.829834 3.5ZM5.82983 2C5.69442 2 5.57723 1.95052 5.47827 1.85156C5.37931 1.7526 5.32983 1.63542 5.32983 1.5C5.32983 1.36458 5.37931 1.2474 5.47827 1.14844C5.57723 1.04948 5.69442 1 5.82983 1H7.82983C7.96525 1 8.08244 1.04948 8.1814 1.14844C8.28035 1.2474 8.32983 1.36458 8.32983 1.5C8.32983 1.63542 8.28035 1.7526 8.1814 1.85156C8.08244 1.95052 7.96525 2 7.82983 2H5.82983ZM10.3298 2C10.1944 2 10.0772 1.95052 9.97827 1.85156C9.87931 1.7526 9.82983 1.63542 9.82983 1.5C9.82983 1.36458 9.87931 1.2474 9.97827 1.14844C10.0772 1.04948 10.1944 1 10.3298 1H12.3298C12.4653 1 12.5824 1.04948 12.6814 1.14844C12.7804 1.2474 12.8298 1.36458 12.8298 1.5C12.8298 1.63542 12.7804 1.7526 12.6814 1.85156C12.5824 1.95052 12.4653 2 12.3298 2H10.3298ZM13.8298 1.5C13.8298 1.36458 13.8793 1.2474 13.9783 1.14844C14.0772 1.04948 14.1944 1 14.3298 1H14.8689C15.1293 1 15.3767 1.05469 15.6111 1.16406C15.8507 1.26823 16.059 1.41146 16.2361 1.59375C16.4184 1.77083 16.5616 1.97917 16.6658 2.21875C16.7751 2.45312 16.8298 2.70052 16.8298 2.96094L16.8376 3.25781C16.8376 3.34635 16.8324 3.4349 16.822 3.52344C16.8116 3.61198 16.7882 3.69271 16.7517 3.76562C16.7153 3.83333 16.6632 3.89062 16.5955 3.9375C16.533 3.97917 16.4444 4 16.3298 4C16.21 4 16.1163 3.97917 16.0486 3.9375C15.9861 3.89062 15.9392 3.83333 15.908 3.76562C15.8767 3.69792 15.8559 3.6224 15.8455 3.53906C15.8403 3.45052 15.8376 3.36198 15.8376 3.27344V3.14844C15.8376 2.77344 15.7387 2.48698 15.5408 2.28906C15.3429 2.09115 15.0564 1.99219 14.6814 1.99219L14.3298 2C14.1944 2 14.0772 1.95052 13.9783 1.85156C13.8793 1.7526 13.8298 1.63542 13.8298 1.5ZM0.829834 7.5V5.5C0.829834 5.36458 0.879313 5.2474 0.978271 5.14844C1.07723 5.04948 1.19442 5 1.32983 5C1.46525 5 1.58244 5.04948 1.6814 5.14844C1.78035 5.2474 1.82983 5.36458 1.82983 5.5V7.5C1.82983 7.63542 1.78035 7.7526 1.6814 7.85156C1.58244 7.95052 1.46525 8 1.32983 8C1.19442 8 1.07723 7.95052 0.978271 7.85156C0.879313 7.7526 0.829834 7.63542 0.829834 7.5ZM15.8298 7.5V5.5C15.8298 5.36458 15.8793 5.2474 15.9783 5.14844C16.0772 5.04948 16.1944 5 16.3298 5C16.4653 5 16.5824 5.04948 16.6814 5.14844C16.7804 5.2474 16.8298 5.36458 16.8298 5.5V7.5C16.8298 7.63542 16.7804 7.7526 16.6814 7.85156C16.5824 7.95052 16.4653 8 16.3298 8C16.1944 8 16.0772 7.95052 15.9783 7.85156C15.8793 7.7526 15.8298 7.63542 15.8298 7.5ZM0.829834 12V10C0.829834 9.86458 0.879313 9.7474 0.978271 9.64844C1.07723 9.54948 1.19442 9.5 1.32983 9.5C1.46525 9.5 1.58244 9.54948 1.6814 9.64844C1.78035 9.7474 1.82983 9.86458 1.82983 10V12C1.82983 12.1354 1.78035 12.2526 1.6814 12.3516C1.58244 12.4505 1.46525 12.5 1.32983 12.5C1.19442 12.5 1.07723 12.4505 0.978271 12.3516C0.879313 12.2526 0.829834 12.1354 0.829834 12ZM15.8298 12V10C15.8298 9.86458 15.8793 9.7474 15.9783 9.64844C16.0772 9.54948 16.1944 9.5 16.3298 9.5C16.4653 9.5 16.5824 9.54948 16.6814 9.64844C16.7804 9.7474 16.8298 9.86458 16.8298 10V12C16.8298 12.1354 16.7804 12.2526 16.6814 12.3516C16.5824 12.4505 16.4653 12.5 16.3298 12.5C16.1944 12.5 16.0772 12.4505 15.9783 12.3516C15.8793 12.2526 15.8298 12.1354 15.8298 12ZM2.79077 17C2.53035 17 2.28035 16.9479 2.04077 16.8438C1.8064 16.7344 1.59806 16.5911 1.41577 16.4141C1.23869 16.2318 1.09546 16.0234 0.986084 15.7891C0.881917 15.5495 0.829834 15.2995 0.829834 15.0391L0.822021 14.7422C0.822021 14.6536 0.82723 14.5651 0.837646 14.4766C0.848063 14.388 0.868896 14.3099 0.900146 14.2422C0.936605 14.1693 0.988688 14.112 1.0564 14.0703C1.1241 14.0234 1.21525 14 1.32983 14C1.44442 14 1.53556 14.0234 1.60327 14.0703C1.67098 14.112 1.72046 14.1693 1.75171 14.2422C1.78296 14.3099 1.80119 14.388 1.8064 14.4766C1.81681 14.5651 1.82202 14.651 1.82202 14.7344V14.8516C1.82202 15.6224 2.20744 16.0078 2.97827 16.0078L3.32983 16C3.46525 16 3.58244 16.0495 3.6814 16.1484C3.78035 16.2474 3.82983 16.3646 3.82983 16.5C3.82983 16.6354 3.78035 16.7526 3.6814 16.8516C3.58244 16.9505 3.46525 17 3.32983 17H2.79077ZM13.8298 16.5C13.8298 16.3854 13.8507 16.2943 13.8923 16.2266C13.9392 16.1589 13.9965 16.1094 14.0642 16.0781C14.1371 16.0469 14.2153 16.0286 14.2986 16.0234C14.3871 16.013 14.4757 16.0078 14.5642 16.0078H14.6814C15.4522 16.0078 15.8376 15.6224 15.8376 14.8516L15.8298 14.5C15.8298 14.3646 15.8793 14.2474 15.9783 14.1484C16.0772 14.0495 16.1944 14 16.3298 14C16.4653 14 16.5824 14.0495 16.6814 14.1484C16.7804 14.2474 16.8298 14.3646 16.8298 14.5V15.0391C16.8298 15.2995 16.7751 15.5495 16.6658 15.7891C16.5616 16.0234 16.4184 16.2318 16.2361 16.4141C16.059 16.5911 15.8507 16.7344 15.6111 16.8438C15.3767 16.9479 15.1293 17 14.8689 17L14.572 17.0078C14.4835 17.0078 14.3949 17.0026 14.3064 16.9922C14.2179 16.9818 14.1371 16.9609 14.0642 16.9297C13.9965 16.8932 13.9392 16.8411 13.8923 16.7734C13.8507 16.7057 13.8298 16.6146 13.8298 16.5ZM5.82983 17C5.69442 17 5.57723 16.9505 5.47827 16.8516C5.37931 16.7526 5.32983 16.6354 5.32983 16.5C5.32983 16.3646 5.37931 16.2474 5.47827 16.1484C5.57723 16.0495 5.69442 16 5.82983 16H7.82983C7.96525 16 8.08244 16.0495 8.1814 16.1484C8.28035 16.2474 8.32983 16.3646 8.32983 16.5C8.32983 16.6354 8.28035 16.7526 8.1814 16.8516C8.08244 16.9505 7.96525 17 7.82983 17H5.82983ZM10.3298 17C10.1944 17 10.0772 16.9505 9.97827 16.8516C9.87931 16.7526 9.82983 16.6354 9.82983 16.5C9.82983 16.3646 9.87931 16.2474 9.97827 16.1484C10.0772 16.0495 10.1944 16 10.3298 16H12.3298C12.4653 16 12.5824 16.0495 12.6814 16.1484C12.7804 16.2474 12.8298 16.3646 12.8298 16.5C12.8298 16.6354 12.7804 16.7526 12.6814 16.8516C12.5824 16.9505 12.4653 17 12.3298 17H10.3298Z" fill="black" fill-opacity="0.8956"/>
</svg>
