<svg viewBox="0 0 16 16" fill="none" xmlns="http://www.w3.org/2000/svg">
<path d="M14.6549 0.3125L16.0831 1.65625C16.1827 1.75 16.2326 1.86979 16.2326 2.01562C16.2326 2.15104 16.1827 2.26562 16.0831 2.35938C15.9724 2.45312 15.8451 2.5 15.7011 2.5C15.5572 2.5 15.4299 2.45312 15.3192 2.35938L14.8209 1.875V5C14.8209 5.14583 14.7656 5.26562 14.6549 5.35938C14.5552 5.45312 14.4334 5.5 14.2895 5.5C14.1345 5.5 14.0072 5.45312 13.9075 5.35938C13.8079 5.26562 13.7581 5.14583 13.7581 5V1.875L13.2432 2.35938C13.1436 2.45312 13.0163 2.5 12.8613 2.5C12.7173 2.5 12.5956 2.45312 12.4959 2.35938C12.3852 2.26562 12.3298 2.15104 12.3298 2.01562C12.3298 1.86979 12.3852 1.75 12.4959 1.65625L13.9075 0.3125C13.9629 0.270833 14.0182 0.239583 14.0736 0.21875C14.14 0.1875 14.212 0.171875 14.2895 0.171875C14.3227 0.171875 14.3559 0.177083 14.3891 0.1875C14.4224 0.1875 14.4556 0.192708 14.4888 0.203125C14.522 0.223958 14.5497 0.244792 14.5718 0.265625C14.605 0.276042 14.6327 0.291667 14.6549 0.3125ZM13.8553 12.2969V9.17188C13.8553 9.02604 13.9052 8.90625 14.0048 8.8125C14.1044 8.71875 14.2318 8.67188 14.3868 8.67188C14.5307 8.67188 14.6525 8.71875 14.7521 8.8125C14.8629 8.90625 14.9182 9.02604 14.9182 9.17188V12.2969L15.4164 11.8125C15.5271 11.7188 15.6545 11.6719 15.7984 11.6719C15.9423 11.6719 16.0697 11.7188 16.1804 11.8125C16.28 11.9062 16.3298 12.026 16.3298 12.1719C16.3298 12.3073 16.28 12.4219 16.1804 12.5156L14.7521 13.8594C14.73 13.8802 14.7023 13.901 14.6691 13.9219C14.647 13.9323 14.6193 13.9479 14.5861 13.9688C14.5528 13.9792 14.5196 13.9896 14.4864 14C14.4643 14 14.4366 14 14.4034 14C14.4034 14 14.3978 14 14.3868 14C14.3425 14 14.3037 14 14.2705 14C14.2373 13.9896 14.2041 13.9792 14.1709 13.9688C14.1487 13.9479 14.1211 13.9323 14.0878 13.9219C14.0546 13.901 14.0269 13.8802 14.0048 13.8594L12.5932 12.5156C12.4825 12.4219 12.4271 12.3073 12.4271 12.1719C12.4271 12.026 12.4825 11.9062 12.5932 11.8125C12.6928 11.7188 12.8146 11.6719 12.9585 11.6719C13.1135 11.6719 13.2409 11.7188 13.3405 11.8125L13.8553 12.2969Z" fill="#005FB7"/>
<path d="M0.829866 2.51562C0.829866 2.38022 0.879688 2.26563 0.979332 2.17189C1.09005 2.06772 1.21737 2.01562 1.3613 2.01562H7.38977C7.5337 2.01562 7.65549 2.06772 7.75513 2.17189C7.86585 2.26563 7.92121 2.38022 7.92121 2.51562C7.92121 2.66147 7.86585 2.78126 7.75513 2.87501C7.65549 2.96876 7.5337 3.01562 7.38977 3.01562H1.3613C1.21737 3.01562 1.09005 2.96876 0.979332 2.87501C0.879688 2.78126 0.829866 2.66147 0.829866 2.51562ZM0.829866 7.5C0.829866 7.35417 0.879688 7.23438 0.979332 7.14062C1.09005 7.04688 1.21737 7 1.3613 7H9.51551C9.65944 7 9.78123 7.04688 9.88087 7.14062C9.99159 7.23438 10.0469 7.35417 10.0469 7.5C10.0469 7.63542 9.99159 7.75521 9.88087 7.85938C9.78123 7.95312 9.65944 8 9.51551 8H1.3613C1.21737 8 1.09005 7.95312 0.979332 7.85938C0.879688 7.75521 0.829866 7.63542 0.829866 7.5ZM1.36127 12C1.21734 12 1.09002 12.0521 0.979301 12.1562C0.879656 12.25 0.829834 12.3646 0.829834 12.5C0.829834 12.6354 0.879656 12.7552 0.979301 12.8594C1.09002 12.9531 1.21734 13 1.36127 13H7.38974C7.53367 13 7.65546 12.9531 7.7551 12.8594C7.86582 12.7552 7.92117 12.6354 7.92117 12.5C7.92117 12.3646 7.86582 12.25 7.7551 12.1562C7.65546 12.0521 7.53367 12 7.38974 12H1.36127Z" fill="black" fill-opacity="0.8956"/>

</svg>
