<svg viewBox="0 0 16 16" fill="none" xmlns="http://www.w3.org/2000/svg">
<path d="M10.0626 1C9.88554 1 9.72929 1.07292 9.59387 1.21875C9.46887 1.35417 9.40637 1.51042 9.40637 1.6875C9.40637 1.82292 9.3595 1.94271 9.26575 2.04688C9.172 2.14062 9.0522 2.1875 8.90637 2.1875C8.77095 2.1875 8.65116 2.14062 8.547 2.04688C8.45325 1.94271 8.40637 1.82292 8.40637 1.6875C8.40637 1.27083 8.55741 0.885417 8.8595 0.53125C9.172 0.177083 9.57304 0 10.0626 0C10.3543 0 10.6251 0.0677083 10.8751 0.203125C11.1355 0.328125 11.3439 0.510417 11.5001 0.75C11.6668 1 11.7501 1.28125 11.7501 1.59375C11.7501 1.90625 11.6564 2.21875 11.4689 2.53125C11.3751 2.6875 11.2658 2.82812 11.1408 2.95312C11.0158 3.07812 10.8908 3.19271 10.7658 3.29688C10.7033 3.33854 10.6408 3.38542 10.5783 3.4375C10.5158 3.47917 10.4533 3.52083 10.3908 3.5625L10.3439 3.60938C10.2918 3.64062 10.2397 3.67708 10.1876 3.71875C10.146 3.75 10.1043 3.78125 10.0626 3.8125C9.93762 3.89583 9.82825 3.98438 9.7345 4.07812C9.65116 4.16146 9.58345 4.25 9.53137 4.34375H11.2189C11.3543 4.34375 11.4689 4.39062 11.5626 4.48438C11.6668 4.57812 11.7189 4.69792 11.7189 4.84375C11.7189 4.97917 11.6668 5.09896 11.5626 5.20312C11.4689 5.29688 11.3543 5.34375 11.2189 5.34375H8.90637C8.77095 5.34375 8.65116 5.29688 8.547 5.20312C8.45325 5.09896 8.40637 4.97917 8.40637 4.84375C8.40637 4.375 8.51575 4 8.7345 3.71875C8.96366 3.4375 9.20325 3.20312 9.45325 3.01562C9.50533 2.97396 9.55741 2.9375 9.6095 2.90625C9.66158 2.86458 9.71366 2.82292 9.76575 2.78125L9.81262 2.75C9.87512 2.70833 9.93241 2.66667 9.9845 2.625C10.047 2.58333 10.0991 2.54167 10.1408 2.5C10.2449 2.42708 10.3335 2.35417 10.4064 2.28125C10.4897 2.19792 10.5574 2.11458 10.6095 2.03125C10.7033 1.85417 10.7449 1.70833 10.7345 1.59375C10.7345 1.46875 10.7137 1.36979 10.672 1.29688C10.6095 1.21354 10.5262 1.14583 10.422 1.09375C10.3178 1.03125 10.198 1 10.0626 1Z" fill="#005FB7"/>
<path d="M8.00174 1.81248C8.02257 1.99998 8.07986 2.17186 8.17361 2.3281C8.27778 2.47394 8.40799 2.59373 8.56424 2.68748L5.15799 6.67186L8.87674 11.0156C8.97049 11.1198 9.01215 11.2396 9.00174 11.375C8.99132 11.5104 8.93403 11.625 8.82986 11.7188C8.71528 11.8125 8.59028 11.8542 8.45486 11.8438C8.31944 11.8333 8.20486 11.7708 8.11111 11.6562L4.50174 7.43748L0.876736 11.6562C0.782986 11.7708 0.668403 11.8333 0.532986 11.8438C0.397569 11.8542 0.277778 11.8125 0.173611 11.7188C0.0694444 11.625 0.0121528 11.5104 0.00173611 11.375C-0.00868056 11.2396 0.0277778 11.1198 0.111111 11.0156L3.84549 6.67186L0.111111 2.3281C0.0277778 2.22394 -0.00868056 2.10415 0.00173611 1.96873C0.0121528 1.83331 0.0694444 1.71873 0.173611 1.62498C0.277778 1.53123 0.397569 1.48956 0.532986 1.49998C0.668403 1.5104 0.782986 1.5729 0.876736 1.68748L4.50174 5.90623L8.00174 1.81248Z" fill="black" fill-opacity="0.8956"/>

</svg>
